G75*
%MOIN*%
%OFA0B0*%
%FSLAX24Y24*%
%IPPOS*%
%LPD*%
%AMOC8*
5,1,8,0,0,1.08239X$1,22.5*
%
%ADD10C,0.0000*%
%ADD11C,0.0030*%
%ADD12C,0.0060*%
%ADD13C,0.0050*%
%ADD14C,0.0100*%
%ADD15R,0.0335X0.0295*%
%ADD16R,0.0531X0.0354*%
%ADD17C,0.0020*%
%ADD18C,0.0080*%
D10*
X000150Y000950D02*
X000650Y000450D01*
X017650Y000450D01*
X018142Y000942D01*
X018142Y012958D01*
X017650Y013450D01*
X000650Y013450D01*
X000150Y012950D01*
X000150Y000950D01*
D11*
X006713Y010965D02*
X006762Y011013D01*
X006810Y010965D01*
X006858Y011013D01*
X006858Y011158D01*
X006960Y011158D02*
X006960Y011013D01*
X007008Y010965D01*
X007056Y011013D01*
X007105Y010965D01*
X007153Y011013D01*
X007153Y011158D01*
X007254Y011158D02*
X007254Y011013D01*
X007303Y010965D01*
X007351Y011013D01*
X007399Y010965D01*
X007448Y011013D01*
X007448Y011158D01*
X007549Y011013D02*
X007597Y011013D01*
X007597Y010965D01*
X007549Y010965D01*
X007549Y011013D01*
X007696Y011013D02*
X007696Y011110D01*
X007745Y011158D01*
X007890Y011158D01*
X007991Y011158D02*
X007991Y011013D01*
X008039Y010965D01*
X008184Y010965D01*
X008184Y011158D01*
X008286Y011110D02*
X008334Y011158D01*
X008479Y011158D01*
X008580Y011158D02*
X008677Y011158D01*
X008629Y011207D02*
X008629Y011013D01*
X008677Y010965D01*
X008777Y011013D02*
X008825Y010965D01*
X008922Y010965D01*
X008970Y011013D01*
X008970Y011110D01*
X008922Y011158D01*
X008825Y011158D01*
X008777Y011110D01*
X008777Y011013D01*
X008479Y011013D02*
X008431Y011062D01*
X008334Y011062D01*
X008286Y011110D01*
X008286Y010965D02*
X008431Y010965D01*
X008479Y011013D01*
X007890Y010965D02*
X007745Y010965D01*
X007696Y011013D01*
X007646Y011445D02*
X007597Y011493D01*
X007597Y011687D01*
X007549Y011638D02*
X007646Y011638D01*
X007745Y011590D02*
X007745Y011493D01*
X007794Y011445D01*
X007891Y011445D01*
X007939Y011493D01*
X007939Y011590D01*
X007891Y011638D01*
X007794Y011638D01*
X007745Y011590D01*
X008040Y011638D02*
X008040Y011445D01*
X008137Y011445D02*
X008137Y011590D01*
X008185Y011638D01*
X008234Y011590D01*
X008234Y011445D01*
X008137Y011590D02*
X008088Y011638D01*
X008040Y011638D01*
X008137Y011925D02*
X008137Y012215D01*
X008040Y012215D02*
X008234Y012215D01*
X008335Y012118D02*
X008335Y011925D01*
X008335Y012022D02*
X008431Y012118D01*
X008480Y012118D01*
X008629Y012118D02*
X008725Y012118D01*
X008774Y012070D01*
X008774Y011925D01*
X008629Y011925D01*
X008580Y011973D01*
X008629Y012022D01*
X008774Y012022D01*
X008875Y012118D02*
X008875Y011925D01*
X008972Y011784D02*
X008972Y011735D01*
X008972Y011638D02*
X008924Y011638D01*
X008972Y011638D02*
X008972Y011445D01*
X008924Y011445D02*
X009021Y011445D01*
X009120Y011493D02*
X009169Y011445D01*
X009314Y011445D01*
X009314Y011397D02*
X009314Y011638D01*
X009169Y011638D01*
X009120Y011590D01*
X009120Y011493D01*
X009217Y011348D02*
X009266Y011348D01*
X009314Y011397D01*
X009415Y011445D02*
X009512Y011445D01*
X009463Y011445D02*
X009463Y011638D01*
X009415Y011638D01*
X009463Y011735D02*
X009463Y011784D01*
X009513Y011925D02*
X009658Y011925D01*
X009759Y011973D02*
X009759Y012070D01*
X009807Y012118D01*
X009904Y012118D01*
X009952Y012070D01*
X009952Y012022D01*
X009759Y012022D01*
X009759Y011973D02*
X009807Y011925D01*
X009904Y011925D01*
X010053Y011925D02*
X010150Y011925D01*
X010102Y011925D02*
X010102Y012118D01*
X010053Y012118D01*
X010102Y012215D02*
X010102Y012264D01*
X010250Y012118D02*
X010347Y011925D01*
X010443Y012118D01*
X010545Y012070D02*
X010593Y012118D01*
X010690Y012118D01*
X010738Y012070D01*
X010738Y012022D01*
X010545Y012022D01*
X010545Y012070D02*
X010545Y011973D01*
X010593Y011925D01*
X010690Y011925D01*
X010839Y011925D02*
X010839Y012118D01*
X010839Y012022D02*
X010936Y012118D01*
X010984Y012118D01*
X011379Y012118D02*
X011476Y011925D01*
X011573Y012118D01*
X011674Y012118D02*
X011771Y012215D01*
X011771Y011925D01*
X011674Y011925D02*
X011868Y011925D01*
X011969Y011925D02*
X011969Y011973D01*
X012017Y011973D01*
X012017Y011925D01*
X011969Y011925D01*
X012116Y011973D02*
X012310Y012167D01*
X012310Y011973D01*
X012261Y011925D01*
X012164Y011925D01*
X012116Y011973D01*
X012116Y012167D01*
X012164Y012215D01*
X012261Y012215D01*
X012310Y012167D01*
X012411Y012118D02*
X012507Y012215D01*
X012507Y011925D01*
X012411Y011925D02*
X012604Y011925D01*
X012557Y011638D02*
X012702Y011638D01*
X012654Y011542D02*
X012557Y011542D01*
X012509Y011590D01*
X012557Y011638D01*
X012654Y011542D02*
X012702Y011493D01*
X012654Y011445D01*
X012509Y011445D01*
X012408Y011542D02*
X012408Y011590D01*
X012359Y011638D01*
X012263Y011638D01*
X012214Y011590D01*
X012214Y011493D01*
X012263Y011445D01*
X012359Y011445D01*
X012408Y011542D02*
X012214Y011542D01*
X012113Y011638D02*
X011968Y011638D01*
X011920Y011590D01*
X011920Y011493D01*
X011968Y011445D01*
X012113Y011445D01*
X011820Y011445D02*
X011723Y011445D01*
X011772Y011445D02*
X011772Y011638D01*
X011723Y011638D01*
X011622Y011638D02*
X011525Y011445D01*
X011429Y011638D01*
X011328Y011638D02*
X011280Y011638D01*
X011183Y011542D01*
X011183Y011638D02*
X011183Y011445D01*
X011082Y011542D02*
X011082Y011590D01*
X011033Y011638D01*
X010937Y011638D01*
X010888Y011590D01*
X010888Y011493D01*
X010937Y011445D01*
X011033Y011445D01*
X011082Y011542D02*
X010888Y011542D01*
X010787Y011542D02*
X010739Y011590D01*
X010642Y011590D01*
X010594Y011638D01*
X010594Y011687D01*
X010642Y011735D01*
X010739Y011735D01*
X010787Y011687D01*
X010787Y011542D02*
X010787Y011493D01*
X010739Y011445D01*
X010642Y011445D01*
X010594Y011493D01*
X010591Y011158D02*
X010446Y011158D01*
X010397Y011110D01*
X010397Y011013D01*
X010446Y010965D01*
X010591Y010965D01*
X010692Y011013D02*
X010692Y011110D01*
X010740Y011158D01*
X010837Y011158D01*
X010885Y011110D01*
X010885Y011013D01*
X010837Y010965D01*
X010740Y010965D01*
X010692Y011013D01*
X010987Y010965D02*
X010987Y011158D01*
X011035Y011158D01*
X011083Y011110D01*
X011132Y011158D01*
X011180Y011110D01*
X011180Y010965D01*
X011083Y010965D02*
X011083Y011110D01*
X010298Y011013D02*
X010298Y010965D01*
X010250Y010965D01*
X010250Y011013D01*
X010298Y011013D01*
X010149Y011013D02*
X010100Y011062D01*
X010004Y011062D01*
X009955Y011110D01*
X010004Y011158D01*
X010149Y011158D01*
X010149Y011013D02*
X010100Y010965D01*
X009955Y010965D01*
X009854Y010965D02*
X009709Y010965D01*
X009661Y011013D01*
X009661Y011110D01*
X009709Y011158D01*
X009854Y011158D01*
X009854Y011255D02*
X009854Y010965D01*
X009559Y011110D02*
X009366Y011110D01*
X009265Y011110D02*
X009265Y010965D01*
X009168Y010965D02*
X009168Y011110D01*
X009216Y011158D01*
X009265Y011110D01*
X009168Y011110D02*
X009120Y011158D01*
X009071Y011158D01*
X009071Y010965D01*
X008774Y011445D02*
X008823Y011493D01*
X008823Y011687D01*
X008774Y011735D01*
X008629Y011735D01*
X008629Y011445D01*
X008774Y011445D01*
X009068Y011925D02*
X009068Y012070D01*
X009020Y012118D01*
X008875Y012118D01*
X009170Y012070D02*
X009218Y012118D01*
X009363Y012118D01*
X009315Y012022D02*
X009218Y012022D01*
X009170Y012070D01*
X009170Y011925D02*
X009315Y011925D01*
X009363Y011973D01*
X009315Y012022D01*
X009464Y012070D02*
X009513Y012118D01*
X009658Y012118D01*
X009464Y012070D02*
X009464Y011973D01*
X009513Y011925D01*
X009660Y011687D02*
X009660Y011493D01*
X009708Y011445D01*
X009808Y011493D02*
X009856Y011542D01*
X010001Y011542D01*
X010001Y011590D02*
X010001Y011445D01*
X009856Y011445D01*
X009808Y011493D01*
X009856Y011638D02*
X009953Y011638D01*
X010001Y011590D01*
X010103Y011445D02*
X010199Y011445D01*
X010151Y011445D02*
X010151Y011735D01*
X010103Y011735D01*
X009708Y011638D02*
X009612Y011638D01*
X007644Y011925D02*
X007451Y012118D01*
X007350Y012070D02*
X007350Y012022D01*
X007156Y012022D01*
X007156Y012070D02*
X007204Y012118D01*
X007301Y012118D01*
X007350Y012070D01*
X007301Y011925D02*
X007204Y011925D01*
X007156Y011973D01*
X007156Y012070D01*
X007056Y011925D02*
X006960Y011925D01*
X007008Y011925D02*
X007008Y012215D01*
X006960Y012215D01*
X006858Y012215D02*
X006665Y012215D01*
X006665Y011925D01*
X006665Y012070D02*
X006762Y012070D01*
X006810Y011735D02*
X006713Y011735D01*
X006665Y011687D01*
X006665Y011493D01*
X006713Y011445D01*
X006810Y011445D01*
X006858Y011493D01*
X006960Y011493D02*
X006960Y011638D01*
X006858Y011687D02*
X006810Y011735D01*
X006960Y011493D02*
X007008Y011445D01*
X007153Y011445D01*
X007153Y011638D01*
X007254Y011590D02*
X007303Y011638D01*
X007448Y011638D01*
X007399Y011542D02*
X007303Y011542D01*
X007254Y011590D01*
X007254Y011445D02*
X007399Y011445D01*
X007448Y011493D01*
X007399Y011542D01*
X007451Y011925D02*
X007644Y012118D01*
X006665Y011158D02*
X006665Y011013D01*
X006713Y010965D01*
X011772Y011735D02*
X011772Y011784D01*
X012804Y011348D02*
X012900Y011445D01*
X012852Y011445D01*
X012852Y011493D01*
X012900Y011493D01*
X012900Y011445D01*
X013295Y011445D02*
X013295Y011735D01*
X013295Y011445D02*
X013488Y011445D01*
X013589Y011445D02*
X013783Y011445D01*
X013884Y011493D02*
X013932Y011445D01*
X014029Y011445D01*
X014077Y011493D01*
X013884Y011493D02*
X013884Y011687D01*
X013932Y011735D01*
X014029Y011735D01*
X014077Y011687D01*
X013589Y011735D02*
X013589Y011445D01*
D12*
X012710Y007710D02*
X011590Y007710D01*
X011590Y007190D01*
X012710Y007190D01*
X012710Y007710D01*
X012900Y001950D02*
X012650Y001700D01*
X012400Y001950D01*
X011900Y001950D01*
X011650Y001700D01*
X011400Y001950D01*
X010900Y001950D01*
X010650Y001700D01*
X010400Y001950D01*
X009900Y001950D01*
X009650Y001700D01*
X009650Y001200D01*
X009900Y000950D01*
X010400Y000950D01*
X010650Y001200D01*
X010900Y000950D01*
X011400Y000950D01*
X011650Y001200D01*
X011900Y000950D01*
X012400Y000950D01*
X012650Y001200D01*
X012900Y000950D01*
X013400Y000950D01*
X013650Y001200D01*
X013900Y000950D01*
X014400Y000950D01*
X014650Y001200D01*
X014900Y000950D01*
X015400Y000950D01*
X015650Y001200D01*
X015900Y000950D01*
X016400Y000950D01*
X016650Y001200D01*
X016900Y000950D01*
X017400Y000950D01*
X017650Y001200D01*
X017650Y001700D01*
X017400Y001950D01*
X016900Y001950D01*
X016650Y001700D01*
X016400Y001950D01*
X015900Y001950D01*
X015650Y001700D01*
X015400Y001950D01*
X014900Y001950D01*
X014650Y001700D01*
X014400Y001950D01*
X013900Y001950D01*
X013650Y001700D01*
X013400Y001950D01*
X012900Y001950D01*
X004650Y001700D02*
X004650Y001200D01*
X004400Y000950D01*
X003900Y000950D01*
X003650Y001200D01*
X003400Y000950D01*
X002900Y000950D01*
X002650Y001200D01*
X002400Y000950D01*
X001900Y000950D01*
X001650Y001200D01*
X001650Y001700D01*
X001900Y001950D01*
X002400Y001950D01*
X002650Y001700D01*
X002900Y001950D01*
X003400Y001950D01*
X003650Y001700D01*
X003900Y001950D01*
X004400Y001950D01*
X004650Y001700D01*
X003386Y003332D02*
X003386Y003568D01*
X002914Y003568D02*
X002914Y003332D01*
X002914Y005332D02*
X002914Y005568D01*
X003386Y005568D02*
X003386Y005332D01*
D13*
X001325Y001675D02*
X001325Y001225D01*
X001175Y001225D02*
X001475Y001225D01*
X001175Y001525D02*
X001325Y001675D01*
X009975Y000625D02*
X010125Y000775D01*
X010125Y000325D01*
X009975Y000325D02*
X010275Y000325D01*
X016925Y002200D02*
X017000Y002125D01*
X017150Y002125D01*
X017225Y002200D01*
X017225Y002275D01*
X017150Y002350D01*
X017000Y002350D01*
X016925Y002425D01*
X016925Y002500D01*
X017000Y002575D01*
X017150Y002575D01*
X017225Y002500D01*
X017225Y002425D01*
X017150Y002350D01*
X017000Y002350D02*
X016925Y002275D01*
X016925Y002200D01*
D14*
X008926Y007017D02*
X008374Y007017D01*
X008374Y007883D01*
X008926Y007883D01*
X008926Y007017D01*
D15*
X008640Y006830D03*
X008640Y008070D03*
D16*
X008660Y007686D03*
D17*
X009054Y007745D02*
X009274Y007745D01*
X009274Y007672D02*
X009274Y007819D01*
X009127Y007672D02*
X009054Y007745D01*
X009090Y007598D02*
X009054Y007561D01*
X009054Y007451D01*
X009274Y007451D01*
X009274Y007561D01*
X009237Y007598D01*
X009090Y007598D01*
X010560Y007149D02*
X010597Y007186D01*
X010633Y007186D01*
X010670Y007149D01*
X010707Y007186D01*
X010743Y007186D01*
X010780Y007149D01*
X010780Y007076D01*
X010743Y007039D01*
X010780Y006965D02*
X010707Y006891D01*
X010707Y006928D02*
X010707Y006818D01*
X010780Y006818D02*
X010560Y006818D01*
X010560Y006928D01*
X010597Y006965D01*
X010670Y006965D01*
X010707Y006928D01*
X010597Y007039D02*
X010560Y007076D01*
X010560Y007149D01*
X010670Y007149D02*
X010670Y007112D01*
X011847Y008260D02*
X011810Y008297D01*
X011810Y008443D01*
X011847Y008480D01*
X011920Y008480D01*
X011957Y008443D01*
X011957Y008297D01*
X011920Y008260D01*
X011847Y008260D01*
X011883Y008333D02*
X011957Y008260D01*
X012031Y008260D02*
X012178Y008260D01*
X012104Y008260D02*
X012104Y008480D01*
X012031Y008407D01*
X012018Y005540D02*
X012128Y005540D01*
X012165Y005503D01*
X012165Y005430D01*
X012128Y005393D01*
X012018Y005393D01*
X012018Y005320D02*
X012018Y005540D01*
X012091Y005393D02*
X012165Y005320D01*
X012239Y005320D02*
X012386Y005320D01*
X012312Y005320D02*
X012312Y005540D01*
X012239Y005467D01*
X016018Y005040D02*
X016018Y004820D01*
X016018Y004893D02*
X016128Y004893D01*
X016165Y004930D01*
X016165Y005003D01*
X016128Y005040D01*
X016018Y005040D01*
X016239Y005040D02*
X016239Y004930D01*
X016312Y004967D01*
X016349Y004967D01*
X016386Y004930D01*
X016386Y004857D01*
X016349Y004820D01*
X016276Y004820D01*
X016239Y004857D01*
X016165Y004820D02*
X016091Y004893D01*
X016239Y005040D02*
X016386Y005040D01*
X017018Y005040D02*
X017018Y004820D01*
X017018Y004893D02*
X017128Y004893D01*
X017165Y004930D01*
X017165Y005003D01*
X017128Y005040D01*
X017018Y005040D01*
X017091Y004893D02*
X017165Y004820D01*
X017239Y004930D02*
X017386Y004930D01*
X017349Y004820D02*
X017349Y005040D01*
X017239Y004930D01*
X007240Y004881D02*
X007203Y004881D01*
X007057Y005028D01*
X007020Y005028D01*
X007020Y004881D01*
X007057Y004807D02*
X007130Y004807D01*
X007167Y004770D01*
X007167Y004660D01*
X007240Y004660D02*
X007020Y004660D01*
X007020Y004770D01*
X007057Y004807D01*
X007167Y004733D02*
X007240Y004807D01*
X005528Y004960D02*
X005381Y004960D01*
X005528Y005107D01*
X005528Y005143D01*
X005491Y005180D01*
X005418Y005180D01*
X005381Y005143D01*
X005307Y005143D02*
X005307Y004997D01*
X005270Y004960D01*
X005197Y004960D01*
X005160Y004997D01*
X005160Y005143D01*
X005197Y005180D01*
X005270Y005180D01*
X005307Y005143D01*
X005233Y005033D02*
X005307Y004960D01*
X002815Y005160D02*
X002815Y005307D01*
X002815Y005381D02*
X002668Y005528D01*
X002632Y005528D01*
X002595Y005491D01*
X002595Y005418D01*
X002632Y005381D01*
X002815Y005381D02*
X002815Y005528D01*
X002815Y005160D02*
X002595Y005160D01*
X001936Y005357D02*
X001899Y005320D01*
X001826Y005320D01*
X001789Y005357D01*
X001715Y005357D02*
X001678Y005320D01*
X001605Y005320D01*
X001568Y005357D01*
X001568Y005503D01*
X001605Y005540D01*
X001678Y005540D01*
X001715Y005503D01*
X001789Y005503D02*
X001826Y005540D01*
X001899Y005540D01*
X001936Y005503D01*
X001936Y005467D01*
X001899Y005430D01*
X001936Y005393D01*
X001936Y005357D01*
X001899Y005430D02*
X001862Y005430D01*
X001826Y004040D02*
X001789Y004003D01*
X001826Y004040D02*
X001899Y004040D01*
X001936Y004003D01*
X001936Y003967D01*
X001789Y003820D01*
X001936Y003820D01*
X001715Y003857D02*
X001678Y003820D01*
X001605Y003820D01*
X001568Y003857D01*
X001568Y004003D01*
X001605Y004040D01*
X001678Y004040D01*
X001715Y004003D01*
X002595Y003454D02*
X002668Y003381D01*
X002595Y003454D02*
X002815Y003454D01*
X002815Y003381D02*
X002815Y003528D01*
X002815Y003307D02*
X002815Y003160D01*
X002595Y003160D01*
X001862Y002540D02*
X001789Y002467D01*
X001715Y002503D02*
X001678Y002540D01*
X001605Y002540D01*
X001568Y002503D01*
X001568Y002357D01*
X001605Y002320D01*
X001678Y002320D01*
X001715Y002357D01*
X001789Y002320D02*
X001936Y002320D01*
X001862Y002320D02*
X001862Y002540D01*
X007020Y002660D02*
X007020Y002770D01*
X007057Y002807D01*
X007130Y002807D01*
X007167Y002770D01*
X007167Y002660D01*
X007240Y002660D02*
X007020Y002660D01*
X007167Y002733D02*
X007240Y002807D01*
X007203Y002881D02*
X007130Y002881D01*
X007130Y002991D01*
X007167Y003028D01*
X007203Y003028D01*
X007240Y002991D01*
X007240Y002918D01*
X007203Y002881D01*
X007130Y002881D02*
X007057Y002954D01*
X007020Y003028D01*
X007097Y006868D02*
X007243Y006868D01*
X007280Y006905D01*
X007280Y006978D01*
X007243Y007015D01*
X007170Y007089D02*
X007060Y007199D01*
X007280Y007199D01*
X007170Y007236D02*
X007170Y007089D01*
X007097Y007015D02*
X007060Y006978D01*
X007060Y006905D01*
X007097Y006868D01*
X004386Y011820D02*
X004239Y011820D01*
X004386Y011967D01*
X004386Y012003D01*
X004349Y012040D01*
X004276Y012040D01*
X004239Y012003D01*
X004165Y012003D02*
X004165Y011930D01*
X004128Y011893D01*
X004018Y011893D01*
X004018Y011820D02*
X004018Y012040D01*
X004128Y012040D01*
X004165Y012003D01*
X004091Y011893D02*
X004165Y011820D01*
D18*
X001650Y012200D02*
X001650Y012700D01*
X001400Y012950D01*
X000900Y012950D01*
X000650Y012700D01*
X000650Y012200D01*
X000900Y011950D01*
X001400Y011950D01*
X001650Y012200D01*
X016650Y012200D02*
X016900Y011950D01*
X017400Y011950D01*
X017650Y012200D01*
X017650Y012700D01*
X017400Y012950D01*
X016900Y012950D01*
X016650Y012700D01*
X016650Y012200D01*
M02*
