G75*
%MOIN*%
%OFA0B0*%
%FSLAX24Y24*%
%IPPOS*%
%LPD*%
%AMOC8*
5,1,8,0,0,1.08239X$1,22.5*
%
%ADD10C,0.0600*%
%ADD11R,0.0551X0.0551*%
%ADD12R,0.0591X0.0512*%
%ADD13R,0.0512X0.0591*%
%ADD14R,0.0394X0.0551*%
%ADD15C,0.0740*%
%ADD16R,0.0472X0.0315*%
%ADD17C,0.0160*%
%ADD18C,0.0100*%
%ADD19OC8,0.0396*%
%ADD20C,0.0400*%
D10*
X002150Y001150D02*
X002150Y001750D01*
X003150Y001750D02*
X003150Y001150D01*
X004150Y001150D02*
X004150Y001750D01*
X010150Y001750D02*
X010150Y001150D01*
X011150Y001150D02*
X011150Y001750D01*
X012150Y001750D02*
X012150Y001150D01*
X013150Y001150D02*
X013150Y001750D01*
X014150Y001750D02*
X014150Y001150D01*
X015150Y001150D02*
X015150Y001750D01*
X016150Y001750D02*
X016150Y001150D01*
X017150Y001150D02*
X017150Y001750D01*
D11*
X008650Y006702D03*
X008650Y008198D03*
D12*
X007650Y007285D03*
X007650Y006615D03*
X007650Y005285D03*
X007650Y004615D03*
X007650Y003285D03*
X007650Y002615D03*
X010150Y006615D03*
X010150Y007285D03*
X016150Y004285D03*
X016150Y003615D03*
X017150Y003615D03*
X017150Y004285D03*
D13*
X012485Y005950D03*
X011815Y005950D03*
X004485Y012450D03*
X003815Y012450D03*
X001985Y005950D03*
X001315Y005950D03*
X001315Y004450D03*
X001985Y004450D03*
X001985Y002950D03*
X001315Y002950D03*
D14*
X005776Y004017D03*
X006524Y004017D03*
X006150Y004883D03*
X011776Y007017D03*
X012524Y007017D03*
X012150Y007883D03*
D15*
X017150Y012450D03*
X001150Y012450D03*
D16*
X003150Y005804D03*
X003150Y005096D03*
X003150Y003804D03*
X003150Y003096D03*
D17*
X003150Y002950D01*
X001985Y002950D01*
X003150Y002950D02*
X003150Y001450D01*
X005900Y003450D02*
X005900Y003893D01*
X005776Y004017D01*
X005900Y003450D02*
X006065Y003285D01*
X007650Y003285D01*
X007650Y002615D02*
X007650Y001950D01*
X008150Y001450D01*
X010150Y001450D01*
X007650Y004615D02*
X007565Y004700D01*
X006900Y004700D01*
X006717Y004883D01*
X006150Y004883D01*
X006150Y005950D01*
X006400Y006200D01*
X007650Y005285D02*
X008485Y005285D01*
X008650Y005450D01*
X010150Y007285D02*
X010748Y007883D01*
X012150Y007883D01*
X013217Y007883D01*
X014650Y006450D01*
X014650Y003950D01*
X016150Y002450D01*
X016150Y001450D01*
X017150Y001450D02*
X017150Y003615D01*
X017150Y004285D02*
X016150Y004285D01*
X016150Y005450D01*
X012524Y005989D02*
X012485Y005950D01*
X012485Y005285D01*
X012150Y004950D01*
X011650Y004950D01*
X011815Y005950D02*
X011776Y005989D01*
X011776Y007017D01*
X011217Y007017D01*
X011150Y006950D01*
X012524Y007017D02*
X012524Y005989D01*
X004150Y005450D02*
X004150Y004950D01*
X004150Y005450D02*
X003796Y005804D01*
X003150Y005804D01*
X002130Y005804D01*
X001985Y005950D01*
X003150Y005096D02*
X003150Y004450D01*
X001985Y004450D01*
X003150Y004450D02*
X003150Y003804D01*
X002650Y012450D02*
X003815Y012450D01*
D18*
X000600Y001136D02*
X000836Y000900D01*
X001775Y000900D01*
X001765Y000914D01*
X001733Y000977D01*
X001711Y001045D01*
X001700Y001115D01*
X001700Y001400D01*
X002100Y001400D01*
X002100Y001500D01*
X002100Y002198D01*
X002045Y002189D01*
X001977Y002167D01*
X001914Y002135D01*
X001857Y002093D01*
X001807Y002043D01*
X001765Y001986D01*
X001733Y001923D01*
X001711Y001855D01*
X001700Y001785D01*
X001700Y001500D01*
X002100Y001500D01*
X002200Y001500D01*
X002200Y002198D01*
X002255Y002189D01*
X002323Y002167D01*
X002386Y002135D01*
X002443Y002093D01*
X002493Y002043D01*
X002535Y001986D01*
X002567Y001923D01*
X002589Y001855D01*
X002600Y001785D01*
X002600Y001500D01*
X002200Y001500D01*
X002200Y001400D01*
X002600Y001400D01*
X002600Y001115D01*
X002589Y001045D01*
X002567Y000977D01*
X002535Y000914D01*
X002525Y000900D01*
X002792Y000900D01*
X002785Y000906D01*
X002720Y001064D01*
X002720Y001836D01*
X002785Y001994D01*
X002906Y002115D01*
X002940Y002128D01*
X002940Y002740D01*
X002371Y002740D01*
X002371Y002601D01*
X002294Y002525D01*
X001675Y002525D01*
X001664Y002535D01*
X001663Y002535D01*
X001629Y002515D01*
X001591Y002505D01*
X001365Y002505D01*
X001365Y002900D01*
X001265Y002900D01*
X000909Y002900D01*
X000909Y002635D01*
X000920Y002597D01*
X000939Y002563D01*
X000967Y002535D01*
X001002Y002515D01*
X001040Y002505D01*
X001265Y002505D01*
X001265Y002900D01*
X001265Y003000D01*
X000909Y003000D01*
X000909Y003265D01*
X000920Y003303D01*
X000939Y003337D01*
X000967Y003365D01*
X001002Y003385D01*
X001040Y003395D01*
X001265Y003395D01*
X001265Y003000D01*
X001365Y003000D01*
X001365Y003395D01*
X001591Y003395D01*
X001629Y003385D01*
X001663Y003365D01*
X001664Y003365D01*
X001675Y003375D01*
X002294Y003375D01*
X002371Y003299D01*
X002371Y003160D01*
X002784Y003160D01*
X002784Y003307D01*
X002860Y003383D01*
X003440Y003383D01*
X003516Y003307D01*
X003516Y002884D01*
X003440Y002808D01*
X003360Y002808D01*
X003360Y002128D01*
X003394Y002115D01*
X003515Y001994D01*
X003580Y001836D01*
X003580Y001064D01*
X003515Y000906D01*
X003508Y000900D01*
X003775Y000900D01*
X003765Y000914D01*
X003733Y000977D01*
X003711Y001045D01*
X003700Y001115D01*
X003700Y001400D01*
X004100Y001400D01*
X004100Y001500D01*
X004100Y002198D01*
X004045Y002189D01*
X003977Y002167D01*
X003914Y002135D01*
X003857Y002093D01*
X003807Y002043D01*
X003765Y001986D01*
X003733Y001923D01*
X003711Y001855D01*
X003700Y001785D01*
X003700Y001500D01*
X004100Y001500D01*
X004200Y001500D01*
X004200Y002198D01*
X004255Y002189D01*
X004323Y002167D01*
X004386Y002135D01*
X004443Y002093D01*
X004493Y002043D01*
X004535Y001986D01*
X004567Y001923D01*
X004589Y001855D01*
X004600Y001785D01*
X004600Y001500D01*
X004200Y001500D01*
X004200Y001400D01*
X004600Y001400D01*
X004600Y001115D01*
X004589Y001045D01*
X004567Y000977D01*
X004535Y000914D01*
X004525Y000900D01*
X009792Y000900D01*
X009785Y000906D01*
X009720Y001064D01*
X009720Y001240D01*
X008063Y001240D01*
X007563Y001740D01*
X007440Y001863D01*
X007440Y002229D01*
X007301Y002229D01*
X007225Y002306D01*
X007225Y002925D01*
X007250Y002950D01*
X007225Y002975D01*
X007225Y003075D01*
X005978Y003075D01*
X005813Y003240D01*
X005690Y003363D01*
X005690Y003611D01*
X005525Y003611D01*
X005449Y003687D01*
X005449Y004346D01*
X005525Y004423D01*
X006027Y004423D01*
X006103Y004346D01*
X006103Y003987D01*
X006110Y003980D01*
X006110Y003537D01*
X006152Y003495D01*
X007225Y003495D01*
X007225Y003594D01*
X007301Y003671D01*
X007999Y003671D01*
X008075Y003594D01*
X008075Y002975D01*
X008050Y002950D01*
X008075Y002925D01*
X008075Y002306D01*
X007999Y002229D01*
X007860Y002229D01*
X007860Y002037D01*
X008237Y001660D01*
X009720Y001660D01*
X009720Y001836D01*
X009785Y001994D01*
X009906Y002115D01*
X010064Y002180D01*
X010236Y002180D01*
X010394Y002115D01*
X010515Y001994D01*
X010580Y001836D01*
X010580Y001064D01*
X010515Y000906D01*
X010508Y000900D01*
X010792Y000900D01*
X010785Y000906D01*
X010720Y001064D01*
X010720Y001836D01*
X010785Y001994D01*
X010820Y002028D01*
X010820Y002313D01*
X008370Y004763D01*
X008320Y004884D01*
X008320Y005075D01*
X008075Y005075D01*
X008075Y004975D01*
X008050Y004950D01*
X008075Y004925D01*
X008075Y004306D01*
X007999Y004229D01*
X007301Y004229D01*
X007225Y004306D01*
X007225Y004490D01*
X006813Y004490D01*
X006690Y004613D01*
X006630Y004673D01*
X006477Y004673D01*
X006477Y004554D01*
X006401Y004477D01*
X005899Y004477D01*
X005823Y004554D01*
X005823Y005213D01*
X005899Y005289D01*
X005940Y005289D01*
X005940Y006037D01*
X006072Y006169D01*
X006072Y006336D01*
X006264Y006528D01*
X006536Y006528D01*
X006728Y006336D01*
X006728Y006064D01*
X006536Y005872D01*
X006369Y005872D01*
X006360Y005863D01*
X006360Y005289D01*
X006401Y005289D01*
X006477Y005213D01*
X006477Y005093D01*
X006804Y005093D01*
X006987Y004910D01*
X007225Y004910D01*
X007225Y004925D01*
X007250Y004950D01*
X007225Y004975D01*
X007225Y005594D01*
X007301Y005671D01*
X007999Y005671D01*
X008075Y005594D01*
X008075Y005495D01*
X008320Y005495D01*
X008320Y006297D01*
X008244Y006373D01*
X008244Y007031D01*
X008321Y007108D01*
X008979Y007108D01*
X009056Y007031D01*
X009056Y006945D01*
X009745Y006945D01*
X009750Y006950D01*
X009725Y006975D01*
X009725Y007594D01*
X009801Y007671D01*
X010239Y007671D01*
X010661Y008093D01*
X011823Y008093D01*
X011823Y008213D01*
X011899Y008289D01*
X012401Y008289D01*
X012477Y008213D01*
X012477Y008093D01*
X013304Y008093D01*
X014737Y006660D01*
X014860Y006537D01*
X014860Y004037D01*
X016237Y002660D01*
X016360Y002537D01*
X016360Y002128D01*
X016394Y002115D01*
X016515Y001994D01*
X016580Y001836D01*
X016580Y001064D01*
X016515Y000906D01*
X016508Y000900D01*
X016792Y000900D01*
X016785Y000906D01*
X016720Y001064D01*
X016720Y001836D01*
X016785Y001994D01*
X016906Y002115D01*
X016940Y002128D01*
X016940Y003229D01*
X016801Y003229D01*
X016725Y003306D01*
X016725Y003925D01*
X016750Y003950D01*
X016725Y003975D01*
X016725Y004075D01*
X016575Y004075D01*
X016575Y003975D01*
X016565Y003964D01*
X016565Y003963D01*
X016585Y003929D01*
X016595Y003891D01*
X016595Y003665D01*
X016200Y003665D01*
X016200Y003565D01*
X016200Y003209D01*
X016465Y003209D01*
X016503Y003220D01*
X016537Y003239D01*
X016565Y003267D01*
X016585Y003302D01*
X016595Y003340D01*
X016595Y003565D01*
X016200Y003565D01*
X016100Y003565D01*
X016100Y003209D01*
X015835Y003209D01*
X015797Y003220D01*
X015763Y003239D01*
X015735Y003267D01*
X015715Y003302D01*
X015705Y003340D01*
X015705Y003565D01*
X016100Y003565D01*
X016100Y003665D01*
X015705Y003665D01*
X015705Y003891D01*
X015715Y003929D01*
X015735Y003963D01*
X015735Y003964D01*
X015725Y003975D01*
X015725Y004594D01*
X015801Y004671D01*
X015940Y004671D01*
X015940Y005196D01*
X015822Y005314D01*
X015822Y005586D01*
X016014Y005778D01*
X016286Y005778D01*
X016478Y005586D01*
X016478Y005314D01*
X016360Y005196D01*
X016360Y004671D01*
X016499Y004671D01*
X016575Y004594D01*
X016575Y004495D01*
X016725Y004495D01*
X016725Y004594D01*
X016801Y004671D01*
X017499Y004671D01*
X017575Y004594D01*
X017575Y003975D01*
X017550Y003950D01*
X017575Y003925D01*
X017575Y003306D01*
X017499Y003229D01*
X017360Y003229D01*
X017360Y002128D01*
X017394Y002115D01*
X017515Y001994D01*
X017580Y001836D01*
X017580Y001064D01*
X017546Y000982D01*
X017692Y001129D01*
X017692Y012771D01*
X017464Y013000D01*
X000836Y013000D01*
X000600Y012764D01*
X000600Y001136D01*
X000600Y001140D02*
X001700Y001140D01*
X001700Y001238D02*
X000600Y001238D01*
X000600Y001337D02*
X001700Y001337D01*
X001700Y001534D02*
X000600Y001534D01*
X000600Y001632D02*
X001700Y001632D01*
X001700Y001731D02*
X000600Y001731D01*
X000600Y001829D02*
X001707Y001829D01*
X001735Y001928D02*
X000600Y001928D01*
X000600Y002026D02*
X001794Y002026D01*
X001900Y002125D02*
X000600Y002125D01*
X000600Y002223D02*
X002940Y002223D01*
X002940Y002322D02*
X000600Y002322D01*
X000600Y002420D02*
X002940Y002420D01*
X002940Y002519D02*
X001635Y002519D01*
X001365Y002519D02*
X001265Y002519D01*
X001265Y002617D02*
X001365Y002617D01*
X001365Y002716D02*
X001265Y002716D01*
X001265Y002814D02*
X001365Y002814D01*
X001265Y002913D02*
X000600Y002913D01*
X000600Y003011D02*
X000909Y003011D01*
X000909Y003110D02*
X000600Y003110D01*
X000600Y003208D02*
X000909Y003208D01*
X000922Y003307D02*
X000600Y003307D01*
X000600Y003405D02*
X005690Y003405D01*
X005690Y003504D02*
X000600Y003504D01*
X000600Y003602D02*
X002784Y003602D01*
X002784Y003593D02*
X002860Y003517D01*
X003440Y003517D01*
X003516Y003593D01*
X003516Y004016D01*
X003440Y004092D01*
X003360Y004092D01*
X003360Y004808D01*
X003440Y004808D01*
X003516Y004884D01*
X003516Y005307D01*
X003440Y005383D01*
X002860Y005383D01*
X002784Y005307D01*
X002784Y004884D01*
X002860Y004808D01*
X002940Y004808D01*
X002940Y004660D01*
X002371Y004660D01*
X002371Y004799D01*
X002294Y004875D01*
X001675Y004875D01*
X001664Y004865D01*
X001663Y004865D01*
X001629Y004885D01*
X001591Y004895D01*
X001365Y004895D01*
X001365Y004500D01*
X001265Y004500D01*
X001265Y004400D01*
X000909Y004400D01*
X000909Y004135D01*
X000920Y004097D01*
X000939Y004063D01*
X000967Y004035D01*
X001002Y004015D01*
X001040Y004005D01*
X001265Y004005D01*
X001265Y004400D01*
X001365Y004400D01*
X001365Y004005D01*
X001591Y004005D01*
X001629Y004015D01*
X001663Y004035D01*
X001664Y004035D01*
X001675Y004025D01*
X002294Y004025D01*
X002371Y004101D01*
X002371Y004240D01*
X002940Y004240D01*
X002940Y004092D01*
X002860Y004092D01*
X002784Y004016D01*
X002784Y003593D01*
X002784Y003701D02*
X000600Y003701D01*
X000600Y003799D02*
X002784Y003799D01*
X002784Y003898D02*
X000600Y003898D01*
X000600Y003996D02*
X002784Y003996D01*
X002940Y004095D02*
X002364Y004095D01*
X002371Y004193D02*
X002940Y004193D01*
X003360Y004193D02*
X005449Y004193D01*
X005449Y004095D02*
X003360Y004095D01*
X003516Y003996D02*
X005449Y003996D01*
X005449Y003898D02*
X003516Y003898D01*
X003516Y003799D02*
X005449Y003799D01*
X005449Y003701D02*
X003516Y003701D01*
X003516Y003602D02*
X005690Y003602D01*
X005747Y003307D02*
X003516Y003307D01*
X003516Y003208D02*
X005845Y003208D01*
X005944Y003110D02*
X003516Y003110D01*
X003516Y003011D02*
X007225Y003011D01*
X007225Y002913D02*
X003516Y002913D01*
X003446Y002814D02*
X007225Y002814D01*
X007225Y002716D02*
X003360Y002716D01*
X003360Y002617D02*
X007225Y002617D01*
X007225Y002519D02*
X003360Y002519D01*
X003360Y002420D02*
X007225Y002420D01*
X007225Y002322D02*
X003360Y002322D01*
X003360Y002223D02*
X007440Y002223D01*
X007440Y002125D02*
X004400Y002125D01*
X004506Y002026D02*
X007440Y002026D01*
X007440Y001928D02*
X004565Y001928D01*
X004593Y001829D02*
X007474Y001829D01*
X007573Y001731D02*
X004600Y001731D01*
X004600Y001632D02*
X007671Y001632D01*
X007770Y001534D02*
X004600Y001534D01*
X004600Y001337D02*
X007967Y001337D01*
X007868Y001435D02*
X004200Y001435D01*
X004200Y001534D02*
X004100Y001534D01*
X004100Y001632D02*
X004200Y001632D01*
X004200Y001731D02*
X004100Y001731D01*
X004100Y001829D02*
X004200Y001829D01*
X004200Y001928D02*
X004100Y001928D01*
X004100Y002026D02*
X004200Y002026D01*
X004200Y002125D02*
X004100Y002125D01*
X003900Y002125D02*
X003370Y002125D01*
X003482Y002026D02*
X003794Y002026D01*
X003735Y001928D02*
X003542Y001928D01*
X003580Y001829D02*
X003707Y001829D01*
X003700Y001731D02*
X003580Y001731D01*
X003580Y001632D02*
X003700Y001632D01*
X003700Y001534D02*
X003580Y001534D01*
X003580Y001435D02*
X004100Y001435D01*
X003700Y001337D02*
X003580Y001337D01*
X003580Y001238D02*
X003700Y001238D01*
X003700Y001140D02*
X003580Y001140D01*
X003570Y001041D02*
X003712Y001041D01*
X003751Y000943D02*
X003529Y000943D01*
X002771Y000943D02*
X002549Y000943D01*
X002588Y001041D02*
X002730Y001041D01*
X002720Y001140D02*
X002600Y001140D01*
X002600Y001238D02*
X002720Y001238D01*
X002720Y001337D02*
X002600Y001337D01*
X002720Y001435D02*
X002200Y001435D01*
X002200Y001534D02*
X002100Y001534D01*
X002100Y001632D02*
X002200Y001632D01*
X002200Y001731D02*
X002100Y001731D01*
X002100Y001829D02*
X002200Y001829D01*
X002200Y001928D02*
X002100Y001928D01*
X002100Y002026D02*
X002200Y002026D01*
X002200Y002125D02*
X002100Y002125D01*
X002400Y002125D02*
X002930Y002125D01*
X002818Y002026D02*
X002506Y002026D01*
X002565Y001928D02*
X002758Y001928D01*
X002720Y001829D02*
X002593Y001829D01*
X002600Y001731D02*
X002720Y001731D01*
X002720Y001632D02*
X002600Y001632D01*
X002600Y001534D02*
X002720Y001534D01*
X002100Y001435D02*
X000600Y001435D01*
X000695Y001041D02*
X001712Y001041D01*
X001751Y000943D02*
X000794Y000943D01*
X000600Y002519D02*
X000995Y002519D01*
X000914Y002617D02*
X000600Y002617D01*
X000600Y002716D02*
X000909Y002716D01*
X000909Y002814D02*
X000600Y002814D01*
X001265Y003011D02*
X001365Y003011D01*
X001365Y003110D02*
X001265Y003110D01*
X001265Y003208D02*
X001365Y003208D01*
X001365Y003307D02*
X001265Y003307D01*
X001265Y004095D02*
X001365Y004095D01*
X001365Y004193D02*
X001265Y004193D01*
X001265Y004292D02*
X001365Y004292D01*
X001365Y004390D02*
X001265Y004390D01*
X001265Y004489D02*
X000600Y004489D01*
X000600Y004587D02*
X000909Y004587D01*
X000909Y004500D02*
X001265Y004500D01*
X001265Y004895D01*
X001040Y004895D01*
X001002Y004885D01*
X000967Y004865D01*
X000939Y004837D01*
X000920Y004803D01*
X000909Y004765D01*
X000909Y004500D01*
X000909Y004390D02*
X000600Y004390D01*
X000600Y004292D02*
X000909Y004292D01*
X000909Y004193D02*
X000600Y004193D01*
X000600Y004095D02*
X000921Y004095D01*
X001265Y004587D02*
X001365Y004587D01*
X001365Y004686D02*
X001265Y004686D01*
X001265Y004784D02*
X001365Y004784D01*
X001365Y004883D02*
X001265Y004883D01*
X000997Y004883D02*
X000600Y004883D01*
X000600Y004981D02*
X002784Y004981D01*
X002786Y004883D02*
X001634Y004883D01*
X000915Y004784D02*
X000600Y004784D01*
X000600Y004686D02*
X000909Y004686D01*
X000600Y005080D02*
X002784Y005080D01*
X002784Y005178D02*
X000600Y005178D01*
X000600Y005277D02*
X002784Y005277D01*
X002852Y005375D02*
X000600Y005375D01*
X000600Y005474D02*
X003830Y005474D01*
X003928Y005375D02*
X003448Y005375D01*
X003516Y005277D02*
X003940Y005277D01*
X003940Y005204D02*
X003822Y005086D01*
X003822Y004814D01*
X004014Y004622D01*
X004286Y004622D01*
X004478Y004814D01*
X004478Y005086D01*
X004360Y005204D01*
X004360Y005537D01*
X004237Y005660D01*
X003883Y006014D01*
X003516Y006014D01*
X003516Y006016D01*
X003440Y006092D01*
X002860Y006092D01*
X002784Y006016D01*
X002784Y006014D01*
X002371Y006014D01*
X002371Y006299D01*
X002294Y006375D01*
X001675Y006375D01*
X001664Y006365D01*
X001663Y006365D01*
X001629Y006385D01*
X001591Y006395D01*
X001365Y006395D01*
X001365Y006000D01*
X001265Y006000D01*
X001265Y005900D01*
X000909Y005900D01*
X000909Y005635D01*
X000920Y005597D01*
X000939Y005563D01*
X000967Y005535D01*
X001002Y005515D01*
X001040Y005505D01*
X001265Y005505D01*
X001265Y005900D01*
X001365Y005900D01*
X001365Y005505D01*
X001591Y005505D01*
X001629Y005515D01*
X001663Y005535D01*
X001664Y005535D01*
X001675Y005525D01*
X002294Y005525D01*
X002364Y005594D01*
X002784Y005594D01*
X002784Y005593D01*
X002860Y005517D01*
X003440Y005517D01*
X003516Y005593D01*
X003516Y005594D01*
X003709Y005594D01*
X003940Y005363D01*
X003940Y005204D01*
X003914Y005178D02*
X003516Y005178D01*
X003516Y005080D02*
X003822Y005080D01*
X003822Y004981D02*
X003516Y004981D01*
X003514Y004883D02*
X003822Y004883D01*
X003852Y004784D02*
X003360Y004784D01*
X003360Y004686D02*
X003950Y004686D01*
X004350Y004686D02*
X005823Y004686D01*
X005823Y004784D02*
X004448Y004784D01*
X004478Y004883D02*
X005823Y004883D01*
X005823Y004981D02*
X004478Y004981D01*
X004478Y005080D02*
X005823Y005080D01*
X005823Y005178D02*
X004386Y005178D01*
X004360Y005277D02*
X005887Y005277D01*
X005940Y005375D02*
X004360Y005375D01*
X004360Y005474D02*
X005940Y005474D01*
X005940Y005572D02*
X004325Y005572D01*
X004226Y005671D02*
X005940Y005671D01*
X005940Y005769D02*
X004128Y005769D01*
X004029Y005868D02*
X005940Y005868D01*
X005940Y005966D02*
X003931Y005966D01*
X003731Y005572D02*
X003495Y005572D01*
X003467Y006065D02*
X005968Y006065D01*
X006066Y006163D02*
X002371Y006163D01*
X002371Y006065D02*
X002833Y006065D01*
X002371Y006262D02*
X006072Y006262D01*
X006096Y006360D02*
X002310Y006360D01*
X001365Y006360D02*
X001265Y006360D01*
X001265Y006395D02*
X001040Y006395D01*
X001002Y006385D01*
X000967Y006365D01*
X000939Y006337D01*
X000920Y006303D01*
X000909Y006265D01*
X000909Y006000D01*
X001265Y006000D01*
X001265Y006395D01*
X001265Y006262D02*
X001365Y006262D01*
X001365Y006163D02*
X001265Y006163D01*
X001265Y006065D02*
X001365Y006065D01*
X001265Y005966D02*
X000600Y005966D01*
X000600Y005868D02*
X000909Y005868D01*
X000909Y005769D02*
X000600Y005769D01*
X000600Y005671D02*
X000909Y005671D01*
X000934Y005572D02*
X000600Y005572D01*
X001265Y005572D02*
X001365Y005572D01*
X001365Y005671D02*
X001265Y005671D01*
X001265Y005769D02*
X001365Y005769D01*
X001365Y005868D02*
X001265Y005868D01*
X000909Y006065D02*
X000600Y006065D01*
X000600Y006163D02*
X000909Y006163D01*
X000909Y006262D02*
X000600Y006262D01*
X000600Y006360D02*
X000962Y006360D01*
X000600Y006459D02*
X006194Y006459D01*
X006606Y006459D02*
X007205Y006459D01*
X007205Y006557D02*
X000600Y006557D01*
X000600Y006656D02*
X007600Y006656D01*
X007600Y006665D02*
X007600Y006565D01*
X007700Y006565D01*
X007700Y006209D01*
X007965Y006209D01*
X008003Y006220D01*
X008037Y006239D01*
X008065Y006267D01*
X008085Y006302D01*
X008095Y006340D01*
X008095Y006565D01*
X007700Y006565D01*
X007700Y006665D01*
X008095Y006665D01*
X008095Y006891D01*
X008085Y006929D01*
X008065Y006963D01*
X008065Y006964D01*
X008075Y006975D01*
X008075Y007594D01*
X007999Y007671D01*
X007980Y007671D01*
X007980Y007868D01*
X008245Y007868D01*
X008321Y007792D01*
X008979Y007792D01*
X009056Y007869D01*
X009056Y008527D01*
X017692Y008527D01*
X017692Y008429D02*
X009056Y008429D01*
X009056Y008527D02*
X008979Y008604D01*
X008321Y008604D01*
X008245Y008528D01*
X003539Y008528D01*
X002837Y009230D01*
X002832Y009232D01*
X002786Y009278D01*
X002720Y009278D01*
X002716Y009280D01*
X002584Y009280D01*
X002580Y009278D01*
X002514Y009278D01*
X002468Y009232D01*
X002463Y009230D01*
X002370Y009137D01*
X002368Y009132D01*
X002322Y009086D01*
X002322Y009020D01*
X002320Y009016D01*
X002320Y008884D01*
X002322Y008880D01*
X002322Y008814D01*
X002368Y008768D01*
X002370Y008763D01*
X003215Y007918D01*
X003336Y007868D01*
X007320Y007868D01*
X007320Y007671D01*
X007301Y007671D01*
X007225Y007594D01*
X007225Y006975D01*
X007235Y006964D01*
X007235Y006963D01*
X007215Y006929D01*
X007205Y006891D01*
X007205Y006665D01*
X007600Y006665D01*
X007600Y006565D02*
X007205Y006565D01*
X007205Y006340D01*
X007215Y006302D01*
X007235Y006267D01*
X007263Y006239D01*
X007297Y006220D01*
X007335Y006209D01*
X007600Y006209D01*
X007600Y006565D01*
X007600Y006557D02*
X007700Y006557D01*
X007700Y006459D02*
X007600Y006459D01*
X007600Y006360D02*
X007700Y006360D01*
X007700Y006262D02*
X007600Y006262D01*
X007241Y006262D02*
X006728Y006262D01*
X006728Y006163D02*
X008320Y006163D01*
X008320Y006065D02*
X006728Y006065D01*
X006630Y005966D02*
X008320Y005966D01*
X008320Y005868D02*
X006364Y005868D01*
X006360Y005769D02*
X008320Y005769D01*
X008320Y005671D02*
X007999Y005671D01*
X008075Y005572D02*
X008320Y005572D01*
X008320Y004981D02*
X008075Y004981D01*
X008075Y004883D02*
X008321Y004883D01*
X008362Y004784D02*
X008075Y004784D01*
X008075Y004686D02*
X008448Y004686D01*
X008546Y004587D02*
X008075Y004587D01*
X008075Y004489D02*
X008645Y004489D01*
X008743Y004390D02*
X008075Y004390D01*
X008061Y004292D02*
X008842Y004292D01*
X008940Y004193D02*
X006871Y004193D01*
X006871Y004095D02*
X009039Y004095D01*
X009137Y003996D02*
X006572Y003996D01*
X006572Y003969D02*
X006572Y004065D01*
X006476Y004065D01*
X006476Y003969D01*
X006177Y003969D01*
X006177Y003722D01*
X006187Y003683D01*
X006207Y003649D01*
X006235Y003621D01*
X006269Y003602D01*
X006268Y003602D02*
X006110Y003602D01*
X006110Y003701D02*
X006183Y003701D01*
X006177Y003799D02*
X006110Y003799D01*
X006110Y003898D02*
X006177Y003898D01*
X006103Y003996D02*
X006476Y003996D01*
X006476Y003968D02*
X006572Y003968D01*
X006572Y003591D01*
X006741Y003591D01*
X006779Y003602D01*
X006813Y003621D01*
X006841Y003649D01*
X006861Y003683D01*
X006871Y003722D01*
X006871Y003969D01*
X006572Y003969D01*
X006572Y003898D02*
X006476Y003898D01*
X006476Y003968D02*
X006476Y003591D01*
X006307Y003591D01*
X006269Y003602D01*
X006143Y003504D02*
X007225Y003504D01*
X007232Y003602D02*
X006780Y003602D01*
X006865Y003701D02*
X009433Y003701D01*
X009334Y003799D02*
X006871Y003799D01*
X006871Y003898D02*
X009236Y003898D01*
X009531Y003602D02*
X008068Y003602D01*
X008075Y003504D02*
X009630Y003504D01*
X009728Y003405D02*
X008075Y003405D01*
X008075Y003307D02*
X009827Y003307D01*
X009925Y003208D02*
X008075Y003208D01*
X008075Y003110D02*
X010024Y003110D01*
X010122Y003011D02*
X008075Y003011D01*
X008075Y002913D02*
X010221Y002913D01*
X010319Y002814D02*
X008075Y002814D01*
X008075Y002716D02*
X010418Y002716D01*
X010516Y002617D02*
X008075Y002617D01*
X008075Y002519D02*
X010615Y002519D01*
X010713Y002420D02*
X008075Y002420D01*
X008075Y002322D02*
X010812Y002322D01*
X010820Y002223D02*
X007860Y002223D01*
X007860Y002125D02*
X009930Y002125D01*
X009818Y002026D02*
X007871Y002026D01*
X007969Y001928D02*
X009758Y001928D01*
X009720Y001829D02*
X008068Y001829D01*
X008166Y001731D02*
X009720Y001731D01*
X009720Y001238D02*
X004600Y001238D01*
X004600Y001140D02*
X009720Y001140D01*
X009730Y001041D02*
X004588Y001041D01*
X004549Y000943D02*
X009771Y000943D01*
X010529Y000943D02*
X010771Y000943D01*
X010730Y001041D02*
X010570Y001041D01*
X010580Y001140D02*
X010720Y001140D01*
X010720Y001238D02*
X010580Y001238D01*
X010580Y001337D02*
X010720Y001337D01*
X010720Y001435D02*
X010580Y001435D01*
X010580Y001534D02*
X010720Y001534D01*
X010720Y001632D02*
X010580Y001632D01*
X010580Y001731D02*
X010720Y001731D01*
X010720Y001829D02*
X010580Y001829D01*
X010542Y001928D02*
X010758Y001928D01*
X010818Y002026D02*
X010482Y002026D01*
X010370Y002125D02*
X010820Y002125D01*
X011480Y002125D02*
X011900Y002125D01*
X011914Y002135D02*
X011857Y002093D01*
X011807Y002043D01*
X011765Y001986D01*
X011733Y001923D01*
X011711Y001855D01*
X011700Y001785D01*
X011700Y001500D01*
X012100Y001500D01*
X012100Y002198D01*
X012045Y002189D01*
X011977Y002167D01*
X011914Y002135D01*
X011794Y002026D02*
X011482Y002026D01*
X011480Y002028D02*
X011480Y002516D01*
X011430Y002637D01*
X008980Y005087D01*
X008980Y006285D01*
X009745Y006285D01*
X009801Y006229D01*
X010499Y006229D01*
X010575Y006306D01*
X010575Y006925D01*
X010550Y006950D01*
X010575Y006975D01*
X010575Y007413D01*
X010835Y007673D01*
X011823Y007673D01*
X011823Y007554D01*
X011899Y007477D01*
X012401Y007477D01*
X012477Y007554D01*
X012477Y007673D01*
X013130Y007673D01*
X014440Y006363D01*
X014440Y003863D01*
X015940Y002363D01*
X015940Y002128D01*
X015906Y002115D01*
X015785Y001994D01*
X015720Y001836D01*
X015720Y001064D01*
X015785Y000906D01*
X015792Y000900D01*
X015508Y000900D01*
X015515Y000906D01*
X015580Y001064D01*
X015580Y001836D01*
X015515Y001994D01*
X015394Y002115D01*
X015236Y002180D01*
X015064Y002180D01*
X014906Y002115D01*
X014785Y001994D01*
X014720Y001836D01*
X014720Y001064D01*
X014785Y000906D01*
X014792Y000900D01*
X014508Y000900D01*
X014515Y000906D01*
X014580Y001064D01*
X014580Y001836D01*
X014515Y001994D01*
X014394Y002115D01*
X014236Y002180D01*
X014064Y002180D01*
X013906Y002115D01*
X013785Y001994D01*
X013720Y001836D01*
X013720Y001064D01*
X013785Y000906D01*
X013792Y000900D01*
X013508Y000900D01*
X013515Y000906D01*
X013580Y001064D01*
X013580Y001836D01*
X013515Y001994D01*
X013394Y002115D01*
X013236Y002180D01*
X013064Y002180D01*
X012906Y002115D01*
X012785Y001994D01*
X012720Y001836D01*
X012720Y001064D01*
X012785Y000906D01*
X012792Y000900D01*
X012525Y000900D01*
X012535Y000914D01*
X012567Y000977D01*
X012589Y001045D01*
X012600Y001115D01*
X012600Y001400D01*
X012200Y001400D01*
X012200Y001500D01*
X012100Y001500D01*
X012100Y001400D01*
X011700Y001400D01*
X011700Y001115D01*
X011711Y001045D01*
X011733Y000977D01*
X011765Y000914D01*
X011775Y000900D01*
X011508Y000900D01*
X011515Y000906D01*
X011580Y001064D01*
X011580Y001836D01*
X011515Y001994D01*
X011480Y002028D01*
X011542Y001928D02*
X011735Y001928D01*
X011707Y001829D02*
X011580Y001829D01*
X011580Y001731D02*
X011700Y001731D01*
X011700Y001632D02*
X011580Y001632D01*
X011580Y001534D02*
X011700Y001534D01*
X011580Y001435D02*
X012100Y001435D01*
X012100Y001534D02*
X012200Y001534D01*
X012200Y001500D02*
X012200Y002198D01*
X012255Y002189D01*
X012323Y002167D01*
X012386Y002135D01*
X012443Y002093D01*
X012493Y002043D01*
X012535Y001986D01*
X012567Y001923D01*
X012589Y001855D01*
X012600Y001785D01*
X012600Y001500D01*
X012200Y001500D01*
X012200Y001435D02*
X012720Y001435D01*
X012720Y001337D02*
X012600Y001337D01*
X012600Y001238D02*
X012720Y001238D01*
X012720Y001140D02*
X012600Y001140D01*
X012588Y001041D02*
X012730Y001041D01*
X012771Y000943D02*
X012549Y000943D01*
X011751Y000943D02*
X011529Y000943D01*
X011570Y001041D02*
X011712Y001041D01*
X011700Y001140D02*
X011580Y001140D01*
X011580Y001238D02*
X011700Y001238D01*
X011700Y001337D02*
X011580Y001337D01*
X012100Y001632D02*
X012200Y001632D01*
X012200Y001731D02*
X012100Y001731D01*
X012100Y001829D02*
X012200Y001829D01*
X012200Y001928D02*
X012100Y001928D01*
X012100Y002026D02*
X012200Y002026D01*
X012200Y002125D02*
X012100Y002125D01*
X012400Y002125D02*
X012930Y002125D01*
X012818Y002026D02*
X012506Y002026D01*
X012565Y001928D02*
X012758Y001928D01*
X012720Y001829D02*
X012593Y001829D01*
X012600Y001731D02*
X012720Y001731D01*
X012720Y001632D02*
X012600Y001632D01*
X012600Y001534D02*
X012720Y001534D01*
X013370Y002125D02*
X013930Y002125D01*
X013818Y002026D02*
X013482Y002026D01*
X013542Y001928D02*
X013758Y001928D01*
X013720Y001829D02*
X013580Y001829D01*
X013580Y001731D02*
X013720Y001731D01*
X013720Y001632D02*
X013580Y001632D01*
X013580Y001534D02*
X013720Y001534D01*
X013720Y001435D02*
X013580Y001435D01*
X013580Y001337D02*
X013720Y001337D01*
X013720Y001238D02*
X013580Y001238D01*
X013580Y001140D02*
X013720Y001140D01*
X013730Y001041D02*
X013570Y001041D01*
X013529Y000943D02*
X013771Y000943D01*
X014529Y000943D02*
X014771Y000943D01*
X014730Y001041D02*
X014570Y001041D01*
X014580Y001140D02*
X014720Y001140D01*
X014720Y001238D02*
X014580Y001238D01*
X014580Y001337D02*
X014720Y001337D01*
X014720Y001435D02*
X014580Y001435D01*
X014580Y001534D02*
X014720Y001534D01*
X014720Y001632D02*
X014580Y001632D01*
X014580Y001731D02*
X014720Y001731D01*
X014720Y001829D02*
X014580Y001829D01*
X014542Y001928D02*
X014758Y001928D01*
X014818Y002026D02*
X014482Y002026D01*
X014370Y002125D02*
X014930Y002125D01*
X015370Y002125D02*
X015930Y002125D01*
X015940Y002223D02*
X011480Y002223D01*
X011480Y002322D02*
X015940Y002322D01*
X015883Y002420D02*
X011480Y002420D01*
X011479Y002519D02*
X015785Y002519D01*
X015686Y002617D02*
X011438Y002617D01*
X011351Y002716D02*
X015588Y002716D01*
X015489Y002814D02*
X011253Y002814D01*
X011154Y002913D02*
X015391Y002913D01*
X015292Y003011D02*
X011056Y003011D01*
X010957Y003110D02*
X015194Y003110D01*
X015095Y003208D02*
X010859Y003208D01*
X010760Y003307D02*
X014997Y003307D01*
X014898Y003405D02*
X010662Y003405D01*
X010563Y003504D02*
X014800Y003504D01*
X014701Y003602D02*
X010465Y003602D01*
X010366Y003701D02*
X014603Y003701D01*
X014504Y003799D02*
X010268Y003799D01*
X010169Y003898D02*
X014440Y003898D01*
X014440Y003996D02*
X010071Y003996D01*
X009972Y004095D02*
X014440Y004095D01*
X014440Y004193D02*
X009874Y004193D01*
X009775Y004292D02*
X014440Y004292D01*
X014440Y004390D02*
X009677Y004390D01*
X009578Y004489D02*
X014440Y004489D01*
X014440Y004587D02*
X009480Y004587D01*
X009381Y004686D02*
X011450Y004686D01*
X011514Y004622D02*
X011322Y004814D01*
X011322Y005086D01*
X011514Y005278D01*
X011786Y005278D01*
X011904Y005160D01*
X012063Y005160D01*
X012275Y005372D01*
X012275Y005525D01*
X012175Y005525D01*
X012150Y005550D01*
X012125Y005525D01*
X011506Y005525D01*
X011429Y005601D01*
X011429Y006299D01*
X011506Y006375D01*
X011566Y006375D01*
X011566Y006611D01*
X011525Y006611D01*
X011449Y006687D01*
X011449Y006785D01*
X011286Y006622D01*
X011014Y006622D01*
X010822Y006814D01*
X010822Y007086D01*
X011014Y007278D01*
X011286Y007278D01*
X011337Y007227D01*
X011449Y007227D01*
X011449Y007346D01*
X011525Y007423D01*
X012027Y007423D01*
X012103Y007346D01*
X012103Y006687D01*
X012027Y006611D01*
X011986Y006611D01*
X011986Y006375D01*
X012125Y006375D01*
X012150Y006350D01*
X012175Y006375D01*
X012314Y006375D01*
X012314Y006611D01*
X012273Y006611D01*
X012197Y006687D01*
X012197Y007346D01*
X012273Y007423D01*
X012775Y007423D01*
X012851Y007346D01*
X012851Y006687D01*
X012775Y006611D01*
X012734Y006611D01*
X012734Y006375D01*
X012794Y006375D01*
X012871Y006299D01*
X012871Y005601D01*
X012794Y005525D01*
X012695Y005525D01*
X012695Y005198D01*
X012360Y004863D01*
X012237Y004740D01*
X011904Y004740D01*
X011786Y004622D01*
X011514Y004622D01*
X011352Y004784D02*
X009283Y004784D01*
X009184Y004883D02*
X011322Y004883D01*
X011322Y004981D02*
X009086Y004981D01*
X008987Y005080D02*
X011322Y005080D01*
X011414Y005178D02*
X008980Y005178D01*
X008980Y005277D02*
X011512Y005277D01*
X011788Y005277D02*
X012180Y005277D01*
X012275Y005375D02*
X008980Y005375D01*
X008980Y005474D02*
X012275Y005474D01*
X012081Y005178D02*
X011886Y005178D01*
X011458Y005572D02*
X008980Y005572D01*
X008980Y005671D02*
X011429Y005671D01*
X011429Y005769D02*
X008980Y005769D01*
X008980Y005868D02*
X011429Y005868D01*
X011429Y005966D02*
X008980Y005966D01*
X008980Y006065D02*
X011429Y006065D01*
X011429Y006163D02*
X008980Y006163D01*
X008980Y006262D02*
X009769Y006262D01*
X010531Y006262D02*
X011429Y006262D01*
X011490Y006360D02*
X010575Y006360D01*
X010575Y006459D02*
X011566Y006459D01*
X011566Y006557D02*
X010575Y006557D01*
X010575Y006656D02*
X010980Y006656D01*
X010882Y006754D02*
X010575Y006754D01*
X010575Y006853D02*
X010822Y006853D01*
X010822Y006951D02*
X010551Y006951D01*
X010575Y007050D02*
X010822Y007050D01*
X010884Y007148D02*
X010575Y007148D01*
X010575Y007247D02*
X010983Y007247D01*
X011317Y007247D02*
X011449Y007247D01*
X011449Y007345D02*
X010575Y007345D01*
X010606Y007444D02*
X013359Y007444D01*
X013261Y007542D02*
X012465Y007542D01*
X012477Y007641D02*
X013162Y007641D01*
X013458Y007345D02*
X012851Y007345D01*
X012851Y007247D02*
X013556Y007247D01*
X013655Y007148D02*
X012851Y007148D01*
X012851Y007050D02*
X013753Y007050D01*
X013852Y006951D02*
X012851Y006951D01*
X012851Y006853D02*
X013950Y006853D01*
X014049Y006754D02*
X012851Y006754D01*
X012819Y006656D02*
X014147Y006656D01*
X014246Y006557D02*
X012734Y006557D01*
X012734Y006459D02*
X014344Y006459D01*
X014440Y006360D02*
X012810Y006360D01*
X012871Y006262D02*
X014440Y006262D01*
X014440Y006163D02*
X012871Y006163D01*
X012871Y006065D02*
X014440Y006065D01*
X014440Y005966D02*
X012871Y005966D01*
X012871Y005868D02*
X014440Y005868D01*
X014440Y005769D02*
X012871Y005769D01*
X012871Y005671D02*
X014440Y005671D01*
X014440Y005572D02*
X012842Y005572D01*
X012695Y005474D02*
X014440Y005474D01*
X014440Y005375D02*
X012695Y005375D01*
X012695Y005277D02*
X014440Y005277D01*
X014440Y005178D02*
X012675Y005178D01*
X012576Y005080D02*
X014440Y005080D01*
X014440Y004981D02*
X012478Y004981D01*
X012379Y004883D02*
X014440Y004883D01*
X014440Y004784D02*
X012281Y004784D01*
X011850Y004686D02*
X014440Y004686D01*
X014860Y004686D02*
X015940Y004686D01*
X015940Y004784D02*
X014860Y004784D01*
X014860Y004883D02*
X015940Y004883D01*
X015940Y004981D02*
X014860Y004981D01*
X014860Y005080D02*
X015940Y005080D01*
X015940Y005178D02*
X014860Y005178D01*
X014860Y005277D02*
X015859Y005277D01*
X015822Y005375D02*
X014860Y005375D01*
X014860Y005474D02*
X015822Y005474D01*
X015822Y005572D02*
X014860Y005572D01*
X014860Y005671D02*
X015906Y005671D01*
X016005Y005769D02*
X014860Y005769D01*
X014860Y005868D02*
X017692Y005868D01*
X017692Y005966D02*
X014860Y005966D01*
X014860Y006065D02*
X017692Y006065D01*
X017692Y006163D02*
X014860Y006163D01*
X014860Y006262D02*
X017692Y006262D01*
X017692Y006360D02*
X014860Y006360D01*
X014860Y006459D02*
X017692Y006459D01*
X017692Y006557D02*
X014840Y006557D01*
X014741Y006656D02*
X017692Y006656D01*
X017692Y006754D02*
X014643Y006754D01*
X014544Y006853D02*
X017692Y006853D01*
X017692Y006951D02*
X014446Y006951D01*
X014347Y007050D02*
X017692Y007050D01*
X017692Y007148D02*
X014249Y007148D01*
X014150Y007247D02*
X017692Y007247D01*
X017692Y007345D02*
X014052Y007345D01*
X013953Y007444D02*
X017692Y007444D01*
X017692Y007542D02*
X013855Y007542D01*
X013756Y007641D02*
X017692Y007641D01*
X017692Y007739D02*
X013658Y007739D01*
X013559Y007838D02*
X017692Y007838D01*
X017692Y007936D02*
X013461Y007936D01*
X013362Y008035D02*
X017692Y008035D01*
X017692Y008133D02*
X012477Y008133D01*
X012458Y008232D02*
X017692Y008232D01*
X017692Y008330D02*
X009056Y008330D01*
X009056Y008232D02*
X011842Y008232D01*
X011823Y008133D02*
X009056Y008133D01*
X009056Y008035D02*
X010603Y008035D01*
X010504Y007936D02*
X009056Y007936D01*
X009025Y007838D02*
X010406Y007838D01*
X010307Y007739D02*
X007980Y007739D01*
X007980Y007838D02*
X008275Y007838D01*
X008029Y007641D02*
X009771Y007641D01*
X009725Y007542D02*
X008075Y007542D01*
X008075Y007444D02*
X009725Y007444D01*
X009725Y007345D02*
X008075Y007345D01*
X008075Y007247D02*
X009725Y007247D01*
X009725Y007148D02*
X008075Y007148D01*
X008075Y007050D02*
X008263Y007050D01*
X008244Y006951D02*
X008072Y006951D01*
X008095Y006853D02*
X008244Y006853D01*
X008244Y006754D02*
X008095Y006754D01*
X008244Y006656D02*
X007700Y006656D01*
X008095Y006557D02*
X008244Y006557D01*
X008244Y006459D02*
X008095Y006459D01*
X008095Y006360D02*
X008257Y006360D01*
X008320Y006262D02*
X008059Y006262D01*
X007205Y006360D02*
X006704Y006360D01*
X007205Y006754D02*
X000600Y006754D01*
X000600Y006853D02*
X007205Y006853D01*
X007228Y006951D02*
X000600Y006951D01*
X000600Y007050D02*
X007225Y007050D01*
X007225Y007148D02*
X000600Y007148D01*
X000600Y007247D02*
X007225Y007247D01*
X007225Y007345D02*
X000600Y007345D01*
X000600Y007444D02*
X007225Y007444D01*
X007225Y007542D02*
X000600Y007542D01*
X000600Y007641D02*
X007271Y007641D01*
X007320Y007739D02*
X000600Y007739D01*
X000600Y007838D02*
X007320Y007838D01*
X009037Y007050D02*
X009725Y007050D01*
X009749Y006951D02*
X009056Y006951D01*
X010704Y007542D02*
X011835Y007542D01*
X011823Y007641D02*
X010803Y007641D01*
X011418Y006754D02*
X011449Y006754D01*
X011481Y006656D02*
X011320Y006656D01*
X011986Y006557D02*
X012314Y006557D01*
X012314Y006459D02*
X011986Y006459D01*
X012140Y006360D02*
X012160Y006360D01*
X012229Y006656D02*
X012071Y006656D01*
X012103Y006754D02*
X012197Y006754D01*
X012197Y006853D02*
X012103Y006853D01*
X012103Y006951D02*
X012197Y006951D01*
X012197Y007050D02*
X012103Y007050D01*
X012103Y007148D02*
X012197Y007148D01*
X012197Y007247D02*
X012103Y007247D01*
X012103Y007345D02*
X012197Y007345D01*
X014860Y004587D02*
X015725Y004587D01*
X015725Y004489D02*
X014860Y004489D01*
X014860Y004390D02*
X015725Y004390D01*
X015725Y004292D02*
X014860Y004292D01*
X014860Y004193D02*
X015725Y004193D01*
X015725Y004095D02*
X014860Y004095D01*
X014901Y003996D02*
X015725Y003996D01*
X015706Y003898D02*
X014999Y003898D01*
X015098Y003799D02*
X015705Y003799D01*
X015705Y003701D02*
X015196Y003701D01*
X015295Y003602D02*
X016100Y003602D01*
X016100Y003504D02*
X016200Y003504D01*
X016200Y003602D02*
X016725Y003602D01*
X016725Y003504D02*
X016595Y003504D01*
X016595Y003405D02*
X016725Y003405D01*
X016725Y003307D02*
X016586Y003307D01*
X016940Y003208D02*
X015689Y003208D01*
X015714Y003307D02*
X015590Y003307D01*
X015492Y003405D02*
X015705Y003405D01*
X015705Y003504D02*
X015393Y003504D01*
X015787Y003110D02*
X016940Y003110D01*
X016940Y003011D02*
X015886Y003011D01*
X015984Y002913D02*
X016940Y002913D01*
X016940Y002814D02*
X016083Y002814D01*
X016181Y002716D02*
X016940Y002716D01*
X016940Y002617D02*
X016280Y002617D01*
X016360Y002519D02*
X016940Y002519D01*
X016940Y002420D02*
X016360Y002420D01*
X016360Y002322D02*
X016940Y002322D01*
X016940Y002223D02*
X016360Y002223D01*
X016370Y002125D02*
X016930Y002125D01*
X016818Y002026D02*
X016482Y002026D01*
X016542Y001928D02*
X016758Y001928D01*
X016720Y001829D02*
X016580Y001829D01*
X016580Y001731D02*
X016720Y001731D01*
X016720Y001632D02*
X016580Y001632D01*
X016580Y001534D02*
X016720Y001534D01*
X016720Y001435D02*
X016580Y001435D01*
X016580Y001337D02*
X016720Y001337D01*
X016720Y001238D02*
X016580Y001238D01*
X016580Y001140D02*
X016720Y001140D01*
X016730Y001041D02*
X016570Y001041D01*
X016529Y000943D02*
X016771Y000943D01*
X017570Y001041D02*
X017605Y001041D01*
X017580Y001140D02*
X017692Y001140D01*
X017692Y001238D02*
X017580Y001238D01*
X017580Y001337D02*
X017692Y001337D01*
X017692Y001435D02*
X017580Y001435D01*
X017580Y001534D02*
X017692Y001534D01*
X017692Y001632D02*
X017580Y001632D01*
X017580Y001731D02*
X017692Y001731D01*
X017692Y001829D02*
X017580Y001829D01*
X017542Y001928D02*
X017692Y001928D01*
X017692Y002026D02*
X017482Y002026D01*
X017370Y002125D02*
X017692Y002125D01*
X017692Y002223D02*
X017360Y002223D01*
X017360Y002322D02*
X017692Y002322D01*
X017692Y002420D02*
X017360Y002420D01*
X017360Y002519D02*
X017692Y002519D01*
X017692Y002617D02*
X017360Y002617D01*
X017360Y002716D02*
X017692Y002716D01*
X017692Y002814D02*
X017360Y002814D01*
X017360Y002913D02*
X017692Y002913D01*
X017692Y003011D02*
X017360Y003011D01*
X017360Y003110D02*
X017692Y003110D01*
X017692Y003208D02*
X017360Y003208D01*
X017575Y003307D02*
X017692Y003307D01*
X017692Y003405D02*
X017575Y003405D01*
X017575Y003504D02*
X017692Y003504D01*
X017692Y003602D02*
X017575Y003602D01*
X017575Y003701D02*
X017692Y003701D01*
X017692Y003799D02*
X017575Y003799D01*
X017575Y003898D02*
X017692Y003898D01*
X017692Y003996D02*
X017575Y003996D01*
X017575Y004095D02*
X017692Y004095D01*
X017692Y004193D02*
X017575Y004193D01*
X017575Y004292D02*
X017692Y004292D01*
X017692Y004390D02*
X017575Y004390D01*
X017575Y004489D02*
X017692Y004489D01*
X017692Y004587D02*
X017575Y004587D01*
X017692Y004686D02*
X016360Y004686D01*
X016360Y004784D02*
X017692Y004784D01*
X017692Y004883D02*
X016360Y004883D01*
X016360Y004981D02*
X017692Y004981D01*
X017692Y005080D02*
X016360Y005080D01*
X016360Y005178D02*
X017692Y005178D01*
X017692Y005277D02*
X016441Y005277D01*
X016478Y005375D02*
X017692Y005375D01*
X017692Y005474D02*
X016478Y005474D01*
X016478Y005572D02*
X017692Y005572D01*
X017692Y005671D02*
X016394Y005671D01*
X016295Y005769D02*
X017692Y005769D01*
X016725Y004587D02*
X016575Y004587D01*
X016575Y003996D02*
X016725Y003996D01*
X016725Y003898D02*
X016594Y003898D01*
X016595Y003799D02*
X016725Y003799D01*
X016725Y003701D02*
X016595Y003701D01*
X016200Y003405D02*
X016100Y003405D01*
X016100Y003307D02*
X016200Y003307D01*
X015818Y002026D02*
X015482Y002026D01*
X015542Y001928D02*
X015758Y001928D01*
X015720Y001829D02*
X015580Y001829D01*
X015580Y001731D02*
X015720Y001731D01*
X015720Y001632D02*
X015580Y001632D01*
X015580Y001534D02*
X015720Y001534D01*
X015720Y001435D02*
X015580Y001435D01*
X015580Y001337D02*
X015720Y001337D01*
X015720Y001238D02*
X015580Y001238D01*
X015580Y001140D02*
X015720Y001140D01*
X015730Y001041D02*
X015570Y001041D01*
X015529Y000943D02*
X015771Y000943D01*
X007239Y004292D02*
X006871Y004292D01*
X006871Y004312D02*
X006861Y004350D01*
X006841Y004385D01*
X006813Y004413D01*
X006779Y004432D01*
X006741Y004443D01*
X006572Y004443D01*
X006572Y004065D01*
X006871Y004065D01*
X006871Y004312D01*
X006836Y004390D02*
X007225Y004390D01*
X007225Y004489D02*
X006412Y004489D01*
X006476Y004443D02*
X006307Y004443D01*
X006269Y004432D01*
X006235Y004413D01*
X006207Y004385D01*
X006187Y004350D01*
X006177Y004312D01*
X006177Y004065D01*
X006476Y004065D01*
X006476Y004443D01*
X006476Y004390D02*
X006572Y004390D01*
X006572Y004292D02*
X006476Y004292D01*
X006476Y004193D02*
X006572Y004193D01*
X006572Y004095D02*
X006476Y004095D01*
X006177Y004095D02*
X006103Y004095D01*
X006103Y004193D02*
X006177Y004193D01*
X006177Y004292D02*
X006103Y004292D01*
X006059Y004390D02*
X006213Y004390D01*
X005888Y004489D02*
X003360Y004489D01*
X003360Y004587D02*
X005823Y004587D01*
X005493Y004390D02*
X003360Y004390D01*
X003360Y004292D02*
X005449Y004292D01*
X006477Y004587D02*
X006716Y004587D01*
X006916Y004981D02*
X007225Y004981D01*
X007225Y005080D02*
X006817Y005080D01*
X006477Y005178D02*
X007225Y005178D01*
X007225Y005277D02*
X006413Y005277D01*
X006360Y005375D02*
X007225Y005375D01*
X007225Y005474D02*
X006360Y005474D01*
X006360Y005572D02*
X007225Y005572D01*
X007301Y005671D02*
X006360Y005671D01*
X006476Y003799D02*
X006572Y003799D01*
X006572Y003701D02*
X006476Y003701D01*
X006476Y003602D02*
X006572Y003602D01*
X002940Y002716D02*
X002371Y002716D01*
X002371Y002617D02*
X002940Y002617D01*
X002784Y003208D02*
X002371Y003208D01*
X002363Y003307D02*
X002784Y003307D01*
X002940Y004686D02*
X002371Y004686D01*
X002371Y004784D02*
X002940Y004784D01*
X002805Y005572D02*
X002342Y005572D01*
X003197Y007936D02*
X000600Y007936D01*
X000600Y008035D02*
X003099Y008035D01*
X003000Y008133D02*
X000600Y008133D01*
X000600Y008232D02*
X002902Y008232D01*
X002803Y008330D02*
X000600Y008330D01*
X000600Y008429D02*
X002705Y008429D01*
X002606Y008527D02*
X000600Y008527D01*
X000600Y008626D02*
X002508Y008626D01*
X002409Y008724D02*
X000600Y008724D01*
X000600Y008823D02*
X002322Y008823D01*
X002320Y008921D02*
X000600Y008921D01*
X000600Y009020D02*
X002322Y009020D01*
X002354Y009118D02*
X000600Y009118D01*
X000600Y009217D02*
X002450Y009217D01*
X002850Y009217D02*
X017692Y009217D01*
X017692Y009315D02*
X000600Y009315D01*
X000600Y009414D02*
X017692Y009414D01*
X017692Y009512D02*
X000600Y009512D01*
X000600Y009611D02*
X017692Y009611D01*
X017692Y009709D02*
X000600Y009709D01*
X000600Y009808D02*
X017692Y009808D01*
X017692Y009906D02*
X000600Y009906D01*
X000600Y010005D02*
X017692Y010005D01*
X017692Y010103D02*
X000600Y010103D01*
X000600Y010202D02*
X017692Y010202D01*
X017692Y010300D02*
X000600Y010300D01*
X000600Y010399D02*
X017692Y010399D01*
X017692Y010497D02*
X000600Y010497D01*
X000600Y010596D02*
X017692Y010596D01*
X017692Y010694D02*
X000600Y010694D01*
X000600Y010793D02*
X017692Y010793D01*
X017692Y010891D02*
X000600Y010891D01*
X000600Y010990D02*
X017692Y010990D01*
X017692Y011088D02*
X000600Y011088D01*
X000600Y011187D02*
X017692Y011187D01*
X017692Y011285D02*
X000600Y011285D01*
X000600Y011384D02*
X017692Y011384D01*
X017692Y011482D02*
X000600Y011482D01*
X000600Y011581D02*
X017692Y011581D01*
X017692Y011679D02*
X000600Y011679D01*
X000600Y011778D02*
X017692Y011778D01*
X017692Y011876D02*
X000600Y011876D01*
X000600Y011975D02*
X000991Y011975D01*
X001051Y011950D02*
X001249Y011950D01*
X001433Y012026D01*
X001574Y012167D01*
X001650Y012351D01*
X001650Y012549D01*
X001574Y012733D01*
X001433Y012874D01*
X001249Y012950D01*
X001051Y012950D01*
X000867Y012874D01*
X000726Y012733D01*
X000650Y012549D01*
X000650Y012351D01*
X000726Y012167D01*
X000867Y012026D01*
X001051Y011950D01*
X000820Y012073D02*
X000600Y012073D01*
X000600Y012172D02*
X000724Y012172D01*
X000683Y012270D02*
X000600Y012270D01*
X000600Y012369D02*
X000650Y012369D01*
X000650Y012467D02*
X000600Y012467D01*
X000600Y012566D02*
X000657Y012566D01*
X000697Y012664D02*
X000600Y012664D01*
X000600Y012763D02*
X000755Y012763D01*
X000697Y012861D02*
X000854Y012861D01*
X000796Y012960D02*
X017504Y012960D01*
X017433Y012874D02*
X017249Y012950D01*
X017051Y012950D01*
X016867Y012874D01*
X016726Y012733D01*
X016650Y012549D01*
X016650Y012351D01*
X016726Y012167D01*
X016867Y012026D01*
X017051Y011950D01*
X017249Y011950D01*
X017433Y012026D01*
X017574Y012167D01*
X017650Y012351D01*
X017650Y012549D01*
X017574Y012733D01*
X017433Y012874D01*
X017446Y012861D02*
X017603Y012861D01*
X017545Y012763D02*
X017692Y012763D01*
X017692Y012664D02*
X017603Y012664D01*
X017643Y012566D02*
X017692Y012566D01*
X017692Y012467D02*
X017650Y012467D01*
X017650Y012369D02*
X017692Y012369D01*
X017692Y012270D02*
X017617Y012270D01*
X017576Y012172D02*
X017692Y012172D01*
X017692Y012073D02*
X017480Y012073D01*
X017309Y011975D02*
X017692Y011975D01*
X016991Y011975D02*
X001309Y011975D01*
X001480Y012073D02*
X003457Y012073D01*
X003429Y012101D02*
X003506Y012025D01*
X004125Y012025D01*
X004136Y012035D01*
X004137Y012035D01*
X004171Y012015D01*
X004209Y012005D01*
X004435Y012005D01*
X004435Y012400D01*
X004535Y012400D01*
X004535Y012500D01*
X004891Y012500D01*
X004891Y012765D01*
X004880Y012803D01*
X004861Y012837D01*
X004833Y012865D01*
X004798Y012885D01*
X004760Y012895D01*
X004535Y012895D01*
X004535Y012500D01*
X004435Y012500D01*
X004435Y012895D01*
X004209Y012895D01*
X004171Y012885D01*
X004137Y012865D01*
X004136Y012865D01*
X004125Y012875D01*
X003506Y012875D01*
X003429Y012799D01*
X003429Y012660D01*
X002904Y012660D01*
X002786Y012778D01*
X002514Y012778D01*
X002322Y012586D01*
X002322Y012314D01*
X002514Y012122D01*
X002786Y012122D01*
X002904Y012240D01*
X003429Y012240D01*
X003429Y012101D01*
X003429Y012172D02*
X002836Y012172D01*
X002464Y012172D02*
X001576Y012172D01*
X001617Y012270D02*
X002366Y012270D01*
X002322Y012369D02*
X001650Y012369D01*
X001650Y012467D02*
X002322Y012467D01*
X002322Y012566D02*
X001643Y012566D01*
X001603Y012664D02*
X002400Y012664D01*
X002499Y012763D02*
X001545Y012763D01*
X001446Y012861D02*
X003491Y012861D01*
X003429Y012763D02*
X002801Y012763D01*
X002900Y012664D02*
X003429Y012664D01*
X004435Y012664D02*
X004535Y012664D01*
X004535Y012566D02*
X004435Y012566D01*
X004535Y012467D02*
X016650Y012467D01*
X016650Y012369D02*
X004891Y012369D01*
X004891Y012400D02*
X004891Y012135D01*
X004880Y012097D01*
X004861Y012063D01*
X004833Y012035D01*
X004798Y012015D01*
X004760Y012005D01*
X004535Y012005D01*
X004535Y012400D01*
X004891Y012400D01*
X004891Y012270D02*
X016683Y012270D01*
X016724Y012172D02*
X004891Y012172D01*
X004867Y012073D02*
X016820Y012073D01*
X016657Y012566D02*
X004891Y012566D01*
X004891Y012664D02*
X016697Y012664D01*
X016755Y012763D02*
X004891Y012763D01*
X004837Y012861D02*
X016854Y012861D01*
X017692Y009118D02*
X002949Y009118D01*
X003047Y009020D02*
X017692Y009020D01*
X017692Y008921D02*
X003146Y008921D01*
X003244Y008823D02*
X017692Y008823D01*
X017692Y008724D02*
X003343Y008724D01*
X003441Y008626D02*
X017692Y008626D01*
X004535Y012073D02*
X004435Y012073D01*
X004435Y012172D02*
X004535Y012172D01*
X004535Y012270D02*
X004435Y012270D01*
X004435Y012369D02*
X004535Y012369D01*
X004535Y012763D02*
X004435Y012763D01*
X004435Y012861D02*
X004535Y012861D01*
D19*
X005650Y012450D03*
X002650Y012450D03*
X001650Y011450D03*
X002650Y008950D03*
X001650Y006950D03*
X004150Y004950D03*
X006400Y006200D03*
X007650Y008198D03*
X011150Y006950D03*
X011650Y004950D03*
X008900Y002200D03*
X016150Y005450D03*
X016150Y008950D03*
X013150Y012450D03*
D20*
X008650Y008198D02*
X008150Y008198D01*
X007650Y008198D01*
X007650Y007285D01*
X008650Y006702D02*
X008650Y006450D01*
X008815Y006615D01*
X010150Y006615D01*
X008650Y006450D02*
X008650Y005450D01*
X008650Y004950D01*
X011150Y002450D01*
X011150Y001450D01*
X007650Y008198D02*
X003402Y008198D01*
X002650Y008950D01*
M02*
