G75*
%MOIN*%
%OFA0B0*%
%FSLAX24Y24*%
%IPPOS*%
%LPD*%
%AMOC8*
5,1,8,0,0,1.08239X$1,22.5*
%
%ADD10R,0.0709X0.0787*%
%ADD11R,0.0787X0.0709*%
%ADD12R,0.0787X0.2598*%
%ADD13R,0.0787X0.3150*%
%ADD14R,0.3031X0.2362*%
%ADD15C,0.0600*%
%ADD16C,0.0740*%
%ADD17C,0.0100*%
%ADD18OC8,0.0396*%
%ADD19C,0.0160*%
%ADD20C,0.0400*%
D10*
X002894Y003525D03*
X004646Y003525D03*
X006398Y003525D03*
X008150Y003525D03*
X009902Y003525D03*
X011654Y003525D03*
X013406Y003525D03*
X013406Y010375D03*
X011654Y010375D03*
X009902Y010375D03*
X008150Y010375D03*
X006398Y010375D03*
X004646Y010375D03*
X002894Y010375D03*
D11*
X001457Y009667D03*
X001457Y007856D03*
X001457Y006044D03*
X001457Y004233D03*
D12*
X014843Y009391D03*
D13*
X014843Y004785D03*
D14*
X003839Y007147D03*
D15*
X004150Y001750D02*
X004150Y001150D01*
X003150Y001150D02*
X003150Y001750D01*
X002150Y001750D02*
X002150Y001150D01*
X010150Y001150D02*
X010150Y001750D01*
X011150Y001750D02*
X011150Y001150D01*
X012150Y001150D02*
X012150Y001750D01*
X013150Y001750D02*
X013150Y001150D01*
X014150Y001150D02*
X014150Y001750D01*
X015150Y001750D02*
X015150Y001150D01*
X016150Y001150D02*
X016150Y001750D01*
X017150Y001750D02*
X017150Y001150D01*
D16*
X017150Y012450D03*
X001150Y012450D03*
D17*
X000600Y001136D02*
X000836Y000900D01*
X001775Y000900D01*
X001765Y000914D01*
X001733Y000977D01*
X001711Y001045D01*
X001700Y001115D01*
X001700Y001400D01*
X002100Y001400D01*
X002100Y001500D01*
X002100Y002198D01*
X002045Y002189D01*
X001977Y002167D01*
X001914Y002135D01*
X001857Y002093D01*
X001807Y002043D01*
X001765Y001986D01*
X001733Y001923D01*
X001711Y001855D01*
X001700Y001785D01*
X001700Y001500D01*
X002100Y001500D01*
X002200Y001500D01*
X002200Y002198D01*
X002255Y002189D01*
X002323Y002167D01*
X002386Y002135D01*
X002443Y002093D01*
X002493Y002043D01*
X002535Y001986D01*
X002567Y001923D01*
X002589Y001855D01*
X002600Y001785D01*
X002600Y001500D01*
X002200Y001500D01*
X002200Y001400D01*
X002600Y001400D01*
X002600Y001115D01*
X002589Y001045D01*
X002567Y000977D01*
X002535Y000914D01*
X002525Y000900D01*
X002792Y000900D01*
X002785Y000906D01*
X002720Y001064D01*
X002720Y001836D01*
X002785Y001994D01*
X002906Y002115D01*
X003064Y002180D01*
X003236Y002180D01*
X003394Y002115D01*
X003515Y001994D01*
X003580Y001836D01*
X003580Y001064D01*
X003515Y000906D01*
X003508Y000900D01*
X003775Y000900D01*
X003765Y000914D01*
X003733Y000977D01*
X003711Y001045D01*
X003700Y001115D01*
X003700Y001400D01*
X004100Y001400D01*
X004100Y001500D01*
X004100Y002198D01*
X004045Y002189D01*
X003977Y002167D01*
X003914Y002135D01*
X003857Y002093D01*
X003807Y002043D01*
X003765Y001986D01*
X003733Y001923D01*
X003711Y001855D01*
X003700Y001785D01*
X003700Y001500D01*
X004100Y001500D01*
X004200Y001500D01*
X004200Y002198D01*
X004255Y002189D01*
X004323Y002167D01*
X004386Y002135D01*
X004443Y002093D01*
X004493Y002043D01*
X004535Y001986D01*
X004567Y001923D01*
X004589Y001855D01*
X004600Y001785D01*
X004600Y001500D01*
X004200Y001500D01*
X004200Y001400D01*
X004600Y001400D01*
X004600Y001115D01*
X004589Y001045D01*
X004567Y000977D01*
X004535Y000914D01*
X004525Y000900D01*
X009792Y000900D01*
X009785Y000906D01*
X009720Y001064D01*
X009720Y001836D01*
X009785Y001994D01*
X009906Y002115D01*
X010064Y002180D01*
X010236Y002180D01*
X010394Y002115D01*
X010515Y001994D01*
X010580Y001836D01*
X010580Y001064D01*
X010515Y000906D01*
X010508Y000900D01*
X010792Y000900D01*
X010785Y000906D01*
X010720Y001064D01*
X010720Y001836D01*
X010785Y001994D01*
X010906Y002115D01*
X011064Y002180D01*
X011236Y002180D01*
X011394Y002115D01*
X011515Y001994D01*
X011580Y001836D01*
X011580Y001064D01*
X011515Y000906D01*
X011508Y000900D01*
X011775Y000900D01*
X011765Y000914D01*
X011733Y000977D01*
X011711Y001045D01*
X011700Y001115D01*
X011700Y001400D01*
X012100Y001400D01*
X012100Y001500D01*
X012100Y002198D01*
X012045Y002189D01*
X011977Y002167D01*
X011914Y002135D01*
X011857Y002093D01*
X011807Y002043D01*
X011765Y001986D01*
X011733Y001923D01*
X011711Y001855D01*
X011700Y001785D01*
X011700Y001500D01*
X012100Y001500D01*
X012200Y001500D01*
X012200Y002198D01*
X012255Y002189D01*
X012323Y002167D01*
X012386Y002135D01*
X012443Y002093D01*
X012493Y002043D01*
X012535Y001986D01*
X012567Y001923D01*
X012589Y001855D01*
X012600Y001785D01*
X012600Y001500D01*
X012200Y001500D01*
X012200Y001400D01*
X012600Y001400D01*
X012600Y001115D01*
X012589Y001045D01*
X012567Y000977D01*
X012535Y000914D01*
X012525Y000900D01*
X012792Y000900D01*
X012785Y000906D01*
X012720Y001064D01*
X012720Y001836D01*
X012785Y001994D01*
X012906Y002115D01*
X012940Y002128D01*
X012940Y002537D01*
X013063Y002660D01*
X013196Y002793D01*
X013196Y003001D01*
X012998Y003001D01*
X012922Y003077D01*
X012922Y003972D01*
X012998Y004049D01*
X013814Y004049D01*
X013890Y003972D01*
X013890Y003077D01*
X013814Y003001D01*
X013616Y003001D01*
X013616Y002619D01*
X013360Y002363D01*
X013360Y002128D01*
X013394Y002115D01*
X013515Y001994D01*
X013580Y001836D01*
X013580Y001064D01*
X013515Y000906D01*
X013508Y000900D01*
X013792Y000900D01*
X013785Y000906D01*
X013720Y001064D01*
X013720Y001836D01*
X013785Y001994D01*
X013906Y002115D01*
X014064Y002180D01*
X014083Y002180D01*
X014440Y002537D01*
X014563Y002660D01*
X015063Y002660D01*
X016440Y004037D01*
X016440Y005276D01*
X016286Y005122D01*
X016014Y005122D01*
X015822Y005314D01*
X015822Y005586D01*
X015940Y005704D01*
X015940Y006363D01*
X015563Y006740D01*
X012237Y006740D01*
X010112Y004615D01*
X010112Y004049D01*
X010310Y004049D01*
X010386Y003972D01*
X010386Y003077D01*
X010310Y003001D01*
X009494Y003001D01*
X009418Y003077D01*
X009418Y003972D01*
X009494Y004049D01*
X009692Y004049D01*
X009692Y004789D01*
X011940Y007037D01*
X012063Y007160D01*
X015737Y007160D01*
X016237Y006660D01*
X016360Y006537D01*
X016360Y005704D01*
X016440Y005624D01*
X016440Y010863D01*
X016063Y011240D01*
X010237Y011240D01*
X010112Y011115D01*
X010112Y010899D01*
X010310Y010899D01*
X010386Y010823D01*
X010386Y009928D01*
X010310Y009851D01*
X009494Y009851D01*
X009418Y009928D01*
X009418Y010823D01*
X009494Y010899D01*
X009692Y010899D01*
X009692Y011289D01*
X009940Y011537D01*
X010063Y011660D01*
X016237Y011660D01*
X016737Y011160D01*
X016860Y011037D01*
X016860Y003957D01*
X016940Y004037D01*
X016940Y011363D01*
X016563Y011740D01*
X006237Y011740D01*
X005130Y010633D01*
X005130Y009928D01*
X005054Y009851D01*
X004238Y009851D01*
X004162Y009928D01*
X004162Y010823D01*
X004238Y010899D01*
X004802Y010899D01*
X005940Y012037D01*
X006063Y012160D01*
X016733Y012160D01*
X016726Y012167D01*
X016650Y012351D01*
X016650Y012549D01*
X016726Y012733D01*
X016867Y012874D01*
X017051Y012950D01*
X017249Y012950D01*
X017433Y012874D01*
X017574Y012733D01*
X017650Y012549D01*
X017650Y012351D01*
X017574Y012167D01*
X017433Y012026D01*
X017249Y011950D01*
X017051Y011950D01*
X016874Y012023D01*
X017237Y011660D01*
X017360Y011537D01*
X017360Y003863D01*
X015503Y002006D01*
X015515Y001994D01*
X015580Y001836D01*
X015580Y001064D01*
X015515Y000906D01*
X015508Y000900D01*
X015792Y000900D01*
X015785Y000906D01*
X015720Y001064D01*
X015720Y001836D01*
X015785Y001994D01*
X015906Y002115D01*
X016064Y002180D01*
X016236Y002180D01*
X016394Y002115D01*
X016515Y001994D01*
X016580Y001836D01*
X016580Y001064D01*
X016515Y000906D01*
X016508Y000900D01*
X016792Y000900D01*
X016785Y000906D01*
X016720Y001064D01*
X016720Y001836D01*
X016785Y001994D01*
X016906Y002115D01*
X017064Y002180D01*
X017236Y002180D01*
X017394Y002115D01*
X017515Y001994D01*
X017580Y001836D01*
X017580Y001064D01*
X017546Y000982D01*
X017692Y001129D01*
X017692Y012771D01*
X017464Y013000D01*
X000836Y013000D01*
X000600Y012764D01*
X000600Y001136D01*
X000600Y001140D02*
X001700Y001140D01*
X001700Y001238D02*
X000600Y001238D01*
X000600Y001337D02*
X001700Y001337D01*
X001700Y001534D02*
X000600Y001534D01*
X000600Y001632D02*
X001700Y001632D01*
X001700Y001731D02*
X000600Y001731D01*
X000600Y001829D02*
X001707Y001829D01*
X001735Y001928D02*
X000600Y001928D01*
X000600Y002026D02*
X001794Y002026D01*
X001900Y002125D02*
X000600Y002125D01*
X000600Y002223D02*
X012940Y002223D01*
X012940Y002322D02*
X000600Y002322D01*
X000600Y002420D02*
X012940Y002420D01*
X012940Y002519D02*
X000600Y002519D01*
X000600Y002617D02*
X013020Y002617D01*
X013119Y002716D02*
X000600Y002716D01*
X000600Y002814D02*
X013196Y002814D01*
X013196Y002913D02*
X000600Y002913D01*
X000600Y003011D02*
X002476Y003011D01*
X002486Y003001D02*
X003302Y003001D01*
X003378Y003077D01*
X003378Y003881D01*
X004119Y004622D01*
X004286Y004622D01*
X004478Y004814D01*
X004478Y005086D01*
X004286Y005278D01*
X004014Y005278D01*
X003822Y005086D01*
X003822Y004919D01*
X002952Y004049D01*
X002486Y004049D01*
X002410Y003972D01*
X002410Y003077D01*
X002486Y003001D01*
X002410Y003110D02*
X000600Y003110D01*
X000600Y003208D02*
X002410Y003208D01*
X002410Y003307D02*
X000600Y003307D01*
X000600Y003405D02*
X002410Y003405D01*
X002410Y003504D02*
X000600Y003504D01*
X000600Y003602D02*
X002410Y003602D01*
X002410Y003701D02*
X000600Y003701D01*
X000600Y003799D02*
X000960Y003799D01*
X000933Y003825D02*
X001010Y003749D01*
X001905Y003749D01*
X001981Y003825D01*
X001981Y004642D01*
X001905Y004718D01*
X001010Y004718D01*
X000933Y004642D01*
X000933Y003825D01*
X000933Y003898D02*
X000600Y003898D01*
X000600Y003996D02*
X000933Y003996D01*
X000933Y004095D02*
X000600Y004095D01*
X000600Y004193D02*
X000933Y004193D01*
X000933Y004292D02*
X000600Y004292D01*
X000600Y004390D02*
X000933Y004390D01*
X000933Y004489D02*
X000600Y004489D01*
X000600Y004587D02*
X000933Y004587D01*
X000977Y004686D02*
X000600Y004686D01*
X000600Y004784D02*
X003687Y004784D01*
X003589Y004686D02*
X001937Y004686D01*
X001981Y004587D02*
X003490Y004587D01*
X003392Y004489D02*
X001981Y004489D01*
X001981Y004390D02*
X003293Y004390D01*
X003195Y004292D02*
X001981Y004292D01*
X001981Y004193D02*
X003096Y004193D01*
X002998Y004095D02*
X001981Y004095D01*
X001981Y003996D02*
X002433Y003996D01*
X002410Y003898D02*
X001981Y003898D01*
X001955Y003799D02*
X002410Y003799D01*
X003378Y003799D02*
X004162Y003799D01*
X004162Y003701D02*
X003378Y003701D01*
X003378Y003602D02*
X004162Y003602D01*
X004162Y003504D02*
X003378Y003504D01*
X003378Y003405D02*
X004162Y003405D01*
X004162Y003307D02*
X003378Y003307D01*
X003378Y003208D02*
X004162Y003208D01*
X004162Y003110D02*
X003378Y003110D01*
X003312Y003011D02*
X004228Y003011D01*
X004238Y003001D02*
X005054Y003001D01*
X005130Y003077D01*
X005130Y003972D01*
X005054Y004049D01*
X004238Y004049D01*
X004162Y003972D01*
X004162Y003077D01*
X004238Y003001D01*
X005064Y003011D02*
X005980Y003011D01*
X005990Y003001D02*
X006806Y003001D01*
X006882Y003077D01*
X006882Y003972D01*
X006806Y004049D01*
X005990Y004049D01*
X005914Y003972D01*
X005914Y003077D01*
X005990Y003001D01*
X005914Y003110D02*
X005130Y003110D01*
X005130Y003208D02*
X005914Y003208D01*
X005914Y003307D02*
X005130Y003307D01*
X005130Y003405D02*
X005914Y003405D01*
X005914Y003504D02*
X005130Y003504D01*
X005130Y003602D02*
X005914Y003602D01*
X005914Y003701D02*
X005130Y003701D01*
X005130Y003799D02*
X005914Y003799D01*
X005914Y003898D02*
X005130Y003898D01*
X005107Y003996D02*
X005937Y003996D01*
X006859Y003996D02*
X007689Y003996D01*
X007666Y003972D02*
X007742Y004049D01*
X008558Y004049D01*
X008634Y003972D01*
X008634Y003077D01*
X008558Y003001D01*
X007742Y003001D01*
X007666Y003077D01*
X007666Y003972D01*
X007666Y003898D02*
X006882Y003898D01*
X006882Y003799D02*
X007666Y003799D01*
X007666Y003701D02*
X006882Y003701D01*
X006882Y003602D02*
X007666Y003602D01*
X007666Y003504D02*
X006882Y003504D01*
X006882Y003405D02*
X007666Y003405D01*
X007666Y003307D02*
X006882Y003307D01*
X006882Y003208D02*
X007666Y003208D01*
X007666Y003110D02*
X006882Y003110D01*
X006816Y003011D02*
X007732Y003011D01*
X008568Y003011D02*
X009484Y003011D01*
X009418Y003110D02*
X008634Y003110D01*
X008634Y003208D02*
X009418Y003208D01*
X009418Y003307D02*
X008634Y003307D01*
X008634Y003405D02*
X009418Y003405D01*
X009418Y003504D02*
X008634Y003504D01*
X008634Y003602D02*
X009418Y003602D01*
X009418Y003701D02*
X008634Y003701D01*
X008634Y003799D02*
X009418Y003799D01*
X009418Y003898D02*
X008634Y003898D01*
X008611Y003996D02*
X009441Y003996D01*
X009692Y004095D02*
X003591Y004095D01*
X003493Y003996D02*
X004185Y003996D01*
X004162Y003898D02*
X003394Y003898D01*
X003690Y004193D02*
X009692Y004193D01*
X009692Y004292D02*
X003788Y004292D01*
X003887Y004390D02*
X009692Y004390D01*
X009692Y004489D02*
X003985Y004489D01*
X004084Y004587D02*
X009692Y004587D01*
X009692Y004686D02*
X004350Y004686D01*
X004448Y004784D02*
X009692Y004784D01*
X009786Y004883D02*
X004478Y004883D01*
X004478Y004981D02*
X009884Y004981D01*
X009983Y005080D02*
X004478Y005080D01*
X004386Y005178D02*
X010081Y005178D01*
X010180Y005277D02*
X004288Y005277D01*
X004012Y005277D02*
X000600Y005277D01*
X000600Y005375D02*
X010278Y005375D01*
X010377Y005474D02*
X000600Y005474D01*
X000600Y005572D02*
X000969Y005572D01*
X000971Y005570D02*
X001005Y005550D01*
X001044Y005540D01*
X001407Y005540D01*
X001407Y005994D01*
X001507Y005994D01*
X001507Y005540D01*
X001871Y005540D01*
X001909Y005550D01*
X001943Y005570D01*
X001971Y005598D01*
X001991Y005632D01*
X002001Y005670D01*
X002001Y005994D01*
X001507Y005994D01*
X001507Y006094D01*
X002001Y006094D01*
X002001Y006419D01*
X001991Y006457D01*
X001971Y006491D01*
X001943Y006519D01*
X001909Y006539D01*
X001871Y006549D01*
X001507Y006549D01*
X001507Y006094D01*
X001407Y006094D01*
X001407Y005994D01*
X000913Y005994D01*
X000913Y005670D01*
X000924Y005632D01*
X000943Y005598D01*
X000971Y005570D01*
X000913Y005671D02*
X000600Y005671D01*
X000600Y005769D02*
X000913Y005769D01*
X000913Y005868D02*
X000600Y005868D01*
X000600Y005966D02*
X000913Y005966D01*
X000913Y006094D02*
X000913Y006419D01*
X000924Y006457D01*
X000943Y006491D01*
X000971Y006519D01*
X001005Y006539D01*
X001044Y006549D01*
X001407Y006549D01*
X001407Y006094D01*
X000913Y006094D01*
X000913Y006163D02*
X000600Y006163D01*
X000600Y006065D02*
X001407Y006065D01*
X001407Y006163D02*
X001507Y006163D01*
X001507Y006065D02*
X002193Y006065D01*
X002193Y006163D02*
X002001Y006163D01*
X002001Y006262D02*
X002193Y006262D01*
X002193Y006360D02*
X002001Y006360D01*
X001990Y006459D02*
X002193Y006459D01*
X002193Y006557D02*
X000600Y006557D01*
X000600Y006459D02*
X000925Y006459D01*
X000913Y006360D02*
X000600Y006360D01*
X000600Y006262D02*
X000913Y006262D01*
X000600Y006656D02*
X002193Y006656D01*
X002193Y006754D02*
X000600Y006754D01*
X000600Y006853D02*
X002193Y006853D01*
X002193Y006951D02*
X000600Y006951D01*
X000600Y007050D02*
X002193Y007050D01*
X002193Y007148D02*
X000600Y007148D01*
X000600Y007247D02*
X002193Y007247D01*
X002193Y007345D02*
X000600Y007345D01*
X000600Y007444D02*
X000924Y007444D01*
X000924Y007443D02*
X000943Y007409D01*
X000971Y007381D01*
X001005Y007361D01*
X001044Y007351D01*
X001407Y007351D01*
X001407Y007806D01*
X000913Y007806D01*
X000913Y007481D01*
X000924Y007443D01*
X000913Y007542D02*
X000600Y007542D01*
X000600Y007641D02*
X000913Y007641D01*
X000913Y007739D02*
X000600Y007739D01*
X000600Y007838D02*
X001407Y007838D01*
X001407Y007806D02*
X001407Y007906D01*
X001407Y008360D01*
X001044Y008360D01*
X001005Y008350D01*
X000971Y008330D01*
X000943Y008302D01*
X000924Y008268D01*
X000913Y008230D01*
X000913Y007906D01*
X001407Y007906D01*
X001507Y007906D01*
X001507Y008360D01*
X001871Y008360D01*
X001909Y008350D01*
X001943Y008330D01*
X001971Y008302D01*
X001991Y008268D01*
X002001Y008230D01*
X002001Y007906D01*
X001507Y007906D01*
X001507Y007806D01*
X002001Y007806D01*
X002001Y007481D01*
X001991Y007443D01*
X001971Y007409D01*
X001943Y007381D01*
X001909Y007361D01*
X001871Y007351D01*
X001507Y007351D01*
X001507Y007806D01*
X001407Y007806D01*
X001407Y007739D02*
X001507Y007739D01*
X001507Y007641D02*
X001407Y007641D01*
X001407Y007542D02*
X001507Y007542D01*
X001507Y007444D02*
X001407Y007444D01*
X001507Y007838D02*
X002193Y007838D01*
X002193Y007936D02*
X002001Y007936D01*
X002001Y008035D02*
X002193Y008035D01*
X002193Y008133D02*
X002001Y008133D01*
X002000Y008232D02*
X002193Y008232D01*
X002193Y008330D02*
X001943Y008330D01*
X002193Y008382D02*
X002193Y005912D01*
X002269Y005836D01*
X005409Y005836D01*
X005485Y005912D01*
X005485Y008382D01*
X005409Y008458D01*
X002269Y008458D01*
X002193Y008382D01*
X002240Y008429D02*
X000600Y008429D01*
X000600Y008527D02*
X006190Y008527D01*
X006190Y008429D02*
X005438Y008429D01*
X005485Y008330D02*
X006190Y008330D01*
X006190Y008232D02*
X005485Y008232D01*
X005485Y008133D02*
X006190Y008133D01*
X006190Y008035D02*
X005485Y008035D01*
X005485Y007936D02*
X006190Y007936D01*
X006190Y007838D02*
X005485Y007838D01*
X005485Y007739D02*
X006190Y007739D01*
X006190Y007641D02*
X005485Y007641D01*
X005485Y007542D02*
X006190Y007542D01*
X006190Y007444D02*
X005485Y007444D01*
X005485Y007345D02*
X006190Y007345D01*
X006190Y007247D02*
X005485Y007247D01*
X005485Y007148D02*
X006190Y007148D01*
X006190Y007050D02*
X005485Y007050D01*
X005485Y006951D02*
X006190Y006951D01*
X006190Y006853D02*
X005485Y006853D01*
X005485Y006754D02*
X006190Y006754D01*
X006190Y006656D02*
X005485Y006656D01*
X005485Y006557D02*
X006190Y006557D01*
X006190Y006459D02*
X005485Y006459D01*
X005485Y006360D02*
X006096Y006360D01*
X006072Y006336D02*
X006072Y006064D01*
X006264Y005872D01*
X006536Y005872D01*
X006728Y006064D01*
X006728Y006336D01*
X006610Y006454D01*
X006610Y009851D01*
X006806Y009851D01*
X006882Y009928D01*
X006882Y010823D01*
X006806Y010899D01*
X005990Y010899D01*
X005914Y010823D01*
X005914Y009928D01*
X005990Y009851D01*
X006190Y009851D01*
X006190Y006454D01*
X006072Y006336D01*
X006072Y006262D02*
X005485Y006262D01*
X005485Y006163D02*
X006072Y006163D01*
X006072Y006065D02*
X005485Y006065D01*
X005485Y005966D02*
X006170Y005966D01*
X006630Y005966D02*
X010869Y005966D01*
X010771Y005868D02*
X005440Y005868D01*
X006728Y006065D02*
X010968Y006065D01*
X011066Y006163D02*
X006728Y006163D01*
X006728Y006262D02*
X011165Y006262D01*
X011263Y006360D02*
X006704Y006360D01*
X006610Y006459D02*
X011362Y006459D01*
X011460Y006557D02*
X006610Y006557D01*
X006610Y006656D02*
X010980Y006656D01*
X011014Y006622D02*
X011286Y006622D01*
X011478Y006814D01*
X011478Y007086D01*
X011286Y007278D01*
X011014Y007278D01*
X010896Y007160D01*
X008985Y007160D01*
X007978Y008167D01*
X007978Y008334D01*
X007786Y008526D01*
X007514Y008526D01*
X007322Y008334D01*
X007322Y008062D01*
X007514Y007870D01*
X007681Y007870D01*
X008811Y006740D01*
X010896Y006740D01*
X011014Y006622D01*
X011320Y006656D02*
X011559Y006656D01*
X011657Y006754D02*
X011418Y006754D01*
X011478Y006853D02*
X011756Y006853D01*
X011854Y006951D02*
X011478Y006951D01*
X011478Y007050D02*
X011953Y007050D01*
X012051Y007148D02*
X011416Y007148D01*
X011317Y007247D02*
X016440Y007247D01*
X016440Y007345D02*
X008800Y007345D01*
X008898Y007247D02*
X010983Y007247D01*
X012054Y006557D02*
X015746Y006557D01*
X015844Y006459D02*
X015321Y006459D01*
X015290Y006489D02*
X014395Y006489D01*
X014319Y006413D01*
X014319Y003156D01*
X014395Y003080D01*
X015290Y003080D01*
X015367Y003156D01*
X015367Y006413D01*
X015290Y006489D01*
X015367Y006360D02*
X015940Y006360D01*
X015940Y006262D02*
X015367Y006262D01*
X015367Y006163D02*
X015940Y006163D01*
X015940Y006065D02*
X015367Y006065D01*
X015367Y005966D02*
X015940Y005966D01*
X015940Y005868D02*
X015367Y005868D01*
X015367Y005769D02*
X015940Y005769D01*
X015906Y005671D02*
X015367Y005671D01*
X015367Y005572D02*
X015822Y005572D01*
X015822Y005474D02*
X015367Y005474D01*
X015367Y005375D02*
X015822Y005375D01*
X015859Y005277D02*
X015367Y005277D01*
X015367Y005178D02*
X015958Y005178D01*
X016342Y005178D02*
X016440Y005178D01*
X016440Y005080D02*
X015367Y005080D01*
X015367Y004981D02*
X016440Y004981D01*
X016440Y004883D02*
X015367Y004883D01*
X015367Y004784D02*
X016440Y004784D01*
X016440Y004686D02*
X015367Y004686D01*
X015367Y004587D02*
X016440Y004587D01*
X016440Y004489D02*
X015367Y004489D01*
X015367Y004390D02*
X016440Y004390D01*
X016440Y004292D02*
X015367Y004292D01*
X015367Y004193D02*
X016440Y004193D01*
X016440Y004095D02*
X015367Y004095D01*
X015367Y003996D02*
X016399Y003996D01*
X016301Y003898D02*
X015367Y003898D01*
X015367Y003799D02*
X016202Y003799D01*
X016104Y003701D02*
X015367Y003701D01*
X015367Y003602D02*
X016005Y003602D01*
X015907Y003504D02*
X015367Y003504D01*
X015367Y003405D02*
X015808Y003405D01*
X015710Y003307D02*
X015367Y003307D01*
X015367Y003208D02*
X015611Y003208D01*
X015513Y003110D02*
X015320Y003110D01*
X015414Y003011D02*
X013824Y003011D01*
X013890Y003110D02*
X014366Y003110D01*
X014319Y003208D02*
X013890Y003208D01*
X013890Y003307D02*
X014319Y003307D01*
X014319Y003405D02*
X013890Y003405D01*
X013890Y003504D02*
X014319Y003504D01*
X014319Y003602D02*
X013890Y003602D01*
X013890Y003701D02*
X014319Y003701D01*
X014319Y003799D02*
X013890Y003799D01*
X013890Y003898D02*
X014319Y003898D01*
X014319Y003996D02*
X013867Y003996D01*
X014319Y004095D02*
X011864Y004095D01*
X011864Y004049D02*
X011864Y004700D01*
X011978Y004814D01*
X011978Y005086D01*
X011786Y005278D01*
X011514Y005278D01*
X011322Y005086D01*
X011322Y004814D01*
X011444Y004692D01*
X011444Y004049D01*
X011246Y004049D01*
X011170Y003972D01*
X011170Y003077D01*
X011246Y003001D01*
X012062Y003001D01*
X012138Y003077D01*
X012138Y003972D01*
X012062Y004049D01*
X011864Y004049D01*
X011864Y004193D02*
X014319Y004193D01*
X014319Y004292D02*
X011864Y004292D01*
X011864Y004390D02*
X014319Y004390D01*
X014319Y004489D02*
X011864Y004489D01*
X011864Y004587D02*
X014319Y004587D01*
X014319Y004686D02*
X011864Y004686D01*
X011948Y004784D02*
X014319Y004784D01*
X014319Y004883D02*
X011978Y004883D01*
X011978Y004981D02*
X014319Y004981D01*
X014319Y005080D02*
X011978Y005080D01*
X011886Y005178D02*
X014319Y005178D01*
X014319Y005277D02*
X011788Y005277D01*
X011512Y005277D02*
X010773Y005277D01*
X010675Y005178D02*
X011414Y005178D01*
X011322Y005080D02*
X010576Y005080D01*
X010478Y004981D02*
X011322Y004981D01*
X011322Y004883D02*
X010379Y004883D01*
X010281Y004784D02*
X011352Y004784D01*
X011444Y004686D02*
X010182Y004686D01*
X010112Y004587D02*
X011444Y004587D01*
X011444Y004489D02*
X010112Y004489D01*
X010112Y004390D02*
X011444Y004390D01*
X011444Y004292D02*
X010112Y004292D01*
X010112Y004193D02*
X011444Y004193D01*
X011444Y004095D02*
X010112Y004095D01*
X010363Y003996D02*
X011193Y003996D01*
X011170Y003898D02*
X010386Y003898D01*
X010386Y003799D02*
X011170Y003799D01*
X011170Y003701D02*
X010386Y003701D01*
X010386Y003602D02*
X011170Y003602D01*
X011170Y003504D02*
X010386Y003504D01*
X010386Y003405D02*
X011170Y003405D01*
X011170Y003307D02*
X010386Y003307D01*
X010386Y003208D02*
X011170Y003208D01*
X011170Y003110D02*
X010386Y003110D01*
X010320Y003011D02*
X011236Y003011D01*
X012072Y003011D02*
X012988Y003011D01*
X012922Y003110D02*
X012138Y003110D01*
X012138Y003208D02*
X012922Y003208D01*
X012922Y003307D02*
X012138Y003307D01*
X012138Y003405D02*
X012922Y003405D01*
X012922Y003504D02*
X012138Y003504D01*
X012138Y003602D02*
X012922Y003602D01*
X012922Y003701D02*
X012138Y003701D01*
X012138Y003799D02*
X012922Y003799D01*
X012922Y003898D02*
X012138Y003898D01*
X012115Y003996D02*
X012945Y003996D01*
X013616Y002913D02*
X015316Y002913D01*
X015217Y002814D02*
X013616Y002814D01*
X013616Y002716D02*
X015119Y002716D01*
X014520Y002617D02*
X013614Y002617D01*
X013515Y002519D02*
X014422Y002519D01*
X014323Y002420D02*
X013417Y002420D01*
X013360Y002322D02*
X014225Y002322D01*
X014126Y002223D02*
X013360Y002223D01*
X013370Y002125D02*
X013930Y002125D01*
X013818Y002026D02*
X013482Y002026D01*
X013542Y001928D02*
X013758Y001928D01*
X013720Y001829D02*
X013580Y001829D01*
X013580Y001731D02*
X013720Y001731D01*
X013720Y001632D02*
X013580Y001632D01*
X013580Y001534D02*
X013720Y001534D01*
X013720Y001435D02*
X013580Y001435D01*
X013580Y001337D02*
X013720Y001337D01*
X013720Y001238D02*
X013580Y001238D01*
X013580Y001140D02*
X013720Y001140D01*
X013730Y001041D02*
X013570Y001041D01*
X013529Y000943D02*
X013771Y000943D01*
X012771Y000943D02*
X012549Y000943D01*
X012588Y001041D02*
X012730Y001041D01*
X012720Y001140D02*
X012600Y001140D01*
X012600Y001238D02*
X012720Y001238D01*
X012720Y001337D02*
X012600Y001337D01*
X012720Y001435D02*
X012200Y001435D01*
X012200Y001534D02*
X012100Y001534D01*
X012100Y001632D02*
X012200Y001632D01*
X012200Y001731D02*
X012100Y001731D01*
X012100Y001829D02*
X012200Y001829D01*
X012200Y001928D02*
X012100Y001928D01*
X012100Y002026D02*
X012200Y002026D01*
X012200Y002125D02*
X012100Y002125D01*
X011900Y002125D02*
X011370Y002125D01*
X011482Y002026D02*
X011794Y002026D01*
X011735Y001928D02*
X011542Y001928D01*
X011580Y001829D02*
X011707Y001829D01*
X011700Y001731D02*
X011580Y001731D01*
X011580Y001632D02*
X011700Y001632D01*
X011700Y001534D02*
X011580Y001534D01*
X011580Y001435D02*
X012100Y001435D01*
X012600Y001534D02*
X012720Y001534D01*
X012720Y001632D02*
X012600Y001632D01*
X012600Y001731D02*
X012720Y001731D01*
X012720Y001829D02*
X012593Y001829D01*
X012565Y001928D02*
X012758Y001928D01*
X012818Y002026D02*
X012506Y002026D01*
X012400Y002125D02*
X012930Y002125D01*
X011700Y001337D02*
X011580Y001337D01*
X011580Y001238D02*
X011700Y001238D01*
X011700Y001140D02*
X011580Y001140D01*
X011570Y001041D02*
X011712Y001041D01*
X011751Y000943D02*
X011529Y000943D01*
X010771Y000943D02*
X010529Y000943D01*
X010570Y001041D02*
X010730Y001041D01*
X010720Y001140D02*
X010580Y001140D01*
X010580Y001238D02*
X010720Y001238D01*
X010720Y001337D02*
X010580Y001337D01*
X010580Y001435D02*
X010720Y001435D01*
X010720Y001534D02*
X010580Y001534D01*
X010580Y001632D02*
X010720Y001632D01*
X010720Y001731D02*
X010580Y001731D01*
X010580Y001829D02*
X010720Y001829D01*
X010758Y001928D02*
X010542Y001928D01*
X010482Y002026D02*
X010818Y002026D01*
X010930Y002125D02*
X010370Y002125D01*
X009930Y002125D02*
X004400Y002125D01*
X004506Y002026D02*
X009818Y002026D01*
X009758Y001928D02*
X004565Y001928D01*
X004593Y001829D02*
X009720Y001829D01*
X009720Y001731D02*
X004600Y001731D01*
X004600Y001632D02*
X009720Y001632D01*
X009720Y001534D02*
X004600Y001534D01*
X004600Y001337D02*
X009720Y001337D01*
X009720Y001435D02*
X004200Y001435D01*
X004200Y001534D02*
X004100Y001534D01*
X004100Y001632D02*
X004200Y001632D01*
X004200Y001731D02*
X004100Y001731D01*
X004100Y001829D02*
X004200Y001829D01*
X004200Y001928D02*
X004100Y001928D01*
X004100Y002026D02*
X004200Y002026D01*
X004200Y002125D02*
X004100Y002125D01*
X003900Y002125D02*
X003370Y002125D01*
X003482Y002026D02*
X003794Y002026D01*
X003735Y001928D02*
X003542Y001928D01*
X003580Y001829D02*
X003707Y001829D01*
X003700Y001731D02*
X003580Y001731D01*
X003580Y001632D02*
X003700Y001632D01*
X003700Y001534D02*
X003580Y001534D01*
X003580Y001435D02*
X004100Y001435D01*
X003700Y001337D02*
X003580Y001337D01*
X003580Y001238D02*
X003700Y001238D01*
X003700Y001140D02*
X003580Y001140D01*
X003570Y001041D02*
X003712Y001041D01*
X003751Y000943D02*
X003529Y000943D01*
X002771Y000943D02*
X002549Y000943D01*
X002588Y001041D02*
X002730Y001041D01*
X002720Y001140D02*
X002600Y001140D01*
X002600Y001238D02*
X002720Y001238D01*
X002720Y001337D02*
X002600Y001337D01*
X002720Y001435D02*
X002200Y001435D01*
X002200Y001534D02*
X002100Y001534D01*
X002100Y001632D02*
X002200Y001632D01*
X002200Y001731D02*
X002100Y001731D01*
X002100Y001829D02*
X002200Y001829D01*
X002200Y001928D02*
X002100Y001928D01*
X002100Y002026D02*
X002200Y002026D01*
X002200Y002125D02*
X002100Y002125D01*
X002400Y002125D02*
X002930Y002125D01*
X002818Y002026D02*
X002506Y002026D01*
X002565Y001928D02*
X002758Y001928D01*
X002720Y001829D02*
X002593Y001829D01*
X002600Y001731D02*
X002720Y001731D01*
X002720Y001632D02*
X002600Y001632D01*
X002600Y001534D02*
X002720Y001534D01*
X002100Y001435D02*
X000600Y001435D01*
X000695Y001041D02*
X001712Y001041D01*
X001751Y000943D02*
X000794Y000943D01*
X004549Y000943D02*
X009771Y000943D01*
X009730Y001041D02*
X004588Y001041D01*
X004600Y001140D02*
X009720Y001140D01*
X009720Y001238D02*
X004600Y001238D01*
X003786Y004883D02*
X000600Y004883D01*
X000600Y004981D02*
X003822Y004981D01*
X003822Y005080D02*
X000600Y005080D01*
X000600Y005178D02*
X003914Y005178D01*
X002238Y005868D02*
X002001Y005868D01*
X002001Y005966D02*
X002193Y005966D01*
X002001Y005769D02*
X010672Y005769D01*
X010574Y005671D02*
X002001Y005671D01*
X001945Y005572D02*
X010475Y005572D01*
X010872Y005375D02*
X014319Y005375D01*
X014319Y005474D02*
X010970Y005474D01*
X011069Y005572D02*
X014319Y005572D01*
X014319Y005671D02*
X011167Y005671D01*
X011266Y005769D02*
X014319Y005769D01*
X014319Y005868D02*
X011364Y005868D01*
X011463Y005966D02*
X014319Y005966D01*
X014319Y006065D02*
X011561Y006065D01*
X011660Y006163D02*
X014319Y006163D01*
X014319Y006262D02*
X011758Y006262D01*
X011857Y006360D02*
X014319Y006360D01*
X014364Y006459D02*
X011955Y006459D01*
X012153Y006656D02*
X015647Y006656D01*
X016044Y006853D02*
X016440Y006853D01*
X016440Y006951D02*
X015946Y006951D01*
X015847Y007050D02*
X016440Y007050D01*
X016440Y007148D02*
X015749Y007148D01*
X016143Y006754D02*
X016440Y006754D01*
X016440Y006656D02*
X016241Y006656D01*
X016340Y006557D02*
X016440Y006557D01*
X016440Y006459D02*
X016360Y006459D01*
X016360Y006360D02*
X016440Y006360D01*
X016440Y006262D02*
X016360Y006262D01*
X016360Y006163D02*
X016440Y006163D01*
X016440Y006065D02*
X016360Y006065D01*
X016360Y005966D02*
X016440Y005966D01*
X016440Y005868D02*
X016360Y005868D01*
X016360Y005769D02*
X016440Y005769D01*
X016440Y005671D02*
X016394Y005671D01*
X016860Y005671D02*
X016940Y005671D01*
X016940Y005769D02*
X016860Y005769D01*
X016860Y005868D02*
X016940Y005868D01*
X016940Y005966D02*
X016860Y005966D01*
X016860Y006065D02*
X016940Y006065D01*
X016940Y006163D02*
X016860Y006163D01*
X016860Y006262D02*
X016940Y006262D01*
X016940Y006360D02*
X016860Y006360D01*
X016860Y006459D02*
X016940Y006459D01*
X016940Y006557D02*
X016860Y006557D01*
X016860Y006656D02*
X016940Y006656D01*
X016940Y006754D02*
X016860Y006754D01*
X016860Y006853D02*
X016940Y006853D01*
X016940Y006951D02*
X016860Y006951D01*
X016860Y007050D02*
X016940Y007050D01*
X016940Y007148D02*
X016860Y007148D01*
X016860Y007247D02*
X016940Y007247D01*
X016940Y007345D02*
X016860Y007345D01*
X016860Y007444D02*
X016940Y007444D01*
X016940Y007542D02*
X016860Y007542D01*
X016860Y007641D02*
X016940Y007641D01*
X016940Y007739D02*
X016860Y007739D01*
X016860Y007838D02*
X016940Y007838D01*
X016940Y007936D02*
X016860Y007936D01*
X016860Y008035D02*
X016940Y008035D01*
X016940Y008133D02*
X016860Y008133D01*
X016860Y008232D02*
X016940Y008232D01*
X016940Y008330D02*
X016860Y008330D01*
X016860Y008429D02*
X016940Y008429D01*
X016940Y008527D02*
X016860Y008527D01*
X016860Y008626D02*
X016940Y008626D01*
X016940Y008724D02*
X016860Y008724D01*
X016860Y008823D02*
X016940Y008823D01*
X016940Y008921D02*
X016860Y008921D01*
X016860Y009020D02*
X016940Y009020D01*
X016940Y009118D02*
X016860Y009118D01*
X016860Y009217D02*
X016940Y009217D01*
X016940Y009315D02*
X016860Y009315D01*
X016860Y009414D02*
X016940Y009414D01*
X016940Y009512D02*
X016860Y009512D01*
X016860Y009611D02*
X016940Y009611D01*
X016940Y009709D02*
X016860Y009709D01*
X016860Y009808D02*
X016940Y009808D01*
X016940Y009906D02*
X016860Y009906D01*
X016860Y010005D02*
X016940Y010005D01*
X016940Y010103D02*
X016860Y010103D01*
X016860Y010202D02*
X016940Y010202D01*
X016940Y010300D02*
X016860Y010300D01*
X016860Y010399D02*
X016940Y010399D01*
X016940Y010497D02*
X016860Y010497D01*
X016860Y010596D02*
X016940Y010596D01*
X016940Y010694D02*
X016860Y010694D01*
X016860Y010793D02*
X016940Y010793D01*
X016940Y010891D02*
X016860Y010891D01*
X016860Y010990D02*
X016940Y010990D01*
X016940Y011088D02*
X016809Y011088D01*
X016710Y011187D02*
X016940Y011187D01*
X016940Y011285D02*
X016612Y011285D01*
X016513Y011384D02*
X016919Y011384D01*
X016821Y011482D02*
X016415Y011482D01*
X016316Y011581D02*
X016722Y011581D01*
X016624Y011679D02*
X006176Y011679D01*
X006078Y011581D02*
X009984Y011581D01*
X009885Y011482D02*
X005979Y011482D01*
X005881Y011384D02*
X009787Y011384D01*
X009692Y011285D02*
X005782Y011285D01*
X005684Y011187D02*
X009692Y011187D01*
X009692Y011088D02*
X005585Y011088D01*
X005487Y010990D02*
X009692Y010990D01*
X009486Y010891D02*
X008566Y010891D01*
X008558Y010899D02*
X007742Y010899D01*
X007666Y010823D01*
X007666Y009928D01*
X007742Y009851D01*
X008558Y009851D01*
X008634Y009928D01*
X008634Y010823D01*
X008558Y010899D01*
X008634Y010793D02*
X009418Y010793D01*
X009418Y010694D02*
X008634Y010694D01*
X008634Y010596D02*
X009418Y010596D01*
X009418Y010497D02*
X008634Y010497D01*
X008634Y010399D02*
X009418Y010399D01*
X009418Y010300D02*
X008634Y010300D01*
X008634Y010202D02*
X009418Y010202D01*
X009418Y010103D02*
X008634Y010103D01*
X008634Y010005D02*
X009418Y010005D01*
X009439Y009906D02*
X008613Y009906D01*
X007687Y009906D02*
X006861Y009906D01*
X006882Y010005D02*
X007666Y010005D01*
X007666Y010103D02*
X006882Y010103D01*
X006882Y010202D02*
X007666Y010202D01*
X007666Y010300D02*
X006882Y010300D01*
X006882Y010399D02*
X007666Y010399D01*
X007666Y010497D02*
X006882Y010497D01*
X006882Y010596D02*
X007666Y010596D01*
X007666Y010694D02*
X006882Y010694D01*
X006882Y010793D02*
X007666Y010793D01*
X007734Y010891D02*
X006814Y010891D01*
X005982Y010891D02*
X005388Y010891D01*
X005290Y010793D02*
X005914Y010793D01*
X005914Y010694D02*
X005191Y010694D01*
X005130Y010596D02*
X005914Y010596D01*
X005914Y010497D02*
X005130Y010497D01*
X005130Y010399D02*
X005914Y010399D01*
X005914Y010300D02*
X005130Y010300D01*
X005130Y010202D02*
X005914Y010202D01*
X005914Y010103D02*
X005130Y010103D01*
X005130Y010005D02*
X005914Y010005D01*
X005935Y009906D02*
X005109Y009906D01*
X004183Y009906D02*
X003357Y009906D01*
X003378Y009928D02*
X003378Y010823D01*
X003302Y010899D01*
X003104Y010899D01*
X003104Y012293D01*
X002978Y012419D01*
X002978Y012586D01*
X002786Y012778D01*
X002514Y012778D01*
X002322Y012586D01*
X002322Y012314D01*
X002514Y012122D01*
X002681Y012122D01*
X002684Y012119D01*
X002684Y010899D01*
X002486Y010899D01*
X002410Y010823D01*
X002410Y009928D01*
X002486Y009851D01*
X003302Y009851D01*
X003378Y009928D01*
X003378Y010005D02*
X004162Y010005D01*
X004162Y010103D02*
X003378Y010103D01*
X003378Y010202D02*
X004162Y010202D01*
X004162Y010300D02*
X003378Y010300D01*
X003378Y010399D02*
X004162Y010399D01*
X004162Y010497D02*
X003378Y010497D01*
X003378Y010596D02*
X004162Y010596D01*
X004162Y010694D02*
X003378Y010694D01*
X003378Y010793D02*
X004162Y010793D01*
X004230Y010891D02*
X003310Y010891D01*
X003104Y010990D02*
X004893Y010990D01*
X004991Y011088D02*
X003104Y011088D01*
X003104Y011187D02*
X005090Y011187D01*
X005188Y011285D02*
X003104Y011285D01*
X003104Y011384D02*
X005287Y011384D01*
X005385Y011482D02*
X003104Y011482D01*
X003104Y011581D02*
X005484Y011581D01*
X005582Y011679D02*
X003104Y011679D01*
X003104Y011778D02*
X005681Y011778D01*
X005779Y011876D02*
X003104Y011876D01*
X003104Y011975D02*
X005878Y011975D01*
X005976Y012073D02*
X003104Y012073D01*
X003104Y012172D02*
X016724Y012172D01*
X016683Y012270D02*
X003104Y012270D01*
X003028Y012369D02*
X016650Y012369D01*
X016650Y012467D02*
X002978Y012467D01*
X002978Y012566D02*
X016657Y012566D01*
X016697Y012664D02*
X002900Y012664D01*
X002801Y012763D02*
X016755Y012763D01*
X016854Y012861D02*
X001446Y012861D01*
X001433Y012874D02*
X001249Y012950D01*
X001051Y012950D01*
X000867Y012874D01*
X000726Y012733D01*
X000650Y012549D01*
X000650Y012351D01*
X000726Y012167D01*
X000867Y012026D01*
X001051Y011950D01*
X001249Y011950D01*
X001433Y012026D01*
X001574Y012167D01*
X001650Y012351D01*
X001650Y012549D01*
X001574Y012733D01*
X001433Y012874D01*
X001545Y012763D02*
X002499Y012763D01*
X002400Y012664D02*
X001603Y012664D01*
X001643Y012566D02*
X002322Y012566D01*
X002322Y012467D02*
X001650Y012467D01*
X001650Y012369D02*
X002322Y012369D01*
X002366Y012270D02*
X001617Y012270D01*
X001576Y012172D02*
X002464Y012172D01*
X002684Y012073D02*
X001480Y012073D01*
X001309Y011975D02*
X002684Y011975D01*
X002684Y011876D02*
X000600Y011876D01*
X000600Y011778D02*
X002684Y011778D01*
X002684Y011679D02*
X000600Y011679D01*
X000600Y011581D02*
X002684Y011581D01*
X002684Y011482D02*
X000600Y011482D01*
X000600Y011384D02*
X002684Y011384D01*
X002684Y011285D02*
X000600Y011285D01*
X000600Y011187D02*
X002684Y011187D01*
X002684Y011088D02*
X000600Y011088D01*
X000600Y010990D02*
X002684Y010990D01*
X002478Y010891D02*
X000600Y010891D01*
X000600Y010793D02*
X002410Y010793D01*
X002410Y010694D02*
X000600Y010694D01*
X000600Y010596D02*
X002410Y010596D01*
X002410Y010497D02*
X000600Y010497D01*
X000600Y010399D02*
X002410Y010399D01*
X002410Y010300D02*
X000600Y010300D01*
X000600Y010202D02*
X002410Y010202D01*
X002410Y010103D02*
X001952Y010103D01*
X001981Y010075D02*
X001905Y010151D01*
X001010Y010151D01*
X000933Y010075D01*
X000933Y009258D01*
X001010Y009182D01*
X001475Y009182D01*
X001987Y008670D01*
X002108Y008620D01*
X002716Y008620D01*
X002720Y008622D01*
X002786Y008622D01*
X002832Y008668D01*
X002837Y008670D01*
X002930Y008763D01*
X002932Y008768D01*
X002978Y008814D01*
X002978Y008880D01*
X002980Y008884D01*
X002980Y009016D01*
X002978Y009020D01*
X002978Y009086D01*
X002932Y009132D01*
X002930Y009137D01*
X002837Y009230D01*
X002832Y009232D01*
X002786Y009278D01*
X002720Y009278D01*
X002716Y009280D01*
X002310Y009280D01*
X001981Y009610D01*
X001981Y010075D01*
X001981Y010005D02*
X002410Y010005D01*
X002431Y009906D02*
X001981Y009906D01*
X001981Y009808D02*
X006190Y009808D01*
X006190Y009709D02*
X001981Y009709D01*
X001981Y009611D02*
X006190Y009611D01*
X006190Y009512D02*
X002078Y009512D01*
X002177Y009414D02*
X006190Y009414D01*
X006190Y009315D02*
X002275Y009315D01*
X002850Y009217D02*
X006190Y009217D01*
X006190Y009118D02*
X002946Y009118D01*
X002978Y009020D02*
X006190Y009020D01*
X006190Y008921D02*
X002980Y008921D01*
X002978Y008823D02*
X006190Y008823D01*
X006190Y008724D02*
X002891Y008724D01*
X002790Y008626D02*
X006190Y008626D01*
X006610Y008626D02*
X014319Y008626D01*
X014319Y008724D02*
X006610Y008724D01*
X006610Y008823D02*
X014319Y008823D01*
X014319Y008921D02*
X006610Y008921D01*
X006610Y009020D02*
X014319Y009020D01*
X014319Y009118D02*
X006610Y009118D01*
X006610Y009217D02*
X014319Y009217D01*
X014319Y009315D02*
X006610Y009315D01*
X006610Y009414D02*
X014319Y009414D01*
X014319Y009512D02*
X006610Y009512D01*
X006610Y009611D02*
X014319Y009611D01*
X014319Y009709D02*
X006610Y009709D01*
X006610Y009808D02*
X014319Y009808D01*
X014319Y009906D02*
X013869Y009906D01*
X013890Y009928D02*
X013890Y010823D01*
X013814Y010899D01*
X012998Y010899D01*
X012922Y010823D01*
X012922Y009928D01*
X012998Y009851D01*
X013814Y009851D01*
X013890Y009928D01*
X013890Y010005D02*
X014319Y010005D01*
X014319Y010103D02*
X013890Y010103D01*
X013890Y010202D02*
X014319Y010202D01*
X014319Y010300D02*
X013890Y010300D01*
X013890Y010399D02*
X014319Y010399D01*
X014319Y010497D02*
X013890Y010497D01*
X013890Y010596D02*
X014319Y010596D01*
X014319Y010694D02*
X013890Y010694D01*
X013890Y010793D02*
X014368Y010793D01*
X014395Y010820D02*
X014319Y010744D01*
X014319Y008038D01*
X014395Y007962D01*
X015290Y007962D01*
X015367Y008038D01*
X015367Y010744D01*
X015290Y010820D01*
X014395Y010820D01*
X013822Y010891D02*
X016412Y010891D01*
X016440Y010793D02*
X015318Y010793D01*
X015367Y010694D02*
X016440Y010694D01*
X016440Y010596D02*
X015367Y010596D01*
X015367Y010497D02*
X016440Y010497D01*
X016440Y010399D02*
X015367Y010399D01*
X015367Y010300D02*
X016440Y010300D01*
X016440Y010202D02*
X015367Y010202D01*
X015367Y010103D02*
X016440Y010103D01*
X016440Y010005D02*
X015367Y010005D01*
X015367Y009906D02*
X016440Y009906D01*
X016440Y009808D02*
X015367Y009808D01*
X015367Y009709D02*
X016440Y009709D01*
X016440Y009611D02*
X015367Y009611D01*
X015367Y009512D02*
X016440Y009512D01*
X016440Y009414D02*
X015367Y009414D01*
X015367Y009315D02*
X016440Y009315D01*
X016440Y009217D02*
X015367Y009217D01*
X015367Y009118D02*
X016440Y009118D01*
X016440Y009020D02*
X015367Y009020D01*
X015367Y008921D02*
X016440Y008921D01*
X016440Y008823D02*
X015367Y008823D01*
X015367Y008724D02*
X016440Y008724D01*
X016440Y008626D02*
X015367Y008626D01*
X015367Y008527D02*
X016440Y008527D01*
X016440Y008429D02*
X015367Y008429D01*
X015367Y008330D02*
X016440Y008330D01*
X016440Y008232D02*
X015367Y008232D01*
X015367Y008133D02*
X016440Y008133D01*
X016440Y008035D02*
X015363Y008035D01*
X014323Y008035D02*
X008110Y008035D01*
X008012Y008133D02*
X014319Y008133D01*
X014319Y008232D02*
X007978Y008232D01*
X007978Y008330D02*
X014319Y008330D01*
X014319Y008429D02*
X007884Y008429D01*
X007416Y008429D02*
X006610Y008429D01*
X006610Y008527D02*
X014319Y008527D01*
X012943Y009906D02*
X012117Y009906D01*
X012138Y009928D02*
X012138Y010823D01*
X012062Y010899D01*
X011246Y010899D01*
X011170Y010823D01*
X011170Y009928D01*
X011246Y009851D01*
X012062Y009851D01*
X012138Y009928D01*
X012138Y010005D02*
X012922Y010005D01*
X012922Y010103D02*
X012138Y010103D01*
X012138Y010202D02*
X012922Y010202D01*
X012922Y010300D02*
X012138Y010300D01*
X012138Y010399D02*
X012922Y010399D01*
X012922Y010497D02*
X012138Y010497D01*
X012138Y010596D02*
X012922Y010596D01*
X012922Y010694D02*
X012138Y010694D01*
X012138Y010793D02*
X012922Y010793D01*
X012990Y010891D02*
X012070Y010891D01*
X011238Y010891D02*
X010318Y010891D01*
X010386Y010793D02*
X011170Y010793D01*
X011170Y010694D02*
X010386Y010694D01*
X010386Y010596D02*
X011170Y010596D01*
X011170Y010497D02*
X010386Y010497D01*
X010386Y010399D02*
X011170Y010399D01*
X011170Y010300D02*
X010386Y010300D01*
X010386Y010202D02*
X011170Y010202D01*
X011170Y010103D02*
X010386Y010103D01*
X010386Y010005D02*
X011170Y010005D01*
X011191Y009906D02*
X010365Y009906D01*
X010112Y010990D02*
X016313Y010990D01*
X016215Y011088D02*
X010112Y011088D01*
X010184Y011187D02*
X016116Y011187D01*
X017021Y011876D02*
X017692Y011876D01*
X017692Y011778D02*
X017119Y011778D01*
X017218Y011679D02*
X017692Y011679D01*
X017692Y011581D02*
X017316Y011581D01*
X017360Y011482D02*
X017692Y011482D01*
X017692Y011384D02*
X017360Y011384D01*
X017360Y011285D02*
X017692Y011285D01*
X017692Y011187D02*
X017360Y011187D01*
X017360Y011088D02*
X017692Y011088D01*
X017692Y010990D02*
X017360Y010990D01*
X017360Y010891D02*
X017692Y010891D01*
X017692Y010793D02*
X017360Y010793D01*
X017360Y010694D02*
X017692Y010694D01*
X017692Y010596D02*
X017360Y010596D01*
X017360Y010497D02*
X017692Y010497D01*
X017692Y010399D02*
X017360Y010399D01*
X017360Y010300D02*
X017692Y010300D01*
X017692Y010202D02*
X017360Y010202D01*
X017360Y010103D02*
X017692Y010103D01*
X017692Y010005D02*
X017360Y010005D01*
X017360Y009906D02*
X017692Y009906D01*
X017692Y009808D02*
X017360Y009808D01*
X017360Y009709D02*
X017692Y009709D01*
X017692Y009611D02*
X017360Y009611D01*
X017360Y009512D02*
X017692Y009512D01*
X017692Y009414D02*
X017360Y009414D01*
X017360Y009315D02*
X017692Y009315D01*
X017692Y009217D02*
X017360Y009217D01*
X017360Y009118D02*
X017692Y009118D01*
X017692Y009020D02*
X017360Y009020D01*
X017360Y008921D02*
X017692Y008921D01*
X017692Y008823D02*
X017360Y008823D01*
X017360Y008724D02*
X017692Y008724D01*
X017692Y008626D02*
X017360Y008626D01*
X017360Y008527D02*
X017692Y008527D01*
X017692Y008429D02*
X017360Y008429D01*
X017360Y008330D02*
X017692Y008330D01*
X017692Y008232D02*
X017360Y008232D01*
X017360Y008133D02*
X017692Y008133D01*
X017692Y008035D02*
X017360Y008035D01*
X017360Y007936D02*
X017692Y007936D01*
X017692Y007838D02*
X017360Y007838D01*
X017360Y007739D02*
X017692Y007739D01*
X017692Y007641D02*
X017360Y007641D01*
X017360Y007542D02*
X017692Y007542D01*
X017692Y007444D02*
X017360Y007444D01*
X017360Y007345D02*
X017692Y007345D01*
X017692Y007247D02*
X017360Y007247D01*
X017360Y007148D02*
X017692Y007148D01*
X017692Y007050D02*
X017360Y007050D01*
X017360Y006951D02*
X017692Y006951D01*
X017692Y006853D02*
X017360Y006853D01*
X017360Y006754D02*
X017692Y006754D01*
X017692Y006656D02*
X017360Y006656D01*
X017360Y006557D02*
X017692Y006557D01*
X017692Y006459D02*
X017360Y006459D01*
X017360Y006360D02*
X017692Y006360D01*
X017692Y006262D02*
X017360Y006262D01*
X017360Y006163D02*
X017692Y006163D01*
X017692Y006065D02*
X017360Y006065D01*
X017360Y005966D02*
X017692Y005966D01*
X017692Y005868D02*
X017360Y005868D01*
X017360Y005769D02*
X017692Y005769D01*
X017692Y005671D02*
X017360Y005671D01*
X017360Y005572D02*
X017692Y005572D01*
X017692Y005474D02*
X017360Y005474D01*
X017360Y005375D02*
X017692Y005375D01*
X017692Y005277D02*
X017360Y005277D01*
X017360Y005178D02*
X017692Y005178D01*
X017692Y005080D02*
X017360Y005080D01*
X017360Y004981D02*
X017692Y004981D01*
X017692Y004883D02*
X017360Y004883D01*
X017360Y004784D02*
X017692Y004784D01*
X017692Y004686D02*
X017360Y004686D01*
X017360Y004587D02*
X017692Y004587D01*
X017692Y004489D02*
X017360Y004489D01*
X017360Y004390D02*
X017692Y004390D01*
X017692Y004292D02*
X017360Y004292D01*
X017360Y004193D02*
X017692Y004193D01*
X017692Y004095D02*
X017360Y004095D01*
X017360Y003996D02*
X017692Y003996D01*
X017692Y003898D02*
X017360Y003898D01*
X017296Y003799D02*
X017692Y003799D01*
X017692Y003701D02*
X017197Y003701D01*
X017099Y003602D02*
X017692Y003602D01*
X017692Y003504D02*
X017000Y003504D01*
X016902Y003405D02*
X017692Y003405D01*
X017692Y003307D02*
X016803Y003307D01*
X016705Y003208D02*
X017692Y003208D01*
X017692Y003110D02*
X016606Y003110D01*
X016508Y003011D02*
X017692Y003011D01*
X017692Y002913D02*
X016409Y002913D01*
X016311Y002814D02*
X017692Y002814D01*
X017692Y002716D02*
X016212Y002716D01*
X016114Y002617D02*
X017692Y002617D01*
X017692Y002519D02*
X016015Y002519D01*
X015917Y002420D02*
X017692Y002420D01*
X017692Y002322D02*
X015818Y002322D01*
X015720Y002223D02*
X017692Y002223D01*
X017692Y002125D02*
X017370Y002125D01*
X017482Y002026D02*
X017692Y002026D01*
X017692Y001928D02*
X017542Y001928D01*
X017580Y001829D02*
X017692Y001829D01*
X017692Y001731D02*
X017580Y001731D01*
X017580Y001632D02*
X017692Y001632D01*
X017692Y001534D02*
X017580Y001534D01*
X017580Y001435D02*
X017692Y001435D01*
X017692Y001337D02*
X017580Y001337D01*
X017580Y001238D02*
X017692Y001238D01*
X017692Y001140D02*
X017580Y001140D01*
X017570Y001041D02*
X017605Y001041D01*
X016771Y000943D02*
X016529Y000943D01*
X016570Y001041D02*
X016730Y001041D01*
X016720Y001140D02*
X016580Y001140D01*
X016580Y001238D02*
X016720Y001238D01*
X016720Y001337D02*
X016580Y001337D01*
X016580Y001435D02*
X016720Y001435D01*
X016720Y001534D02*
X016580Y001534D01*
X016580Y001632D02*
X016720Y001632D01*
X016720Y001731D02*
X016580Y001731D01*
X016580Y001829D02*
X016720Y001829D01*
X016758Y001928D02*
X016542Y001928D01*
X016482Y002026D02*
X016818Y002026D01*
X016930Y002125D02*
X016370Y002125D01*
X015930Y002125D02*
X015621Y002125D01*
X015523Y002026D02*
X015818Y002026D01*
X015758Y001928D02*
X015542Y001928D01*
X015580Y001829D02*
X015720Y001829D01*
X015720Y001731D02*
X015580Y001731D01*
X015580Y001632D02*
X015720Y001632D01*
X015720Y001534D02*
X015580Y001534D01*
X015580Y001435D02*
X015720Y001435D01*
X015720Y001337D02*
X015580Y001337D01*
X015580Y001238D02*
X015720Y001238D01*
X015720Y001140D02*
X015580Y001140D01*
X015570Y001041D02*
X015730Y001041D01*
X015771Y000943D02*
X015529Y000943D01*
X016860Y003996D02*
X016899Y003996D01*
X016860Y004095D02*
X016940Y004095D01*
X016940Y004193D02*
X016860Y004193D01*
X016860Y004292D02*
X016940Y004292D01*
X016940Y004390D02*
X016860Y004390D01*
X016860Y004489D02*
X016940Y004489D01*
X016940Y004587D02*
X016860Y004587D01*
X016860Y004686D02*
X016940Y004686D01*
X016940Y004784D02*
X016860Y004784D01*
X016860Y004883D02*
X016940Y004883D01*
X016940Y004981D02*
X016860Y004981D01*
X016860Y005080D02*
X016940Y005080D01*
X016940Y005178D02*
X016860Y005178D01*
X016860Y005277D02*
X016940Y005277D01*
X016940Y005375D02*
X016860Y005375D01*
X016860Y005474D02*
X016940Y005474D01*
X016940Y005572D02*
X016860Y005572D01*
X016440Y007444D02*
X008701Y007444D01*
X008603Y007542D02*
X016440Y007542D01*
X016440Y007641D02*
X008504Y007641D01*
X008406Y007739D02*
X016440Y007739D01*
X016440Y007838D02*
X008307Y007838D01*
X008209Y007936D02*
X016440Y007936D01*
X016922Y011975D02*
X016991Y011975D01*
X017309Y011975D02*
X017692Y011975D01*
X017692Y012073D02*
X017480Y012073D01*
X017576Y012172D02*
X017692Y012172D01*
X017692Y012270D02*
X017617Y012270D01*
X017650Y012369D02*
X017692Y012369D01*
X017692Y012467D02*
X017650Y012467D01*
X017643Y012566D02*
X017692Y012566D01*
X017692Y012664D02*
X017603Y012664D01*
X017545Y012763D02*
X017692Y012763D01*
X017603Y012861D02*
X017446Y012861D01*
X017504Y012960D02*
X000796Y012960D01*
X000854Y012861D02*
X000697Y012861D01*
X000755Y012763D02*
X000600Y012763D01*
X000600Y012664D02*
X000697Y012664D01*
X000657Y012566D02*
X000600Y012566D01*
X000600Y012467D02*
X000650Y012467D01*
X000650Y012369D02*
X000600Y012369D01*
X000600Y012270D02*
X000683Y012270D01*
X000724Y012172D02*
X000600Y012172D01*
X000600Y012073D02*
X000820Y012073D01*
X000991Y011975D02*
X000600Y011975D01*
X000600Y010103D02*
X000962Y010103D01*
X000933Y010005D02*
X000600Y010005D01*
X000600Y009906D02*
X000933Y009906D01*
X000933Y009808D02*
X000600Y009808D01*
X000600Y009709D02*
X000933Y009709D01*
X000933Y009611D02*
X000600Y009611D01*
X000600Y009512D02*
X000933Y009512D01*
X000933Y009414D02*
X000600Y009414D01*
X000600Y009315D02*
X000933Y009315D01*
X000975Y009217D02*
X000600Y009217D01*
X000600Y009118D02*
X001539Y009118D01*
X001637Y009020D02*
X000600Y009020D01*
X000600Y008921D02*
X001736Y008921D01*
X001834Y008823D02*
X000600Y008823D01*
X000600Y008724D02*
X001933Y008724D01*
X002095Y008626D02*
X000600Y008626D01*
X000600Y008330D02*
X000972Y008330D01*
X000914Y008232D02*
X000600Y008232D01*
X000600Y008133D02*
X000913Y008133D01*
X000913Y008035D02*
X000600Y008035D01*
X000600Y007936D02*
X000913Y007936D01*
X001407Y007936D02*
X001507Y007936D01*
X001507Y008035D02*
X001407Y008035D01*
X001407Y008133D02*
X001507Y008133D01*
X001507Y008232D02*
X001407Y008232D01*
X001407Y008330D02*
X001507Y008330D01*
X002001Y007739D02*
X002193Y007739D01*
X002193Y007641D02*
X002001Y007641D01*
X002001Y007542D02*
X002193Y007542D01*
X002193Y007444D02*
X001991Y007444D01*
X001507Y006459D02*
X001407Y006459D01*
X001407Y006360D02*
X001507Y006360D01*
X001507Y006262D02*
X001407Y006262D01*
X001407Y005966D02*
X001507Y005966D01*
X001507Y005868D02*
X001407Y005868D01*
X001407Y005769D02*
X001507Y005769D01*
X001507Y005671D02*
X001407Y005671D01*
X001407Y005572D02*
X001507Y005572D01*
X006610Y006754D02*
X008797Y006754D01*
X008699Y006853D02*
X006610Y006853D01*
X006610Y006951D02*
X008600Y006951D01*
X008502Y007050D02*
X006610Y007050D01*
X006610Y007148D02*
X008403Y007148D01*
X008305Y007247D02*
X006610Y007247D01*
X006610Y007345D02*
X008206Y007345D01*
X008108Y007444D02*
X006610Y007444D01*
X006610Y007542D02*
X008009Y007542D01*
X007911Y007641D02*
X006610Y007641D01*
X006610Y007739D02*
X007812Y007739D01*
X007714Y007838D02*
X006610Y007838D01*
X006610Y007936D02*
X007448Y007936D01*
X007349Y008035D02*
X006610Y008035D01*
X006610Y008133D02*
X007322Y008133D01*
X007322Y008232D02*
X006610Y008232D01*
X006610Y008330D02*
X007322Y008330D01*
D18*
X007650Y008198D03*
X006400Y006200D03*
X004150Y004950D03*
X001650Y006950D03*
X002650Y008950D03*
X001650Y011450D03*
X002650Y012450D03*
X005650Y012450D03*
X011150Y006950D03*
X011650Y004950D03*
X008900Y002200D03*
X016150Y005450D03*
X016150Y008950D03*
X013150Y012450D03*
D19*
X010150Y011450D02*
X016150Y011450D01*
X016650Y010950D01*
X016650Y003950D01*
X015150Y002450D01*
X014650Y002450D01*
X014150Y001950D01*
X014150Y001450D01*
X015150Y001450D02*
X015150Y001950D01*
X017150Y003950D01*
X017150Y011450D01*
X016650Y011950D01*
X006150Y011950D01*
X004646Y010446D01*
X004646Y010375D01*
X006398Y010375D02*
X006400Y010373D01*
X006400Y006200D01*
X004150Y004950D02*
X002894Y003694D01*
X002894Y003525D01*
X007650Y008198D02*
X008898Y006950D01*
X011150Y006950D01*
X012150Y006950D02*
X015650Y006950D01*
X016150Y006450D01*
X016150Y005450D01*
X013406Y003525D02*
X013406Y002706D01*
X013150Y002450D01*
X013150Y001450D01*
X011654Y003525D02*
X011654Y004946D01*
X011650Y004950D01*
X009902Y004702D02*
X012150Y006950D01*
X009902Y004702D02*
X009902Y003525D01*
X009902Y010375D02*
X009902Y011202D01*
X010150Y011450D01*
X002894Y012206D02*
X002894Y010375D01*
X002894Y012206D02*
X002650Y012450D01*
D20*
X001457Y009667D02*
X002174Y008950D01*
X002650Y008950D01*
M02*
