G75*
%MOIN*%
%OFA0B0*%
%FSLAX24Y24*%
%IPPOS*%
%LPD*%
%AMOC8*
5,1,8,0,0,1.08239X$1,22.5*
%
%ADD10C,0.0680*%
%ADD11R,0.0631X0.0631*%
%ADD12R,0.0671X0.0592*%
%ADD13R,0.0592X0.0671*%
%ADD14R,0.0474X0.0631*%
%ADD15C,0.0820*%
%ADD16OC8,0.0476*%
D10*
X002150Y000850D02*
X002150Y001450D01*
X003150Y001450D02*
X003150Y000850D01*
X004150Y000850D02*
X004150Y001450D01*
X010150Y001450D02*
X010150Y000850D01*
X011150Y000850D02*
X011150Y001450D01*
X012150Y001450D02*
X012150Y000850D01*
X013150Y000850D02*
X013150Y001450D01*
X014150Y001450D02*
X014150Y000850D01*
X015150Y000850D02*
X015150Y001450D01*
X016150Y001450D02*
X016150Y000850D01*
X017150Y000850D02*
X017150Y001450D01*
D11*
X008650Y006402D03*
X008650Y007898D03*
D12*
X007650Y006985D03*
X007650Y006315D03*
X007650Y004985D03*
X007650Y004315D03*
X007650Y002985D03*
X007650Y002315D03*
X010150Y006315D03*
X010150Y006985D03*
X016150Y003985D03*
X016150Y003315D03*
X017150Y003315D03*
X017150Y003985D03*
X001400Y007565D03*
X001400Y008235D03*
D13*
G36*
X002690Y007583D02*
X003109Y007164D01*
X002636Y006691D01*
X002217Y007110D01*
X002690Y007583D01*
G37*
G36*
X003164Y007109D02*
X003583Y006690D01*
X003110Y006217D01*
X002691Y006636D01*
X003164Y007109D01*
G37*
X001735Y005900D03*
X001065Y005900D03*
G36*
X003109Y004886D02*
X002690Y004467D01*
X002217Y004940D01*
X002636Y005359D01*
X003109Y004886D01*
G37*
G36*
X003583Y005360D02*
X003164Y004941D01*
X002691Y005414D01*
X003110Y005833D01*
X003583Y005360D01*
G37*
X004065Y004150D03*
X004735Y004150D03*
G36*
X003164Y003609D02*
X003583Y003190D01*
X003110Y002717D01*
X002691Y003136D01*
X003164Y003609D01*
G37*
G36*
X002690Y004083D02*
X003109Y003664D01*
X002636Y003191D01*
X002217Y003610D01*
X002690Y004083D01*
G37*
X001735Y002650D03*
X001065Y002650D03*
X011815Y005650D03*
X012485Y005650D03*
X004485Y012150D03*
X003815Y012150D03*
D14*
X011776Y006717D03*
X012524Y006717D03*
X012150Y007583D03*
X006524Y003717D03*
X005776Y003717D03*
X006150Y004583D03*
D15*
X001150Y012150D03*
X017150Y012150D03*
D16*
X016150Y012150D03*
X016150Y010150D03*
X013150Y012150D03*
X009400Y012150D03*
X005650Y012150D03*
X002650Y012150D03*
X001650Y010900D03*
X005650Y008650D03*
X007650Y007898D03*
X006400Y005900D03*
X004150Y005150D03*
X001650Y004900D03*
X001650Y006650D03*
X006150Y001900D03*
X008900Y001900D03*
X011650Y004650D03*
X011150Y006650D03*
X016150Y007400D03*
X016150Y005150D03*
M02*
