G75*
%MOIN*%
%OFA0B0*%
%FSLAX24Y24*%
%IPPOS*%
%LPD*%
%AMOC8*
5,1,8,0,0,1.08239X$1,22.5*
%
%ADD10C,0.0600*%
%ADD11R,0.0551X0.0551*%
%ADD12R,0.0591X0.0512*%
%ADD13R,0.0512X0.0591*%
%ADD14R,0.0394X0.0551*%
%ADD15C,0.0740*%
%ADD16C,0.0160*%
%ADD17C,0.0100*%
%ADD18OC8,0.0396*%
%ADD19C,0.0400*%
D10*
X002150Y000850D02*
X002150Y001450D01*
X003150Y001450D02*
X003150Y000850D01*
X004150Y000850D02*
X004150Y001450D01*
X010150Y001450D02*
X010150Y000850D01*
X011150Y000850D02*
X011150Y001450D01*
X012150Y001450D02*
X012150Y000850D01*
X013150Y000850D02*
X013150Y001450D01*
X014150Y001450D02*
X014150Y000850D01*
X015150Y000850D02*
X015150Y001450D01*
X016150Y001450D02*
X016150Y000850D01*
X017150Y000850D02*
X017150Y001450D01*
D11*
X008650Y006402D03*
X008650Y007898D03*
D12*
X007650Y006985D03*
X007650Y006315D03*
X007650Y004985D03*
X007650Y004315D03*
X007650Y002985D03*
X007650Y002315D03*
X010150Y006315D03*
X010150Y006985D03*
X016150Y003985D03*
X016150Y003315D03*
X017150Y003315D03*
X017150Y003985D03*
X001400Y007565D03*
X001400Y008235D03*
D13*
G36*
X002690Y007526D02*
X003052Y007164D01*
X002636Y006748D01*
X002274Y007110D01*
X002690Y007526D01*
G37*
G36*
X003164Y007052D02*
X003526Y006690D01*
X003110Y006274D01*
X002748Y006636D01*
X003164Y007052D01*
G37*
X001735Y005900D03*
X001065Y005900D03*
G36*
X003052Y004886D02*
X002690Y004524D01*
X002274Y004940D01*
X002636Y005302D01*
X003052Y004886D01*
G37*
G36*
X003526Y005360D02*
X003164Y004998D01*
X002748Y005414D01*
X003110Y005776D01*
X003526Y005360D01*
G37*
X004065Y004150D03*
X004735Y004150D03*
G36*
X003164Y003552D02*
X003526Y003190D01*
X003110Y002774D01*
X002748Y003136D01*
X003164Y003552D01*
G37*
G36*
X002690Y004026D02*
X003052Y003664D01*
X002636Y003248D01*
X002274Y003610D01*
X002690Y004026D01*
G37*
X001735Y002650D03*
X001065Y002650D03*
X011815Y005650D03*
X012485Y005650D03*
X004485Y012150D03*
X003815Y012150D03*
D14*
X011776Y006717D03*
X012524Y006717D03*
X012150Y007583D03*
X006524Y003717D03*
X005776Y003717D03*
X006150Y004583D03*
D15*
X001150Y012150D03*
X017150Y012150D03*
D16*
X013217Y007583D02*
X012150Y007583D01*
X010748Y007583D01*
X010150Y006985D01*
X011150Y006650D02*
X011217Y006717D01*
X011776Y006717D01*
X011776Y005689D01*
X011815Y005650D01*
X012485Y005650D02*
X012524Y005689D01*
X012524Y006717D01*
X013217Y007583D02*
X014650Y006150D01*
X014650Y003650D01*
X016150Y002150D01*
X016150Y001150D01*
X017150Y001150D02*
X017150Y003315D01*
X017150Y003985D02*
X016150Y003985D01*
X016150Y005150D01*
X012485Y004985D02*
X012150Y004650D01*
X011650Y004650D01*
X012485Y004985D02*
X012485Y005650D01*
X008650Y005150D02*
X008485Y004985D01*
X007650Y004985D01*
X007565Y004400D02*
X006900Y004400D01*
X006717Y004583D01*
X006150Y004583D01*
X006150Y005650D01*
X006400Y005900D01*
X007565Y004400D02*
X007650Y004315D01*
X005900Y003593D02*
X005900Y003150D01*
X006065Y002985D01*
X007650Y002985D01*
X007650Y002315D02*
X007650Y001650D01*
X008150Y001150D01*
X010150Y001150D01*
X005900Y003593D02*
X005776Y003717D01*
X004065Y004150D02*
X002649Y004150D01*
X002663Y003637D01*
X002649Y004150D02*
X002663Y004913D01*
X003137Y005387D02*
X003151Y005900D01*
X001735Y005900D01*
X003151Y005900D02*
X003137Y006663D01*
X002663Y007137D02*
X003177Y007650D01*
X003400Y007650D01*
X004150Y006900D01*
X004150Y005150D01*
X003137Y003163D02*
X003151Y002650D01*
X001735Y002650D01*
X003151Y002650D02*
X003151Y001151D01*
X003150Y001150D01*
X002663Y007137D02*
X002235Y007565D01*
X001400Y007565D01*
X002650Y012150D02*
X003815Y012150D01*
D17*
X001751Y000643D02*
X000794Y000643D01*
X000836Y000600D02*
X000600Y000836D01*
X000600Y012464D01*
X000836Y012700D01*
X017464Y012700D01*
X017692Y012471D01*
X017692Y000829D01*
X017546Y000682D01*
X017580Y000764D01*
X017580Y001536D01*
X017515Y001694D01*
X017394Y001815D01*
X017360Y001828D01*
X017360Y002929D01*
X017499Y002929D01*
X017575Y003006D01*
X017575Y003625D01*
X017550Y003650D01*
X017575Y003675D01*
X017575Y004294D01*
X017499Y004371D01*
X016801Y004371D01*
X016725Y004294D01*
X016725Y004195D01*
X016575Y004195D01*
X016575Y004294D01*
X016499Y004371D01*
X016360Y004371D01*
X016360Y004896D01*
X016478Y005014D01*
X016478Y005286D01*
X016286Y005478D01*
X016014Y005478D01*
X015822Y005286D01*
X015822Y005014D01*
X015940Y004896D01*
X015940Y004371D01*
X015801Y004371D01*
X015725Y004294D01*
X015725Y003675D01*
X015735Y003664D01*
X015735Y003663D01*
X015715Y003629D01*
X015705Y003591D01*
X015705Y003365D01*
X016100Y003365D01*
X016100Y003265D01*
X016200Y003265D01*
X016200Y002909D01*
X016465Y002909D01*
X016503Y002920D01*
X016537Y002939D01*
X016565Y002967D01*
X016585Y003002D01*
X016595Y003040D01*
X016595Y003265D01*
X016200Y003265D01*
X016200Y003365D01*
X016595Y003365D01*
X016595Y003591D01*
X016585Y003629D01*
X016565Y003663D01*
X016565Y003664D01*
X016575Y003675D01*
X016575Y003775D01*
X016725Y003775D01*
X016725Y003675D01*
X016750Y003650D01*
X016725Y003625D01*
X016725Y003006D01*
X016801Y002929D01*
X016940Y002929D01*
X016940Y001828D01*
X016906Y001815D01*
X016785Y001694D01*
X016720Y001536D01*
X016720Y000764D01*
X016785Y000606D01*
X016792Y000600D01*
X016508Y000600D01*
X016515Y000606D01*
X016580Y000764D01*
X016580Y001536D01*
X016515Y001694D01*
X016394Y001815D01*
X016360Y001828D01*
X016360Y002237D01*
X016237Y002360D01*
X014860Y003737D01*
X014860Y006237D01*
X014737Y006360D01*
X014737Y006360D01*
X013427Y007670D01*
X013427Y007670D01*
X013304Y007793D01*
X012477Y007793D01*
X012477Y007913D01*
X012401Y007989D01*
X011899Y007989D01*
X011823Y007913D01*
X011823Y007793D01*
X010661Y007793D01*
X010538Y007670D01*
X010239Y007371D01*
X009801Y007371D01*
X009725Y007294D01*
X009725Y006675D01*
X009750Y006650D01*
X009745Y006645D01*
X009056Y006645D01*
X009056Y006731D01*
X008979Y006808D01*
X008321Y006808D01*
X008244Y006731D01*
X008244Y006073D01*
X008320Y005997D01*
X008320Y005195D01*
X008075Y005195D01*
X008075Y005294D01*
X007999Y005371D01*
X007301Y005371D01*
X007225Y005294D01*
X007225Y004675D01*
X007250Y004650D01*
X007225Y004625D01*
X007225Y004610D01*
X006987Y004610D01*
X006804Y004793D01*
X006477Y004793D01*
X006477Y004913D01*
X006401Y004989D01*
X006360Y004989D01*
X006360Y005563D01*
X006369Y005572D01*
X006536Y005572D01*
X006728Y005764D01*
X006728Y006036D01*
X006536Y006228D01*
X006264Y006228D01*
X006072Y006036D01*
X006072Y005869D01*
X005940Y005737D01*
X005940Y004989D01*
X005899Y004989D01*
X005823Y004913D01*
X005823Y004254D01*
X005899Y004177D01*
X006401Y004177D01*
X006477Y004254D01*
X006477Y004373D01*
X006630Y004373D01*
X006690Y004313D01*
X006813Y004190D01*
X007225Y004190D01*
X007225Y004006D01*
X007301Y003929D01*
X007999Y003929D01*
X008075Y004006D01*
X008075Y004625D01*
X008050Y004650D01*
X008075Y004675D01*
X008075Y004775D01*
X008320Y004775D01*
X008320Y004584D01*
X008370Y004463D01*
X010820Y002013D01*
X010820Y001728D01*
X010785Y001694D01*
X010720Y001536D01*
X010720Y000764D01*
X010785Y000606D01*
X010792Y000600D01*
X010508Y000600D01*
X010515Y000606D01*
X010580Y000764D01*
X010580Y001536D01*
X010515Y001694D01*
X010394Y001815D01*
X010236Y001880D01*
X010064Y001880D01*
X009906Y001815D01*
X009785Y001694D01*
X009720Y001536D01*
X009720Y001360D01*
X008237Y001360D01*
X007860Y001737D01*
X007860Y001929D01*
X007999Y001929D01*
X008075Y002006D01*
X008075Y002625D01*
X008050Y002650D01*
X008075Y002675D01*
X008075Y003294D01*
X007999Y003371D01*
X007301Y003371D01*
X007225Y003294D01*
X007225Y003195D01*
X006152Y003195D01*
X006110Y003237D01*
X006110Y003680D01*
X006103Y003687D01*
X006103Y004046D01*
X006027Y004123D01*
X005525Y004123D01*
X005449Y004046D01*
X005449Y003387D01*
X005525Y003311D01*
X005690Y003311D01*
X005690Y003063D01*
X005813Y002940D01*
X005978Y002775D01*
X007225Y002775D01*
X007225Y002675D01*
X007250Y002650D01*
X007225Y002625D01*
X007225Y002006D01*
X007301Y001929D01*
X007440Y001929D01*
X007440Y001563D01*
X007563Y001440D01*
X008063Y000940D01*
X009720Y000940D01*
X009720Y000764D01*
X009785Y000606D01*
X009792Y000600D01*
X004525Y000600D01*
X004535Y000614D01*
X004567Y000677D01*
X004589Y000745D01*
X004600Y000815D01*
X004600Y001100D01*
X004200Y001100D01*
X004200Y001200D01*
X004100Y001200D01*
X004100Y001898D01*
X004045Y001889D01*
X003977Y001867D01*
X003914Y001835D01*
X003857Y001793D01*
X003807Y001743D01*
X003765Y001686D01*
X003733Y001623D01*
X003711Y001555D01*
X003700Y001485D01*
X003700Y001200D01*
X004100Y001200D01*
X004100Y001100D01*
X003700Y001100D01*
X003700Y000815D01*
X003711Y000745D01*
X003733Y000677D01*
X003765Y000614D01*
X003775Y000600D01*
X003508Y000600D01*
X003515Y000606D01*
X003580Y000764D01*
X003580Y001536D01*
X003515Y001694D01*
X003394Y001815D01*
X003361Y001828D01*
X003361Y002566D01*
X003363Y002569D01*
X003361Y002653D01*
X003361Y002737D01*
X003358Y002739D01*
X003356Y002837D01*
X003656Y003137D01*
X003656Y003245D01*
X003218Y003683D01*
X003183Y003683D01*
X003183Y003718D01*
X002961Y003940D01*
X003679Y003940D01*
X003679Y003801D01*
X003756Y003725D01*
X004375Y003725D01*
X004386Y003735D01*
X004387Y003735D01*
X004421Y003715D01*
X004459Y003705D01*
X004685Y003705D01*
X004685Y004100D01*
X004785Y004100D01*
X004785Y004200D01*
X005141Y004200D01*
X005141Y004465D01*
X005130Y004503D01*
X005111Y004537D01*
X005083Y004565D01*
X005048Y004585D01*
X005010Y004595D01*
X004785Y004595D01*
X004785Y004200D01*
X004685Y004200D01*
X004685Y004595D01*
X004459Y004595D01*
X004421Y004585D01*
X004387Y004565D01*
X004386Y004565D01*
X004375Y004575D01*
X003756Y004575D01*
X003679Y004499D01*
X003679Y004360D01*
X002863Y004360D01*
X002866Y004515D01*
X003183Y004832D01*
X003183Y004867D01*
X003218Y004867D01*
X003656Y005305D01*
X003656Y005413D01*
X003356Y005713D01*
X003358Y005811D01*
X003361Y005813D01*
X003361Y005815D01*
X003362Y005817D01*
X003361Y005899D01*
X003363Y005981D01*
X003361Y005984D01*
X003361Y005987D01*
X003359Y005989D01*
X003353Y006334D01*
X003656Y006637D01*
X003656Y006745D01*
X003218Y007183D01*
X003183Y007183D01*
X003183Y007218D01*
X003113Y007289D01*
X003264Y007440D01*
X003313Y007440D01*
X003940Y006813D01*
X003940Y005404D01*
X003822Y005286D01*
X003822Y005014D01*
X004014Y004822D01*
X004286Y004822D01*
X004478Y005014D01*
X004478Y005286D01*
X004360Y005404D01*
X004360Y006987D01*
X003610Y007737D01*
X003487Y007860D01*
X003090Y007860D01*
X002816Y007586D01*
X002745Y007656D01*
X002637Y007656D01*
X002539Y007558D01*
X002322Y007775D01*
X001825Y007775D01*
X001825Y007875D01*
X001815Y007886D01*
X001815Y007887D01*
X001835Y007921D01*
X001845Y007959D01*
X001845Y008185D01*
X001450Y008185D01*
X001450Y008285D01*
X001350Y008285D01*
X001350Y008641D01*
X001085Y008641D01*
X001047Y008630D01*
X001013Y008611D01*
X000985Y008583D01*
X000965Y008548D01*
X000955Y008510D01*
X000955Y008285D01*
X001350Y008285D01*
X001350Y008185D01*
X000955Y008185D01*
X000955Y007959D01*
X000965Y007921D01*
X000985Y007887D01*
X000985Y007886D01*
X000975Y007875D01*
X000975Y007256D01*
X001051Y007179D01*
X001749Y007179D01*
X001825Y007256D01*
X001825Y007355D01*
X002148Y007355D01*
X002242Y007261D01*
X002144Y007163D01*
X002144Y007055D01*
X002582Y006617D01*
X002617Y006617D01*
X002617Y006582D01*
X002934Y006265D01*
X002937Y006110D01*
X002121Y006110D01*
X002121Y006249D01*
X002044Y006325D01*
X001425Y006325D01*
X001414Y006315D01*
X001413Y006315D01*
X001379Y006335D01*
X001341Y006345D01*
X001115Y006345D01*
X001115Y005950D01*
X001015Y005950D01*
X001015Y005850D01*
X000659Y005850D01*
X000659Y005585D01*
X000670Y005547D01*
X000689Y005513D01*
X000717Y005485D01*
X000752Y005465D01*
X000790Y005455D01*
X001015Y005455D01*
X001015Y005850D01*
X001115Y005850D01*
X001115Y005455D01*
X001341Y005455D01*
X001379Y005465D01*
X001413Y005485D01*
X001414Y005485D01*
X001425Y005475D01*
X002044Y005475D01*
X002121Y005551D01*
X002121Y005690D01*
X002839Y005690D01*
X002617Y005468D01*
X002617Y005433D01*
X002582Y005433D01*
X002144Y004995D01*
X002144Y004887D01*
X002447Y004584D01*
X002441Y004239D01*
X002439Y004237D01*
X002439Y004234D01*
X002437Y004231D01*
X002439Y004149D01*
X002438Y004067D01*
X002439Y004065D01*
X002439Y004063D01*
X002442Y004061D01*
X002444Y003963D01*
X002144Y003663D01*
X002144Y003555D01*
X002582Y003117D01*
X002617Y003117D01*
X002617Y003082D01*
X002839Y002860D01*
X002121Y002860D01*
X002121Y002999D01*
X002044Y003075D01*
X001425Y003075D01*
X001414Y003065D01*
X001413Y003065D01*
X001379Y003085D01*
X001341Y003095D01*
X001115Y003095D01*
X001115Y002700D01*
X001015Y002700D01*
X001015Y002600D01*
X000659Y002600D01*
X000659Y002335D01*
X000670Y002297D01*
X000689Y002263D01*
X000717Y002235D01*
X000752Y002215D01*
X000790Y002205D01*
X001015Y002205D01*
X001015Y002600D01*
X001115Y002600D01*
X001115Y002205D01*
X001341Y002205D01*
X001379Y002215D01*
X001413Y002235D01*
X001414Y002235D01*
X001425Y002225D01*
X002044Y002225D01*
X002121Y002301D01*
X002121Y002440D01*
X002941Y002440D01*
X002941Y001829D01*
X002906Y001815D01*
X002785Y001694D01*
X002720Y001536D01*
X002720Y000764D01*
X002785Y000606D01*
X002792Y000600D01*
X002525Y000600D01*
X002535Y000614D01*
X002567Y000677D01*
X002589Y000745D01*
X002600Y000815D01*
X002600Y001100D01*
X002200Y001100D01*
X002200Y001200D01*
X002100Y001200D01*
X002100Y001898D01*
X002045Y001889D01*
X001977Y001867D01*
X001914Y001835D01*
X001857Y001793D01*
X001807Y001743D01*
X001765Y001686D01*
X001733Y001623D01*
X001711Y001555D01*
X001700Y001485D01*
X001700Y001200D01*
X002100Y001200D01*
X002100Y001100D01*
X001700Y001100D01*
X001700Y000815D01*
X001711Y000745D01*
X001733Y000677D01*
X001765Y000614D01*
X001775Y000600D01*
X000836Y000600D01*
X000695Y000741D02*
X001712Y000741D01*
X001700Y000840D02*
X000600Y000840D01*
X000600Y000938D02*
X001700Y000938D01*
X001700Y001037D02*
X000600Y001037D01*
X000600Y001135D02*
X002100Y001135D01*
X002100Y001234D02*
X002200Y001234D01*
X002200Y001200D02*
X002200Y001898D01*
X002255Y001889D01*
X002323Y001867D01*
X002386Y001835D01*
X002443Y001793D01*
X002493Y001743D01*
X002535Y001686D01*
X002567Y001623D01*
X002589Y001555D01*
X002600Y001485D01*
X002600Y001200D01*
X002200Y001200D01*
X002200Y001135D02*
X002720Y001135D01*
X002720Y001037D02*
X002600Y001037D01*
X002600Y000938D02*
X002720Y000938D01*
X002720Y000840D02*
X002600Y000840D01*
X002588Y000741D02*
X002730Y000741D01*
X002771Y000643D02*
X002549Y000643D01*
X002600Y001234D02*
X002720Y001234D01*
X002720Y001332D02*
X002600Y001332D01*
X002600Y001431D02*
X002720Y001431D01*
X002720Y001529D02*
X002593Y001529D01*
X002565Y001628D02*
X002758Y001628D01*
X002818Y001726D02*
X002506Y001726D01*
X002400Y001825D02*
X002930Y001825D01*
X002941Y001923D02*
X000600Y001923D01*
X000600Y001825D02*
X001900Y001825D01*
X001794Y001726D02*
X000600Y001726D01*
X000600Y001628D02*
X001735Y001628D01*
X001707Y001529D02*
X000600Y001529D01*
X000600Y001431D02*
X001700Y001431D01*
X001700Y001332D02*
X000600Y001332D01*
X000600Y001234D02*
X001700Y001234D01*
X002100Y001332D02*
X002200Y001332D01*
X002200Y001431D02*
X002100Y001431D01*
X002100Y001529D02*
X002200Y001529D01*
X002200Y001628D02*
X002100Y001628D01*
X002100Y001726D02*
X002200Y001726D01*
X002200Y001825D02*
X002100Y001825D01*
X002121Y002317D02*
X002941Y002317D01*
X002941Y002219D02*
X001385Y002219D01*
X001115Y002219D02*
X001015Y002219D01*
X001015Y002317D02*
X001115Y002317D01*
X001115Y002416D02*
X001015Y002416D01*
X001015Y002514D02*
X001115Y002514D01*
X001015Y002613D02*
X000600Y002613D01*
X000600Y002711D02*
X000659Y002711D01*
X000659Y002700D02*
X001015Y002700D01*
X001015Y003095D01*
X000790Y003095D01*
X000752Y003085D01*
X000717Y003065D01*
X000689Y003037D01*
X000670Y003003D01*
X000659Y002965D01*
X000659Y002700D01*
X000659Y002810D02*
X000600Y002810D01*
X000600Y002908D02*
X000659Y002908D01*
X000672Y003007D02*
X000600Y003007D01*
X000600Y003105D02*
X002617Y003105D01*
X002692Y003007D02*
X002113Y003007D01*
X002121Y002908D02*
X002791Y002908D01*
X002495Y003204D02*
X000600Y003204D01*
X000600Y003302D02*
X002397Y003302D01*
X002298Y003401D02*
X000600Y003401D01*
X000600Y003499D02*
X002200Y003499D01*
X002144Y003598D02*
X000600Y003598D01*
X000600Y003696D02*
X002177Y003696D01*
X002275Y003795D02*
X000600Y003795D01*
X000600Y003893D02*
X002374Y003893D01*
X002444Y003992D02*
X000600Y003992D01*
X000600Y004090D02*
X002438Y004090D01*
X002438Y004189D02*
X000600Y004189D01*
X000600Y004287D02*
X002442Y004287D01*
X002444Y004386D02*
X000600Y004386D01*
X000600Y004484D02*
X002446Y004484D01*
X002447Y004583D02*
X000600Y004583D01*
X000600Y004681D02*
X002350Y004681D01*
X002251Y004780D02*
X000600Y004780D01*
X000600Y004878D02*
X002153Y004878D01*
X002144Y004977D02*
X000600Y004977D01*
X000600Y005075D02*
X002224Y005075D01*
X002322Y005174D02*
X000600Y005174D01*
X000600Y005272D02*
X002421Y005272D01*
X002519Y005371D02*
X000600Y005371D01*
X000600Y005469D02*
X000745Y005469D01*
X000664Y005568D02*
X000600Y005568D01*
X000600Y005666D02*
X000659Y005666D01*
X000659Y005765D02*
X000600Y005765D01*
X000600Y005863D02*
X001015Y005863D01*
X001015Y005950D02*
X000659Y005950D01*
X000659Y006215D01*
X000670Y006253D01*
X000689Y006287D01*
X000717Y006315D01*
X000752Y006335D01*
X000790Y006345D01*
X001015Y006345D01*
X001015Y005950D01*
X001015Y005962D02*
X001115Y005962D01*
X001115Y006060D02*
X001015Y006060D01*
X001015Y006159D02*
X001115Y006159D01*
X001115Y006257D02*
X001015Y006257D01*
X000672Y006257D02*
X000600Y006257D01*
X000600Y006159D02*
X000659Y006159D01*
X000659Y006060D02*
X000600Y006060D01*
X000600Y005962D02*
X000659Y005962D01*
X001015Y005765D02*
X001115Y005765D01*
X001115Y005666D02*
X001015Y005666D01*
X001015Y005568D02*
X001115Y005568D01*
X001115Y005469D02*
X001015Y005469D01*
X001386Y005469D02*
X002618Y005469D01*
X002716Y005568D02*
X002121Y005568D01*
X002121Y005666D02*
X002815Y005666D01*
X003357Y005765D02*
X003940Y005765D01*
X003940Y005863D02*
X003361Y005863D01*
X003362Y005962D02*
X003940Y005962D01*
X003940Y006060D02*
X003358Y006060D01*
X003356Y006159D02*
X003940Y006159D01*
X003940Y006257D02*
X003354Y006257D01*
X003375Y006356D02*
X003940Y006356D01*
X003940Y006454D02*
X003473Y006454D01*
X003572Y006553D02*
X003940Y006553D01*
X003940Y006651D02*
X003656Y006651D01*
X003652Y006750D02*
X003940Y006750D01*
X003905Y006848D02*
X003553Y006848D01*
X003455Y006947D02*
X003806Y006947D01*
X003708Y007045D02*
X003356Y007045D01*
X003258Y007144D02*
X003609Y007144D01*
X003511Y007242D02*
X003159Y007242D01*
X003164Y007341D02*
X003412Y007341D01*
X003314Y007439D02*
X003263Y007439D01*
X002866Y007636D02*
X002765Y007636D01*
X002617Y007636D02*
X002461Y007636D01*
X002362Y007735D02*
X002964Y007735D01*
X003063Y007833D02*
X001825Y007833D01*
X001838Y007932D02*
X005902Y007932D01*
X005803Y008030D02*
X001845Y008030D01*
X001845Y008129D02*
X005705Y008129D01*
X005606Y008227D02*
X001450Y008227D01*
X001450Y008285D02*
X001845Y008285D01*
X001845Y008510D01*
X001835Y008548D01*
X001815Y008583D01*
X001787Y008611D01*
X001753Y008630D01*
X001715Y008641D01*
X001450Y008641D01*
X001450Y008285D01*
X001450Y008326D02*
X001350Y008326D01*
X001350Y008424D02*
X001450Y008424D01*
X001450Y008523D02*
X001350Y008523D01*
X001350Y008621D02*
X001450Y008621D01*
X001769Y008621D02*
X005320Y008621D01*
X005320Y008584D02*
X005322Y008580D01*
X005322Y008514D01*
X005368Y008468D01*
X005370Y008463D01*
X006215Y007618D01*
X006336Y007568D01*
X007320Y007568D01*
X007320Y007371D01*
X007301Y007371D01*
X007225Y007294D01*
X007225Y006675D01*
X007235Y006664D01*
X007235Y006663D01*
X007215Y006629D01*
X007205Y006591D01*
X007205Y006365D01*
X007600Y006365D01*
X007600Y006265D01*
X007700Y006265D01*
X007700Y005909D01*
X007965Y005909D01*
X008003Y005920D01*
X008037Y005939D01*
X008065Y005967D01*
X008085Y006002D01*
X008095Y006040D01*
X008095Y006265D01*
X007700Y006265D01*
X007700Y006365D01*
X008095Y006365D01*
X008095Y006591D01*
X008085Y006629D01*
X008065Y006663D01*
X008065Y006664D01*
X008075Y006675D01*
X008075Y007294D01*
X007999Y007371D01*
X007980Y007371D01*
X007980Y007568D01*
X008245Y007568D01*
X008321Y007492D01*
X008979Y007492D01*
X009056Y007569D01*
X009056Y008227D01*
X017692Y008227D01*
X017692Y008129D02*
X009056Y008129D01*
X009056Y008227D02*
X008979Y008304D01*
X008321Y008304D01*
X008245Y008228D01*
X006539Y008228D01*
X005837Y008930D01*
X005832Y008932D01*
X005786Y008978D01*
X005720Y008978D01*
X005716Y008980D01*
X005584Y008980D01*
X005580Y008978D01*
X005514Y008978D01*
X005468Y008932D01*
X005463Y008930D01*
X005370Y008837D01*
X005368Y008832D01*
X005322Y008786D01*
X005322Y008720D01*
X005320Y008716D01*
X005320Y008584D01*
X005322Y008523D02*
X001842Y008523D01*
X001845Y008424D02*
X005409Y008424D01*
X005508Y008326D02*
X001845Y008326D01*
X001350Y008227D02*
X000600Y008227D01*
X000600Y008129D02*
X000955Y008129D01*
X000955Y008030D02*
X000600Y008030D01*
X000600Y007932D02*
X000962Y007932D01*
X000975Y007833D02*
X000600Y007833D01*
X000600Y007735D02*
X000975Y007735D01*
X000975Y007636D02*
X000600Y007636D01*
X000600Y007538D02*
X000975Y007538D01*
X000975Y007439D02*
X000600Y007439D01*
X000600Y007341D02*
X000975Y007341D01*
X000988Y007242D02*
X000600Y007242D01*
X000600Y007144D02*
X002144Y007144D01*
X002154Y007045D02*
X000600Y007045D01*
X000600Y006947D02*
X002252Y006947D01*
X002351Y006848D02*
X000600Y006848D01*
X000600Y006750D02*
X002449Y006750D01*
X002548Y006651D02*
X000600Y006651D01*
X000600Y006553D02*
X002646Y006553D01*
X002745Y006454D02*
X000600Y006454D01*
X000600Y006356D02*
X002843Y006356D01*
X002934Y006257D02*
X002113Y006257D01*
X002121Y006159D02*
X002936Y006159D01*
X003403Y005666D02*
X003940Y005666D01*
X003940Y005568D02*
X003501Y005568D01*
X003600Y005469D02*
X003940Y005469D01*
X003906Y005371D02*
X003656Y005371D01*
X003623Y005272D02*
X003822Y005272D01*
X003822Y005174D02*
X003525Y005174D01*
X003426Y005075D02*
X003822Y005075D01*
X003859Y004977D02*
X003328Y004977D01*
X003229Y004878D02*
X003958Y004878D01*
X004342Y004878D02*
X005823Y004878D01*
X005823Y004780D02*
X003131Y004780D01*
X003032Y004681D02*
X005823Y004681D01*
X005823Y004583D02*
X005053Y004583D01*
X005135Y004484D02*
X005823Y004484D01*
X005823Y004386D02*
X005141Y004386D01*
X005141Y004287D02*
X005823Y004287D01*
X005888Y004189D02*
X004785Y004189D01*
X004785Y004100D02*
X005141Y004100D01*
X005141Y003835D01*
X005130Y003797D01*
X005111Y003763D01*
X005083Y003735D01*
X005048Y003715D01*
X005010Y003705D01*
X004785Y003705D01*
X004785Y004100D01*
X004785Y004090D02*
X004685Y004090D01*
X004685Y003992D02*
X004785Y003992D01*
X004785Y003893D02*
X004685Y003893D01*
X004685Y003795D02*
X004785Y003795D01*
X005129Y003795D02*
X005449Y003795D01*
X005449Y003893D02*
X005141Y003893D01*
X005141Y003992D02*
X005449Y003992D01*
X005493Y004090D02*
X005141Y004090D01*
X004785Y004287D02*
X004685Y004287D01*
X004685Y004386D02*
X004785Y004386D01*
X004785Y004484D02*
X004685Y004484D01*
X004685Y004583D02*
X004785Y004583D01*
X004416Y004583D02*
X002934Y004583D01*
X002866Y004484D02*
X003679Y004484D01*
X003679Y004386D02*
X002864Y004386D01*
X003008Y003893D02*
X003679Y003893D01*
X003686Y003795D02*
X003107Y003795D01*
X003183Y003696D02*
X005449Y003696D01*
X005449Y003598D02*
X003304Y003598D01*
X003402Y003499D02*
X005449Y003499D01*
X005449Y003401D02*
X003501Y003401D01*
X003599Y003302D02*
X005690Y003302D01*
X005690Y003204D02*
X003656Y003204D01*
X003624Y003105D02*
X005690Y003105D01*
X005747Y003007D02*
X003526Y003007D01*
X003427Y002908D02*
X005845Y002908D01*
X005944Y002810D02*
X003356Y002810D01*
X003361Y002711D02*
X007225Y002711D01*
X007225Y002613D02*
X003362Y002613D01*
X003361Y002514D02*
X007225Y002514D01*
X007225Y002416D02*
X003361Y002416D01*
X003361Y002317D02*
X007225Y002317D01*
X007225Y002219D02*
X003361Y002219D01*
X003361Y002120D02*
X007225Y002120D01*
X007225Y002022D02*
X003361Y002022D01*
X003361Y001923D02*
X007440Y001923D01*
X007440Y001825D02*
X004400Y001825D01*
X004386Y001835D02*
X004443Y001793D01*
X004493Y001743D01*
X004535Y001686D01*
X004567Y001623D01*
X004589Y001555D01*
X004600Y001485D01*
X004600Y001200D01*
X004200Y001200D01*
X004200Y001898D01*
X004255Y001889D01*
X004323Y001867D01*
X004386Y001835D01*
X004506Y001726D02*
X007440Y001726D01*
X007440Y001628D02*
X004565Y001628D01*
X004593Y001529D02*
X007474Y001529D01*
X007573Y001431D02*
X004600Y001431D01*
X004600Y001332D02*
X007671Y001332D01*
X007770Y001234D02*
X004600Y001234D01*
X004600Y001037D02*
X007967Y001037D01*
X007868Y001135D02*
X004200Y001135D01*
X004200Y001234D02*
X004100Y001234D01*
X004100Y001332D02*
X004200Y001332D01*
X004200Y001431D02*
X004100Y001431D01*
X004100Y001529D02*
X004200Y001529D01*
X004200Y001628D02*
X004100Y001628D01*
X004100Y001726D02*
X004200Y001726D01*
X004200Y001825D02*
X004100Y001825D01*
X003900Y001825D02*
X003370Y001825D01*
X003482Y001726D02*
X003794Y001726D01*
X003735Y001628D02*
X003542Y001628D01*
X003580Y001529D02*
X003707Y001529D01*
X003700Y001431D02*
X003580Y001431D01*
X003580Y001332D02*
X003700Y001332D01*
X003700Y001234D02*
X003580Y001234D01*
X003580Y001135D02*
X004100Y001135D01*
X003700Y001037D02*
X003580Y001037D01*
X003580Y000938D02*
X003700Y000938D01*
X003700Y000840D02*
X003580Y000840D01*
X003570Y000741D02*
X003712Y000741D01*
X003751Y000643D02*
X003529Y000643D01*
X004549Y000643D02*
X009771Y000643D01*
X009730Y000741D02*
X004588Y000741D01*
X004600Y000840D02*
X009720Y000840D01*
X009720Y000938D02*
X004600Y000938D01*
X002941Y002022D02*
X000600Y002022D01*
X000600Y002120D02*
X002941Y002120D01*
X002941Y002416D02*
X002121Y002416D01*
X001115Y002711D02*
X001015Y002711D01*
X001015Y002810D02*
X001115Y002810D01*
X001115Y002908D02*
X001015Y002908D01*
X001015Y003007D02*
X001115Y003007D01*
X000659Y002514D02*
X000600Y002514D01*
X000600Y002416D02*
X000659Y002416D01*
X000664Y002317D02*
X000600Y002317D01*
X000600Y002219D02*
X000745Y002219D01*
X004441Y004977D02*
X005887Y004977D01*
X005940Y005075D02*
X004478Y005075D01*
X004478Y005174D02*
X005940Y005174D01*
X005940Y005272D02*
X004478Y005272D01*
X004394Y005371D02*
X005940Y005371D01*
X005940Y005469D02*
X004360Y005469D01*
X004360Y005568D02*
X005940Y005568D01*
X005940Y005666D02*
X004360Y005666D01*
X004360Y005765D02*
X005968Y005765D01*
X006066Y005863D02*
X004360Y005863D01*
X004360Y005962D02*
X006072Y005962D01*
X006096Y006060D02*
X004360Y006060D01*
X004360Y006159D02*
X006194Y006159D01*
X006606Y006159D02*
X007205Y006159D01*
X007205Y006257D02*
X004360Y006257D01*
X004360Y006356D02*
X007600Y006356D01*
X007600Y006265D02*
X007205Y006265D01*
X007205Y006040D01*
X007215Y006002D01*
X007235Y005967D01*
X007263Y005939D01*
X007297Y005920D01*
X007335Y005909D01*
X007600Y005909D01*
X007600Y006265D01*
X007600Y006257D02*
X007700Y006257D01*
X007700Y006159D02*
X007600Y006159D01*
X007600Y006060D02*
X007700Y006060D01*
X007700Y005962D02*
X007600Y005962D01*
X007241Y005962D02*
X006728Y005962D01*
X006728Y005863D02*
X008320Y005863D01*
X008320Y005765D02*
X006728Y005765D01*
X006630Y005666D02*
X008320Y005666D01*
X008320Y005568D02*
X006364Y005568D01*
X006360Y005469D02*
X008320Y005469D01*
X008320Y005371D02*
X007999Y005371D01*
X008075Y005272D02*
X008320Y005272D01*
X008320Y004681D02*
X008075Y004681D01*
X008075Y004583D02*
X008321Y004583D01*
X008362Y004484D02*
X008075Y004484D01*
X008075Y004386D02*
X008448Y004386D01*
X008546Y004287D02*
X008075Y004287D01*
X008075Y004189D02*
X008645Y004189D01*
X008743Y004090D02*
X008075Y004090D01*
X008061Y003992D02*
X008842Y003992D01*
X008940Y003893D02*
X006871Y003893D01*
X006871Y003795D02*
X009039Y003795D01*
X009137Y003696D02*
X006572Y003696D01*
X006572Y003669D02*
X006572Y003765D01*
X006476Y003765D01*
X006476Y003669D01*
X006177Y003669D01*
X006177Y003422D01*
X006187Y003383D01*
X006207Y003349D01*
X006235Y003321D01*
X006269Y003302D01*
X006268Y003302D02*
X006110Y003302D01*
X006110Y003401D02*
X006183Y003401D01*
X006177Y003499D02*
X006110Y003499D01*
X006110Y003598D02*
X006177Y003598D01*
X006103Y003696D02*
X006476Y003696D01*
X006476Y003668D02*
X006572Y003668D01*
X006572Y003291D01*
X006741Y003291D01*
X006779Y003302D01*
X006813Y003321D01*
X006841Y003349D01*
X006861Y003383D01*
X006871Y003422D01*
X006871Y003669D01*
X006572Y003669D01*
X006572Y003598D02*
X006476Y003598D01*
X006476Y003668D02*
X006476Y003291D01*
X006307Y003291D01*
X006269Y003302D01*
X006143Y003204D02*
X007225Y003204D01*
X007232Y003302D02*
X006780Y003302D01*
X006865Y003401D02*
X009433Y003401D01*
X009334Y003499D02*
X006871Y003499D01*
X006871Y003598D02*
X009236Y003598D01*
X009531Y003302D02*
X008068Y003302D01*
X008075Y003204D02*
X009630Y003204D01*
X009728Y003105D02*
X008075Y003105D01*
X008075Y003007D02*
X009827Y003007D01*
X009925Y002908D02*
X008075Y002908D01*
X008075Y002810D02*
X010024Y002810D01*
X010122Y002711D02*
X008075Y002711D01*
X008075Y002613D02*
X010221Y002613D01*
X010319Y002514D02*
X008075Y002514D01*
X008075Y002416D02*
X010418Y002416D01*
X010516Y002317D02*
X008075Y002317D01*
X008075Y002219D02*
X010615Y002219D01*
X010713Y002120D02*
X008075Y002120D01*
X008075Y002022D02*
X010812Y002022D01*
X010820Y001923D02*
X007860Y001923D01*
X007860Y001825D02*
X009930Y001825D01*
X009818Y001726D02*
X007871Y001726D01*
X007969Y001628D02*
X009758Y001628D01*
X009720Y001529D02*
X008068Y001529D01*
X008166Y001431D02*
X009720Y001431D01*
X010370Y001825D02*
X010820Y001825D01*
X010818Y001726D02*
X010482Y001726D01*
X010542Y001628D02*
X010758Y001628D01*
X010720Y001529D02*
X010580Y001529D01*
X010580Y001431D02*
X010720Y001431D01*
X010720Y001332D02*
X010580Y001332D01*
X010580Y001234D02*
X010720Y001234D01*
X010720Y001135D02*
X010580Y001135D01*
X010580Y001037D02*
X010720Y001037D01*
X010720Y000938D02*
X010580Y000938D01*
X010580Y000840D02*
X010720Y000840D01*
X010730Y000741D02*
X010570Y000741D01*
X010529Y000643D02*
X010771Y000643D01*
X011508Y000600D02*
X011515Y000606D01*
X011580Y000764D01*
X011580Y001536D01*
X011515Y001694D01*
X011480Y001728D01*
X011480Y002216D01*
X011430Y002337D01*
X008980Y004787D01*
X008980Y005985D01*
X009745Y005985D01*
X009801Y005929D01*
X010499Y005929D01*
X010575Y006006D01*
X010575Y006625D01*
X010550Y006650D01*
X010575Y006675D01*
X010575Y007113D01*
X010835Y007373D01*
X011823Y007373D01*
X011823Y007254D01*
X011899Y007177D01*
X012401Y007177D01*
X012477Y007254D01*
X012477Y007373D01*
X013130Y007373D01*
X014440Y006063D01*
X014440Y003563D01*
X015940Y002063D01*
X015940Y001828D01*
X015906Y001815D01*
X015785Y001694D01*
X015720Y001536D01*
X015720Y000764D01*
X015785Y000606D01*
X015792Y000600D01*
X015508Y000600D01*
X015515Y000606D01*
X015580Y000764D01*
X015580Y001536D01*
X015515Y001694D01*
X015394Y001815D01*
X015236Y001880D01*
X015064Y001880D01*
X014906Y001815D01*
X014785Y001694D01*
X014720Y001536D01*
X014720Y000764D01*
X014785Y000606D01*
X014792Y000600D01*
X014508Y000600D01*
X014515Y000606D01*
X014580Y000764D01*
X014580Y001536D01*
X014515Y001694D01*
X014394Y001815D01*
X014236Y001880D01*
X014064Y001880D01*
X013906Y001815D01*
X013785Y001694D01*
X013720Y001536D01*
X013720Y000764D01*
X013785Y000606D01*
X013792Y000600D01*
X013508Y000600D01*
X013515Y000606D01*
X013580Y000764D01*
X013580Y001536D01*
X013515Y001694D01*
X013394Y001815D01*
X013236Y001880D01*
X013064Y001880D01*
X012906Y001815D01*
X012785Y001694D01*
X012720Y001536D01*
X012720Y000764D01*
X012785Y000606D01*
X012792Y000600D01*
X012525Y000600D01*
X012535Y000614D01*
X012567Y000677D01*
X012589Y000745D01*
X012600Y000815D01*
X012600Y001100D01*
X012200Y001100D01*
X012200Y001200D01*
X012100Y001200D01*
X012100Y001898D01*
X012045Y001889D01*
X011977Y001867D01*
X011914Y001835D01*
X011857Y001793D01*
X011807Y001743D01*
X011765Y001686D01*
X011733Y001623D01*
X011711Y001555D01*
X011700Y001485D01*
X011700Y001200D01*
X012100Y001200D01*
X012100Y001100D01*
X011700Y001100D01*
X011700Y000815D01*
X011711Y000745D01*
X011733Y000677D01*
X011765Y000614D01*
X011775Y000600D01*
X011508Y000600D01*
X011529Y000643D02*
X011751Y000643D01*
X011712Y000741D02*
X011570Y000741D01*
X011580Y000840D02*
X011700Y000840D01*
X011700Y000938D02*
X011580Y000938D01*
X011580Y001037D02*
X011700Y001037D01*
X011580Y001135D02*
X012100Y001135D01*
X012100Y001234D02*
X012200Y001234D01*
X012200Y001200D02*
X012200Y001898D01*
X012255Y001889D01*
X012323Y001867D01*
X012386Y001835D01*
X012443Y001793D01*
X012493Y001743D01*
X012535Y001686D01*
X012567Y001623D01*
X012589Y001555D01*
X012600Y001485D01*
X012600Y001200D01*
X012200Y001200D01*
X012200Y001135D02*
X012720Y001135D01*
X012720Y001037D02*
X012600Y001037D01*
X012600Y000938D02*
X012720Y000938D01*
X012720Y000840D02*
X012600Y000840D01*
X012588Y000741D02*
X012730Y000741D01*
X012771Y000643D02*
X012549Y000643D01*
X012600Y001234D02*
X012720Y001234D01*
X012720Y001332D02*
X012600Y001332D01*
X012600Y001431D02*
X012720Y001431D01*
X012720Y001529D02*
X012593Y001529D01*
X012565Y001628D02*
X012758Y001628D01*
X012818Y001726D02*
X012506Y001726D01*
X012400Y001825D02*
X012930Y001825D01*
X013370Y001825D02*
X013930Y001825D01*
X013818Y001726D02*
X013482Y001726D01*
X013542Y001628D02*
X013758Y001628D01*
X013720Y001529D02*
X013580Y001529D01*
X013580Y001431D02*
X013720Y001431D01*
X013720Y001332D02*
X013580Y001332D01*
X013580Y001234D02*
X013720Y001234D01*
X013720Y001135D02*
X013580Y001135D01*
X013580Y001037D02*
X013720Y001037D01*
X013720Y000938D02*
X013580Y000938D01*
X013580Y000840D02*
X013720Y000840D01*
X013730Y000741D02*
X013570Y000741D01*
X013529Y000643D02*
X013771Y000643D01*
X014529Y000643D02*
X014771Y000643D01*
X014730Y000741D02*
X014570Y000741D01*
X014580Y000840D02*
X014720Y000840D01*
X014720Y000938D02*
X014580Y000938D01*
X014580Y001037D02*
X014720Y001037D01*
X014720Y001135D02*
X014580Y001135D01*
X014580Y001234D02*
X014720Y001234D01*
X014720Y001332D02*
X014580Y001332D01*
X014580Y001431D02*
X014720Y001431D01*
X014720Y001529D02*
X014580Y001529D01*
X014542Y001628D02*
X014758Y001628D01*
X014818Y001726D02*
X014482Y001726D01*
X014370Y001825D02*
X014930Y001825D01*
X015370Y001825D02*
X015930Y001825D01*
X015940Y001923D02*
X011480Y001923D01*
X011480Y001825D02*
X011900Y001825D01*
X011794Y001726D02*
X011482Y001726D01*
X011542Y001628D02*
X011735Y001628D01*
X011707Y001529D02*
X011580Y001529D01*
X011580Y001431D02*
X011700Y001431D01*
X011700Y001332D02*
X011580Y001332D01*
X011580Y001234D02*
X011700Y001234D01*
X012100Y001332D02*
X012200Y001332D01*
X012200Y001431D02*
X012100Y001431D01*
X012100Y001529D02*
X012200Y001529D01*
X012200Y001628D02*
X012100Y001628D01*
X012100Y001726D02*
X012200Y001726D01*
X012200Y001825D02*
X012100Y001825D01*
X011480Y002022D02*
X015940Y002022D01*
X015883Y002120D02*
X011480Y002120D01*
X011479Y002219D02*
X015785Y002219D01*
X015686Y002317D02*
X011438Y002317D01*
X011351Y002416D02*
X015588Y002416D01*
X015489Y002514D02*
X011253Y002514D01*
X011154Y002613D02*
X015391Y002613D01*
X015292Y002711D02*
X011056Y002711D01*
X010957Y002810D02*
X015194Y002810D01*
X015095Y002908D02*
X010859Y002908D01*
X010760Y003007D02*
X014997Y003007D01*
X014898Y003105D02*
X010662Y003105D01*
X010563Y003204D02*
X014800Y003204D01*
X014701Y003302D02*
X010465Y003302D01*
X010366Y003401D02*
X014603Y003401D01*
X014504Y003499D02*
X010268Y003499D01*
X010169Y003598D02*
X014440Y003598D01*
X014440Y003696D02*
X010071Y003696D01*
X009972Y003795D02*
X014440Y003795D01*
X014440Y003893D02*
X009874Y003893D01*
X009775Y003992D02*
X014440Y003992D01*
X014440Y004090D02*
X009677Y004090D01*
X009578Y004189D02*
X014440Y004189D01*
X014440Y004287D02*
X009480Y004287D01*
X009381Y004386D02*
X011450Y004386D01*
X011514Y004322D02*
X011786Y004322D01*
X011904Y004440D01*
X012237Y004440D01*
X012360Y004563D01*
X012695Y004898D01*
X012695Y005225D01*
X012794Y005225D01*
X012871Y005301D01*
X012871Y005999D01*
X012794Y006075D01*
X012734Y006075D01*
X012734Y006311D01*
X012775Y006311D01*
X012851Y006387D01*
X012851Y007046D01*
X012775Y007123D01*
X012273Y007123D01*
X012197Y007046D01*
X012197Y006387D01*
X012273Y006311D01*
X012314Y006311D01*
X012314Y006075D01*
X012175Y006075D01*
X012150Y006050D01*
X012125Y006075D01*
X011986Y006075D01*
X011986Y006311D01*
X012027Y006311D01*
X012103Y006387D01*
X012103Y007046D01*
X012027Y007123D01*
X011525Y007123D01*
X011449Y007046D01*
X011449Y006927D01*
X011337Y006927D01*
X011286Y006978D01*
X011014Y006978D01*
X010822Y006786D01*
X010822Y006514D01*
X011014Y006322D01*
X011286Y006322D01*
X011449Y006485D01*
X011449Y006387D01*
X011525Y006311D01*
X011566Y006311D01*
X011566Y006075D01*
X011506Y006075D01*
X011429Y005999D01*
X011429Y005301D01*
X011506Y005225D01*
X012125Y005225D01*
X012150Y005250D01*
X012175Y005225D01*
X012275Y005225D01*
X012275Y005072D01*
X012063Y004860D01*
X011904Y004860D01*
X011786Y004978D01*
X011514Y004978D01*
X011322Y004786D01*
X011322Y004514D01*
X011514Y004322D01*
X011352Y004484D02*
X009283Y004484D01*
X009184Y004583D02*
X011322Y004583D01*
X011322Y004681D02*
X009086Y004681D01*
X008987Y004780D02*
X011322Y004780D01*
X011414Y004878D02*
X008980Y004878D01*
X008980Y004977D02*
X011512Y004977D01*
X011788Y004977D02*
X012180Y004977D01*
X012275Y005075D02*
X008980Y005075D01*
X008980Y005174D02*
X012275Y005174D01*
X012081Y004878D02*
X011886Y004878D01*
X012281Y004484D02*
X014440Y004484D01*
X014440Y004386D02*
X011850Y004386D01*
X012379Y004583D02*
X014440Y004583D01*
X014440Y004681D02*
X012478Y004681D01*
X012576Y004780D02*
X014440Y004780D01*
X014440Y004878D02*
X012675Y004878D01*
X012695Y004977D02*
X014440Y004977D01*
X014440Y005075D02*
X012695Y005075D01*
X012695Y005174D02*
X014440Y005174D01*
X014440Y005272D02*
X012842Y005272D01*
X012871Y005371D02*
X014440Y005371D01*
X014440Y005469D02*
X012871Y005469D01*
X012871Y005568D02*
X014440Y005568D01*
X014440Y005666D02*
X012871Y005666D01*
X012871Y005765D02*
X014440Y005765D01*
X014440Y005863D02*
X012871Y005863D01*
X012871Y005962D02*
X014440Y005962D01*
X014440Y006060D02*
X012810Y006060D01*
X012734Y006159D02*
X014345Y006159D01*
X014246Y006257D02*
X012734Y006257D01*
X012819Y006356D02*
X014148Y006356D01*
X014049Y006454D02*
X012851Y006454D01*
X012851Y006553D02*
X013950Y006553D01*
X013852Y006651D02*
X012851Y006651D01*
X012851Y006750D02*
X013753Y006750D01*
X013655Y006848D02*
X012851Y006848D01*
X012851Y006947D02*
X013556Y006947D01*
X013458Y007045D02*
X012851Y007045D01*
X012465Y007242D02*
X013261Y007242D01*
X013359Y007144D02*
X010606Y007144D01*
X010575Y007045D02*
X011449Y007045D01*
X011449Y006947D02*
X011317Y006947D01*
X010983Y006947D02*
X010575Y006947D01*
X010575Y006848D02*
X010884Y006848D01*
X010822Y006750D02*
X010575Y006750D01*
X010551Y006651D02*
X010822Y006651D01*
X010822Y006553D02*
X010575Y006553D01*
X010575Y006454D02*
X010882Y006454D01*
X010980Y006356D02*
X010575Y006356D01*
X010575Y006257D02*
X011566Y006257D01*
X011566Y006159D02*
X010575Y006159D01*
X010575Y006060D02*
X011490Y006060D01*
X011429Y005962D02*
X010531Y005962D01*
X009769Y005962D02*
X008980Y005962D01*
X008980Y005863D02*
X011429Y005863D01*
X011429Y005765D02*
X008980Y005765D01*
X008980Y005666D02*
X011429Y005666D01*
X011429Y005568D02*
X008980Y005568D01*
X008980Y005469D02*
X011429Y005469D01*
X011429Y005371D02*
X008980Y005371D01*
X008980Y005272D02*
X011458Y005272D01*
X012140Y006060D02*
X012160Y006060D01*
X012314Y006159D02*
X011986Y006159D01*
X011986Y006257D02*
X012314Y006257D01*
X012229Y006356D02*
X012071Y006356D01*
X012103Y006454D02*
X012197Y006454D01*
X012197Y006553D02*
X012103Y006553D01*
X012103Y006651D02*
X012197Y006651D01*
X012197Y006750D02*
X012103Y006750D01*
X012103Y006848D02*
X012197Y006848D01*
X012197Y006947D02*
X012103Y006947D01*
X012103Y007045D02*
X012197Y007045D01*
X011835Y007242D02*
X010704Y007242D01*
X010803Y007341D02*
X011823Y007341D01*
X011823Y007833D02*
X009056Y007833D01*
X009056Y007735D02*
X010603Y007735D01*
X010538Y007670D02*
X010538Y007670D01*
X010504Y007636D02*
X009056Y007636D01*
X009025Y007538D02*
X010406Y007538D01*
X010307Y007439D02*
X007980Y007439D01*
X007980Y007538D02*
X008275Y007538D01*
X008029Y007341D02*
X009771Y007341D01*
X009725Y007242D02*
X008075Y007242D01*
X008075Y007144D02*
X009725Y007144D01*
X009725Y007045D02*
X008075Y007045D01*
X008075Y006947D02*
X009725Y006947D01*
X009725Y006848D02*
X008075Y006848D01*
X008075Y006750D02*
X008263Y006750D01*
X008244Y006651D02*
X008072Y006651D01*
X008095Y006553D02*
X008244Y006553D01*
X008244Y006454D02*
X008095Y006454D01*
X008244Y006356D02*
X007700Y006356D01*
X008095Y006257D02*
X008244Y006257D01*
X008244Y006159D02*
X008095Y006159D01*
X008095Y006060D02*
X008257Y006060D01*
X008320Y005962D02*
X008059Y005962D01*
X007205Y006060D02*
X006704Y006060D01*
X007205Y006454D02*
X004360Y006454D01*
X004360Y006553D02*
X007205Y006553D01*
X007228Y006651D02*
X004360Y006651D01*
X004360Y006750D02*
X007225Y006750D01*
X007225Y006848D02*
X004360Y006848D01*
X004360Y006947D02*
X007225Y006947D01*
X007225Y007045D02*
X004302Y007045D01*
X004203Y007144D02*
X007225Y007144D01*
X007225Y007242D02*
X004105Y007242D01*
X004006Y007341D02*
X007271Y007341D01*
X007320Y007439D02*
X003908Y007439D01*
X003809Y007538D02*
X007320Y007538D01*
X006441Y008326D02*
X017692Y008326D01*
X017692Y008424D02*
X006343Y008424D01*
X006244Y008523D02*
X017692Y008523D01*
X017692Y008621D02*
X006146Y008621D01*
X006047Y008720D02*
X017692Y008720D01*
X017692Y008818D02*
X005949Y008818D01*
X005850Y008917D02*
X017692Y008917D01*
X017692Y009015D02*
X000600Y009015D01*
X000600Y008917D02*
X005450Y008917D01*
X005354Y008818D02*
X000600Y008818D01*
X000600Y008720D02*
X005322Y008720D01*
X006000Y007833D02*
X003514Y007833D01*
X003612Y007735D02*
X006099Y007735D01*
X006197Y007636D02*
X003711Y007636D01*
X002223Y007242D02*
X001812Y007242D01*
X001825Y007341D02*
X002162Y007341D01*
X000955Y008326D02*
X000600Y008326D01*
X000600Y008424D02*
X000955Y008424D01*
X000958Y008523D02*
X000600Y008523D01*
X000600Y008621D02*
X001031Y008621D01*
X000600Y009114D02*
X017692Y009114D01*
X017692Y009212D02*
X000600Y009212D01*
X000600Y009311D02*
X017692Y009311D01*
X017692Y009409D02*
X000600Y009409D01*
X000600Y009508D02*
X017692Y009508D01*
X017692Y009606D02*
X000600Y009606D01*
X000600Y009705D02*
X017692Y009705D01*
X017692Y009803D02*
X000600Y009803D01*
X000600Y009902D02*
X017692Y009902D01*
X017692Y010000D02*
X000600Y010000D01*
X000600Y010099D02*
X017692Y010099D01*
X017692Y010197D02*
X000600Y010197D01*
X000600Y010296D02*
X017692Y010296D01*
X017692Y010394D02*
X000600Y010394D01*
X000600Y010493D02*
X017692Y010493D01*
X017692Y010591D02*
X000600Y010591D01*
X000600Y010690D02*
X017692Y010690D01*
X017692Y010788D02*
X000600Y010788D01*
X000600Y010887D02*
X017692Y010887D01*
X017692Y010985D02*
X000600Y010985D01*
X000600Y011084D02*
X017692Y011084D01*
X017692Y011182D02*
X000600Y011182D01*
X000600Y011281D02*
X017692Y011281D01*
X017692Y011379D02*
X000600Y011379D01*
X000600Y011478D02*
X017692Y011478D01*
X017692Y011576D02*
X000600Y011576D01*
X000600Y011675D02*
X000991Y011675D01*
X001051Y011650D02*
X001249Y011650D01*
X001433Y011726D01*
X001574Y011867D01*
X001650Y012051D01*
X001650Y012249D01*
X001574Y012433D01*
X001433Y012574D01*
X001249Y012650D01*
X001051Y012650D01*
X000867Y012574D01*
X000726Y012433D01*
X000650Y012249D01*
X000650Y012051D01*
X000726Y011867D01*
X000867Y011726D01*
X001051Y011650D01*
X000820Y011773D02*
X000600Y011773D01*
X000600Y011872D02*
X000724Y011872D01*
X000683Y011970D02*
X000600Y011970D01*
X000600Y012069D02*
X000650Y012069D01*
X000650Y012167D02*
X000600Y012167D01*
X000600Y012266D02*
X000657Y012266D01*
X000697Y012364D02*
X000600Y012364D01*
X000600Y012463D02*
X000755Y012463D01*
X000697Y012561D02*
X000854Y012561D01*
X000796Y012660D02*
X017504Y012660D01*
X017433Y012574D02*
X017249Y012650D01*
X017051Y012650D01*
X016867Y012574D01*
X016726Y012433D01*
X016650Y012249D01*
X016650Y012051D01*
X016726Y011867D01*
X016867Y011726D01*
X017051Y011650D01*
X017249Y011650D01*
X017433Y011726D01*
X017574Y011867D01*
X017650Y012051D01*
X017650Y012249D01*
X017574Y012433D01*
X017433Y012574D01*
X017446Y012561D02*
X017603Y012561D01*
X017545Y012463D02*
X017692Y012463D01*
X017692Y012364D02*
X017603Y012364D01*
X017643Y012266D02*
X017692Y012266D01*
X017692Y012167D02*
X017650Y012167D01*
X017650Y012069D02*
X017692Y012069D01*
X017692Y011970D02*
X017617Y011970D01*
X017576Y011872D02*
X017692Y011872D01*
X017692Y011773D02*
X017480Y011773D01*
X017309Y011675D02*
X017692Y011675D01*
X016991Y011675D02*
X001309Y011675D01*
X001480Y011773D02*
X003457Y011773D01*
X003429Y011801D02*
X003506Y011725D01*
X004125Y011725D01*
X004136Y011735D01*
X004137Y011735D01*
X004171Y011715D01*
X004209Y011705D01*
X004435Y011705D01*
X004435Y012100D01*
X004535Y012100D01*
X004535Y012200D01*
X004891Y012200D01*
X004891Y012465D01*
X004880Y012503D01*
X004861Y012537D01*
X004833Y012565D01*
X004798Y012585D01*
X004760Y012595D01*
X004535Y012595D01*
X004535Y012200D01*
X004435Y012200D01*
X004435Y012595D01*
X004209Y012595D01*
X004171Y012585D01*
X004137Y012565D01*
X004136Y012565D01*
X004125Y012575D01*
X003506Y012575D01*
X003429Y012499D01*
X003429Y012360D01*
X002904Y012360D01*
X002786Y012478D01*
X002514Y012478D01*
X002322Y012286D01*
X002322Y012014D01*
X002514Y011822D01*
X002786Y011822D01*
X002904Y011940D01*
X003429Y011940D01*
X003429Y011801D01*
X003429Y011872D02*
X002836Y011872D01*
X002464Y011872D02*
X001576Y011872D01*
X001617Y011970D02*
X002366Y011970D01*
X002322Y012069D02*
X001650Y012069D01*
X001650Y012167D02*
X002322Y012167D01*
X002322Y012266D02*
X001643Y012266D01*
X001603Y012364D02*
X002400Y012364D01*
X002499Y012463D02*
X001545Y012463D01*
X001446Y012561D02*
X003491Y012561D01*
X003429Y012463D02*
X002801Y012463D01*
X002900Y012364D02*
X003429Y012364D01*
X004435Y012364D02*
X004535Y012364D01*
X004535Y012266D02*
X004435Y012266D01*
X004535Y012167D02*
X016650Y012167D01*
X016650Y012069D02*
X004891Y012069D01*
X004891Y012100D02*
X004535Y012100D01*
X004535Y011705D01*
X004760Y011705D01*
X004798Y011715D01*
X004833Y011735D01*
X004861Y011763D01*
X004880Y011797D01*
X004891Y011835D01*
X004891Y012100D01*
X004891Y011970D02*
X016683Y011970D01*
X016724Y011872D02*
X004891Y011872D01*
X004867Y011773D02*
X016820Y011773D01*
X016657Y012266D02*
X004891Y012266D01*
X004891Y012364D02*
X016697Y012364D01*
X016755Y012463D02*
X004891Y012463D01*
X004837Y012561D02*
X016854Y012561D01*
X017692Y008030D02*
X009056Y008030D01*
X009056Y007932D02*
X011842Y007932D01*
X012458Y007932D02*
X017692Y007932D01*
X017692Y007833D02*
X012477Y007833D01*
X012477Y007341D02*
X013162Y007341D01*
X013461Y007636D02*
X017692Y007636D01*
X017692Y007538D02*
X013559Y007538D01*
X013658Y007439D02*
X017692Y007439D01*
X017692Y007341D02*
X013756Y007341D01*
X013855Y007242D02*
X017692Y007242D01*
X017692Y007144D02*
X013953Y007144D01*
X014052Y007045D02*
X017692Y007045D01*
X017692Y006947D02*
X014150Y006947D01*
X014249Y006848D02*
X017692Y006848D01*
X017692Y006750D02*
X014347Y006750D01*
X014446Y006651D02*
X017692Y006651D01*
X017692Y006553D02*
X014544Y006553D01*
X014643Y006454D02*
X017692Y006454D01*
X017692Y006356D02*
X014741Y006356D01*
X014840Y006257D02*
X017692Y006257D01*
X017692Y006159D02*
X014860Y006159D01*
X014860Y006060D02*
X017692Y006060D01*
X017692Y005962D02*
X014860Y005962D01*
X014860Y005863D02*
X017692Y005863D01*
X017692Y005765D02*
X014860Y005765D01*
X014860Y005666D02*
X017692Y005666D01*
X017692Y005568D02*
X014860Y005568D01*
X014860Y005469D02*
X016005Y005469D01*
X015906Y005371D02*
X014860Y005371D01*
X014860Y005272D02*
X015822Y005272D01*
X015822Y005174D02*
X014860Y005174D01*
X014860Y005075D02*
X015822Y005075D01*
X015859Y004977D02*
X014860Y004977D01*
X014860Y004878D02*
X015940Y004878D01*
X015940Y004780D02*
X014860Y004780D01*
X014860Y004681D02*
X015940Y004681D01*
X015940Y004583D02*
X014860Y004583D01*
X014860Y004484D02*
X015940Y004484D01*
X015940Y004386D02*
X014860Y004386D01*
X014860Y004287D02*
X015725Y004287D01*
X015725Y004189D02*
X014860Y004189D01*
X014860Y004090D02*
X015725Y004090D01*
X015725Y003992D02*
X014860Y003992D01*
X014860Y003893D02*
X015725Y003893D01*
X015725Y003795D02*
X014860Y003795D01*
X014901Y003696D02*
X015725Y003696D01*
X015706Y003598D02*
X014999Y003598D01*
X015098Y003499D02*
X015705Y003499D01*
X015705Y003401D02*
X015196Y003401D01*
X015295Y003302D02*
X016100Y003302D01*
X016100Y003265D02*
X015705Y003265D01*
X015705Y003040D01*
X015715Y003002D01*
X015735Y002967D01*
X015763Y002939D01*
X015797Y002920D01*
X015835Y002909D01*
X016100Y002909D01*
X016100Y003265D01*
X016100Y003204D02*
X016200Y003204D01*
X016200Y003302D02*
X016725Y003302D01*
X016725Y003204D02*
X016595Y003204D01*
X016595Y003105D02*
X016725Y003105D01*
X016725Y003007D02*
X016586Y003007D01*
X016940Y002908D02*
X015689Y002908D01*
X015714Y003007D02*
X015590Y003007D01*
X015492Y003105D02*
X015705Y003105D01*
X015705Y003204D02*
X015393Y003204D01*
X015787Y002810D02*
X016940Y002810D01*
X016940Y002711D02*
X015886Y002711D01*
X015984Y002613D02*
X016940Y002613D01*
X016940Y002514D02*
X016083Y002514D01*
X016181Y002416D02*
X016940Y002416D01*
X016940Y002317D02*
X016280Y002317D01*
X016360Y002219D02*
X016940Y002219D01*
X016940Y002120D02*
X016360Y002120D01*
X016360Y002022D02*
X016940Y002022D01*
X016940Y001923D02*
X016360Y001923D01*
X016370Y001825D02*
X016930Y001825D01*
X016818Y001726D02*
X016482Y001726D01*
X016542Y001628D02*
X016758Y001628D01*
X016720Y001529D02*
X016580Y001529D01*
X016580Y001431D02*
X016720Y001431D01*
X016720Y001332D02*
X016580Y001332D01*
X016580Y001234D02*
X016720Y001234D01*
X016720Y001135D02*
X016580Y001135D01*
X016580Y001037D02*
X016720Y001037D01*
X016720Y000938D02*
X016580Y000938D01*
X016580Y000840D02*
X016720Y000840D01*
X016730Y000741D02*
X016570Y000741D01*
X016529Y000643D02*
X016771Y000643D01*
X017570Y000741D02*
X017605Y000741D01*
X017580Y000840D02*
X017692Y000840D01*
X017692Y000938D02*
X017580Y000938D01*
X017580Y001037D02*
X017692Y001037D01*
X017692Y001135D02*
X017580Y001135D01*
X017580Y001234D02*
X017692Y001234D01*
X017692Y001332D02*
X017580Y001332D01*
X017580Y001431D02*
X017692Y001431D01*
X017692Y001529D02*
X017580Y001529D01*
X017542Y001628D02*
X017692Y001628D01*
X017692Y001726D02*
X017482Y001726D01*
X017370Y001825D02*
X017692Y001825D01*
X017692Y001923D02*
X017360Y001923D01*
X017360Y002022D02*
X017692Y002022D01*
X017692Y002120D02*
X017360Y002120D01*
X017360Y002219D02*
X017692Y002219D01*
X017692Y002317D02*
X017360Y002317D01*
X017360Y002416D02*
X017692Y002416D01*
X017692Y002514D02*
X017360Y002514D01*
X017360Y002613D02*
X017692Y002613D01*
X017692Y002711D02*
X017360Y002711D01*
X017360Y002810D02*
X017692Y002810D01*
X017692Y002908D02*
X017360Y002908D01*
X017575Y003007D02*
X017692Y003007D01*
X017692Y003105D02*
X017575Y003105D01*
X017575Y003204D02*
X017692Y003204D01*
X017692Y003302D02*
X017575Y003302D01*
X017575Y003401D02*
X017692Y003401D01*
X017692Y003499D02*
X017575Y003499D01*
X017575Y003598D02*
X017692Y003598D01*
X017692Y003696D02*
X017575Y003696D01*
X017575Y003795D02*
X017692Y003795D01*
X017692Y003893D02*
X017575Y003893D01*
X017575Y003992D02*
X017692Y003992D01*
X017692Y004090D02*
X017575Y004090D01*
X017575Y004189D02*
X017692Y004189D01*
X017692Y004287D02*
X017575Y004287D01*
X017692Y004386D02*
X016360Y004386D01*
X016360Y004484D02*
X017692Y004484D01*
X017692Y004583D02*
X016360Y004583D01*
X016360Y004681D02*
X017692Y004681D01*
X017692Y004780D02*
X016360Y004780D01*
X016360Y004878D02*
X017692Y004878D01*
X017692Y004977D02*
X016441Y004977D01*
X016478Y005075D02*
X017692Y005075D01*
X017692Y005174D02*
X016478Y005174D01*
X016478Y005272D02*
X017692Y005272D01*
X017692Y005371D02*
X016394Y005371D01*
X016295Y005469D02*
X017692Y005469D01*
X016725Y004287D02*
X016575Y004287D01*
X016575Y003696D02*
X016725Y003696D01*
X016725Y003598D02*
X016594Y003598D01*
X016595Y003499D02*
X016725Y003499D01*
X016725Y003401D02*
X016595Y003401D01*
X016200Y003105D02*
X016100Y003105D01*
X016100Y003007D02*
X016200Y003007D01*
X015818Y001726D02*
X015482Y001726D01*
X015542Y001628D02*
X015758Y001628D01*
X015720Y001529D02*
X015580Y001529D01*
X015580Y001431D02*
X015720Y001431D01*
X015720Y001332D02*
X015580Y001332D01*
X015580Y001234D02*
X015720Y001234D01*
X015720Y001135D02*
X015580Y001135D01*
X015580Y001037D02*
X015720Y001037D01*
X015720Y000938D02*
X015580Y000938D01*
X015580Y000840D02*
X015720Y000840D01*
X015730Y000741D02*
X015570Y000741D01*
X015529Y000643D02*
X015771Y000643D01*
X011481Y006356D02*
X011320Y006356D01*
X011418Y006454D02*
X011449Y006454D01*
X009749Y006651D02*
X009056Y006651D01*
X009037Y006750D02*
X009725Y006750D01*
X007301Y005371D02*
X006360Y005371D01*
X006360Y005272D02*
X007225Y005272D01*
X007225Y005174D02*
X006360Y005174D01*
X006360Y005075D02*
X007225Y005075D01*
X007225Y004977D02*
X006413Y004977D01*
X006477Y004878D02*
X007225Y004878D01*
X007225Y004780D02*
X006817Y004780D01*
X006916Y004681D02*
X007225Y004681D01*
X006716Y004287D02*
X006477Y004287D01*
X006412Y004189D02*
X007225Y004189D01*
X007225Y004090D02*
X006836Y004090D01*
X006841Y004085D02*
X006813Y004113D01*
X006779Y004132D01*
X006741Y004143D01*
X006572Y004143D01*
X006572Y003765D01*
X006871Y003765D01*
X006871Y004012D01*
X006861Y004050D01*
X006841Y004085D01*
X006871Y003992D02*
X007239Y003992D01*
X006572Y003992D02*
X006476Y003992D01*
X006476Y004090D02*
X006572Y004090D01*
X006476Y004143D02*
X006307Y004143D01*
X006269Y004132D01*
X006235Y004113D01*
X006207Y004085D01*
X006187Y004050D01*
X006177Y004012D01*
X006177Y003765D01*
X006476Y003765D01*
X006476Y004143D01*
X006476Y003893D02*
X006572Y003893D01*
X006572Y003795D02*
X006476Y003795D01*
X006476Y003499D02*
X006572Y003499D01*
X006572Y003401D02*
X006476Y003401D01*
X006476Y003302D02*
X006572Y003302D01*
X006177Y003795D02*
X006103Y003795D01*
X006103Y003893D02*
X006177Y003893D01*
X006177Y003992D02*
X006103Y003992D01*
X006059Y004090D02*
X006213Y004090D01*
X013362Y007735D02*
X017692Y007735D01*
X004535Y011773D02*
X004435Y011773D01*
X004435Y011872D02*
X004535Y011872D01*
X004535Y011970D02*
X004435Y011970D01*
X004435Y012069D02*
X004535Y012069D01*
X004535Y012463D02*
X004435Y012463D01*
X004435Y012561D02*
X004535Y012561D01*
D18*
X005650Y012150D03*
X002650Y012150D03*
X001650Y010900D03*
X005650Y008650D03*
X007650Y007898D03*
X006400Y005900D03*
X004150Y005150D03*
X001650Y004900D03*
X001650Y006650D03*
X006150Y001900D03*
X008900Y001900D03*
X011650Y004650D03*
X011150Y006650D03*
X016150Y007400D03*
X016150Y005150D03*
X016150Y010150D03*
X016150Y012150D03*
X013150Y012150D03*
X009400Y012150D03*
D19*
X005650Y008650D02*
X006402Y007898D01*
X007650Y007898D01*
X007650Y006985D01*
X008650Y006402D02*
X008650Y006150D01*
X008815Y006315D01*
X010150Y006315D01*
X008650Y006150D02*
X008650Y005150D01*
X008650Y004650D01*
X011150Y002150D01*
X011150Y001150D01*
X008650Y007898D02*
X007650Y007898D01*
M02*
