%
M48
M72
T01C0.0236
T02C0.0400
%
T01
X4150Y4950
X6400Y6200
X7650Y8198
X11150Y6950
X11650Y4950
X8900Y2200
X1650Y6950
X2650Y8950
X1650Y11450
X2650Y12450
X5650Y12450
X13150Y12450
X16150Y8950
X16150Y5450
T02
X2150Y1450
X3150Y1450
X4150Y1450
X10150Y1450
X11150Y1450
X12150Y1450
X13150Y1450
X14150Y1450
X15150Y1450
X16150Y1450
X17150Y1450
X17150Y12450
X1150Y12450
M30
