G75*
%MOIN*%
%OFA0B0*%
%FSLAX24Y24*%
%IPPOS*%
%LPD*%
%AMOC8*
5,1,8,0,0,1.08239X$1,22.5*
%
%ADD10R,0.0789X0.0867*%
%ADD11R,0.0867X0.0789*%
%ADD12R,0.0867X0.2678*%
%ADD13R,0.0867X0.3230*%
%ADD14R,0.3111X0.2442*%
%ADD15C,0.0680*%
%ADD16C,0.0820*%
%ADD17OC8,0.0476*%
D10*
X002894Y003525D03*
X004646Y003525D03*
X006398Y003525D03*
X008150Y003525D03*
X009902Y003525D03*
X011654Y003525D03*
X013406Y003525D03*
X013406Y010375D03*
X011654Y010375D03*
X009902Y010375D03*
X008150Y010375D03*
X006398Y010375D03*
X004646Y010375D03*
X002894Y010375D03*
D11*
X001457Y009667D03*
X001457Y007856D03*
X001457Y006044D03*
X001457Y004233D03*
D12*
X014843Y009391D03*
D13*
X014843Y004785D03*
D14*
X003839Y007147D03*
D15*
X002150Y001750D02*
X002150Y001150D01*
X003150Y001150D02*
X003150Y001750D01*
X004150Y001750D02*
X004150Y001150D01*
X010150Y001150D02*
X010150Y001750D01*
X011150Y001750D02*
X011150Y001150D01*
X012150Y001150D02*
X012150Y001750D01*
X013150Y001750D02*
X013150Y001150D01*
X014150Y001150D02*
X014150Y001750D01*
X015150Y001750D02*
X015150Y001150D01*
X016150Y001150D02*
X016150Y001750D01*
X017150Y001750D02*
X017150Y001150D01*
D16*
X017150Y012450D03*
X001150Y012450D03*
D17*
X001650Y011450D03*
X002650Y012450D03*
X005650Y012450D03*
X002650Y008950D03*
X001650Y006950D03*
X004150Y004950D03*
X006400Y006200D03*
X007650Y008198D03*
X011150Y006950D03*
X011650Y004950D03*
X008900Y002200D03*
X016150Y005450D03*
X016150Y008950D03*
X013150Y012450D03*
M02*
