%
M48
M72
T01C0.0236
T02C0.0400
%
T01
X6150Y1900
X8900Y1900
X11650Y4650
X11150Y6650
X7650Y7898
X5650Y8650
X6400Y5900
X4150Y5150
X1650Y4900
X1650Y6650
X1650Y10900
X2650Y12150
X5650Y12150
X9400Y12150
X13150Y12150
X16150Y12150
X16150Y10150
X16150Y7400
X16150Y5150
T02
X2150Y1150
X3150Y1150
X4150Y1150
X10150Y1150
X11150Y1150
X12150Y1150
X13150Y1150
X14150Y1150
X15150Y1150
X16150Y1150
X17150Y1150
X17150Y12150
X1150Y12150
M30
